<svg xmlns="http://www.w3.org/2000/svg" width="662" height="307" style="
        width:662px;
        height:307px;
        background: transparent;
        fill: none;
">
        
        
        <svg xmlns="http://www.w3.org/2000/svg" class="role-diagram-draw-area"><g class="shapes-region" style="stroke: black; fill: none;"><g class="arrow-line"><path class="connection real" stroke-dasharray="" d="  M27.5,80 L157.5,80" style="stroke: rgb(0, 0, 0); stroke-width: 1; fill: none;"/><g stroke="#000" transform="matrix(-1,1.2246467991473532e-16,-1.2246467991473532e-16,-1,157.5,80.00000000000001)" style="stroke: rgb(0, 0, 0); stroke-width: 1;"><path d=" M0,5.59 L0,-5.59"/></g><g stroke="#000" transform="matrix(-1,1.2246467991473532e-16,-1.2246467991473532e-16,-1,27.500000000000004,80)" style="stroke: rgb(0, 0, 0); stroke-width: 1;"><path d=" M0,5.59 L0,-5.59"/></g></g><g class="arrow-line"><path class="connection real" stroke-dasharray="" d="  M157.5,80 L247.5,80" style="stroke: rgb(0, 0, 0); stroke-width: 1; fill: none;"/><g stroke="#000" transform="matrix(-1,1.2246467991473532e-16,-1.2246467991473532e-16,-1,247.5,80)" style="stroke: rgb(0, 0, 0); stroke-width: 1;"><path d=" M0,5.59 L0,-5.59"/></g><g stroke="#000" transform="matrix(-1,1.2246467991473532e-16,-1.2246467991473532e-16,-1,157.5,80.00000000000001)" style="stroke: rgb(0, 0, 0); stroke-width: 1;"><path d=" M0,5.59 L0,-5.59"/></g></g><g class="composite-shape"><path class="real" d=" M310,60 L650,60 L650,290 L310,290 Z" style="stroke-width: 1; stroke: rgb(0, 0, 0); fill: none;"/></g><g/></g><g/><g><g><rect rx="0" ry="0" x="338" y="202" width="127" height="80" style="stroke: rgb(0, 0, 0); stroke-width: 1; fill: none;"/></g><g><rect rx="0" ry="0" x="488" y="202" width="128" height="80" style="stroke: rgb(0, 0, 0); stroke-width: 1; fill: none;"/></g></g><g/></svg>
        <svg xmlns="http://www.w3.org/2000/svg" width="660" height="305" style="width:660px;height:305px;font-family:Asana-Math, Asana;background:transparent;"><g><g><g><g><g><g style="transform:matrix(1,0,0,1,21.98748779296875,119.18001220703125);"><path d="M390 646L463 646C541 646 577 641 580 629C583 621 585 602 584 592L580 528L608 528L635 692L544 691C456 690 388 689 353 689C316 689 252 690 166 691L71 692L53 528L82 528L97 588C102 610 109 626 115 633C121 640 159 646 196 646L308 646L222 125C206 34 204 31 164 28L113 25L109 -3L166 -2C206 -1 235 0 251 0C270 0 301 -1 340 -2L384 -3L387 25L328 28C302 29 292 37 292 58C292 67 293 74 296 93Z" stroke="rgb(0, 0, 0)" stroke-width="8" fill="rgb(0, 0, 0)" style="transform:matrix(0.024480000000000002,0,0,-0.024480000000000002,0,0);"></path></g><g><g><g><g style="transform:matrix(1,0,0,1,37.63751220703125,124.29850610351562);"><path d="M385 458C342 475 313 482 284 482C209 482 121 394 103 374C63 327 24 181 24 78C24 19 36 -11 60 -11C82 -11 101 -3 133 19C180 51 259 121 308 209L232 -205C227 -229 217 -249 205 -262L214 -276C245 -268 276 -262 300 -259C304 -205 310 -150 319 -100L405 356C416 417 422 443 432 474L418 480ZM118 59C104 59 96 80 96 113C96 209 139 359 181 409C193 424 222 433 254 433C282 433 303 427 351 406L330 311C301 174 160 59 118 59Z" stroke="rgb(0, 0, 0)" stroke-width="8" fill="rgb(0, 0, 0)" style="transform:matrix(0.017136,0,0,-0.017136,0,0);"></path></g></g></g></g></g></g></g></g></g><g><g><g><g><g><g style="transform:matrix(1,0,0,1,143.2750244140625,116.18001220703125);"><path d="M390 646L463 646C541 646 577 641 580 629C583 621 585 602 584 592L580 528L608 528L635 692L544 691C456 690 388 689 353 689C316 689 252 690 166 691L71 692L53 528L82 528L97 588C102 610 109 626 115 633C121 640 159 646 196 646L308 646L222 125C206 34 204 31 164 28L113 25L109 -3L166 -2C206 -1 235 0 251 0C270 0 301 -1 340 -2L384 -3L387 25L328 28C302 29 292 37 292 58C292 67 293 74 296 93Z" stroke="rgb(0, 0, 0)" stroke-width="8" fill="rgb(0, 0, 0)" style="transform:matrix(0.024480000000000002,0,0,-0.024480000000000002,0,0);"></path></g><g><g><g><g style="transform:matrix(1,0,0,1,158.92498779296875,121.29850610351562);"><path d="M385 458C342 475 313 482 284 482C209 482 121 394 103 374C63 327 24 181 24 78C24 19 36 -11 60 -11C82 -11 101 -3 133 19C180 51 259 121 308 209L232 -205C227 -229 217 -249 205 -262L214 -276C245 -268 276 -262 300 -259C304 -205 310 -150 319 -100L405 356C416 417 422 443 432 474L418 480ZM118 59C104 59 96 80 96 113C96 209 139 359 181 409C193 424 222 433 254 433C282 433 303 427 351 406L330 311C301 174 160 59 118 59ZM807 437L791 437L812 549C828 635 856 673 902 673C932 673 959 658 974 634L984 638C989 654 999 685 1007 705L1012 720C996 727 965 733 942 733C931 733 915 730 907 726C883 715 801 654 778 630C756 608 744 578 733 521L718 442C677 422 657 414 632 405L627 383L708 383L699 327C669 132 632 -54 610 -123C592 -182 562 -213 526 -213C503 -213 492 -206 474 -184L460 -188C456 -211 442 -259 437 -268C446 -273 461 -276 472 -276C513 -276 567 -245 606 -198C677 -114 697 -18 781 383L885 383C889 402 896 425 902 439L898 446C869 439 870 437 807 437Z" stroke="rgb(0, 0, 0)" stroke-width="8" fill="rgb(0, 0, 0)" style="transform:matrix(0.017136,0,0,-0.017136,0,0);"></path></g></g></g></g></g></g></g></g></g><g><g><g><g><g><g style="transform:matrix(1,0,0,1,231.23126220703125,116.18001220703125);"><path d="M390 646L463 646C541 646 577 641 580 629C583 621 585 602 584 592L580 528L608 528L635 692L544 691C456 690 388 689 353 689C316 689 252 690 166 691L71 692L53 528L82 528L97 588C102 610 109 626 115 633C121 640 159 646 196 646L308 646L222 125C206 34 204 31 164 28L113 25L109 -3L166 -2C206 -1 235 0 251 0C270 0 301 -1 340 -2L384 -3L387 25L328 28C302 29 292 37 292 58C292 67 293 74 296 93Z" stroke="rgb(0, 0, 0)" stroke-width="8" fill="rgb(0, 0, 0)" style="transform:matrix(0.024480000000000002,0,0,-0.024480000000000002,0,0);"></path></g><g><g><g><g style="transform:matrix(1,0,0,1,246.8812255859375,121.29850610351562);"><path d="M345 437L329 437L350 549C366 635 394 673 440 673C470 673 497 658 512 634L522 638C527 654 537 685 545 705L550 720C534 727 503 733 480 733C469 733 453 730 445 726C421 715 339 654 316 630C294 608 282 578 271 521L256 442C215 422 195 414 170 405L165 383L246 383L237 327C207 132 170 -54 148 -123C130 -182 100 -213 64 -213C41 -213 30 -206 12 -184L-2 -188C-6 -211 -20 -259 -25 -268C-16 -273 -1 -276 10 -276C51 -276 105 -245 144 -198C215 -114 235 -18 319 383L423 383C427 402 434 425 440 439L436 446C407 439 408 437 345 437Z" stroke="rgb(0, 0, 0)" stroke-width="8" fill="rgb(0, 0, 0)" style="transform:matrix(0.017136,0,0,-0.017136,0,0);"></path></g></g></g></g></g></g></g></g></g><g><g><g><g><g><g style="transform:matrix(1,0,0,1,344.3687744140625,103.28000305175782);"><path d="M108 471C108 386 146 339 230 319L325 296C379 283 406 248 406 191C406 96 335 30 232 30C178 30 140 42 96 73L96 172L66 172C60 117 53 72 42 20C91 -5 144 -18 197 -18C352 -18 485 99 485 234C485 313 442 355 341 377L276 391C210 405 180 442 180 508C180 595 247 658 339 658C388 658 421 645 451 613L451 537L481 537C485 591 492 629 506 672C461 696 421 706 374 706C250 706 108 614 108 471Z" stroke="rgb(0, 0, 0)" stroke-width="8" fill="rgb(0, 0, 0)" style="transform:matrix(0.024480000000000002,0,0,-0.024480000000000002,0,0);"></path></g><g style="transform:matrix(1,0,0,1,365.29376220703125,103.28000305175782);"><path d="M604 347L604 406L65 406L65 347ZM604 134L604 193L65 193L65 134Z" stroke="rgb(0, 0, 0)" stroke-width="8" fill="rgb(0, 0, 0)" style="transform:matrix(0.024480000000000002,0,0,-0.024480000000000002,0,0);"></path></g><g><g><g><g style="transform:matrix(1,0,0,1,391.41876220703125,83.605);"><path d="M390 646L463 646C541 646 577 641 580 629C583 621 585 602 584 592L580 528L608 528L635 692L544 691C456 690 388 689 353 689C316 689 252 690 166 691L71 692L53 528L82 528L97 588C102 610 109 626 115 633C121 640 159 646 196 646L308 646L222 125C206 34 204 31 164 28L113 25L109 -3L166 -2C206 -1 235 0 251 0C270 0 301 -1 340 -2L384 -3L387 25L328 28C302 29 292 37 292 58C292 67 293 74 296 93Z" stroke="rgb(0, 0, 0)" stroke-width="8" fill="rgb(0, 0, 0)" style="transform:matrix(0.024480000000000002,0,0,-0.024480000000000002,0,0);"></path></g><g><g><g><g style="transform:matrix(1,0,0,1,407.0687255859375,88.72350915527343);"><path d="M176 -11C232 -11 347 62 390 125C431 186 465 296 465 371C465 438 442 482 406 482C364 482 311 456 259 409C218 374 198 348 162 289L186 408C189 425 191 440 191 452C191 471 183 482 169 482C148 482 110 461 36 408L8 388L15 368L47 389C75 407 86 412 95 412C105 412 112 403 112 389C112 381 110 361 108 351L50 8C40 -52 21 -143 1 -233L-7 -270L0 -276C21 -269 41 -264 73 -259L115 3C136 -4 158 -11 176 -11ZM143 165C165 293 272 424 355 424C381 424 393 402 393 356C393 275 353 156 300 80C280 51 248 36 207 36C176 36 151 43 125 59ZM867 365C870 403 875 435 883 476C872 481 868 482 863 482C832 482 801 458 765 407C726 351 687 291 671 256L703 408C707 425 709 438 709 450C709 470 701 482 686 482C665 482 627 461 553 408L525 388L532 368L564 389C592 407 603 412 612 412C622 412 629 403 629 390C629 332 586 126 546 -2L556 -9C571 -4 587 -1 610 4L623 6L649 126C667 209 690 262 734 319C768 363 795 384 817 384C832 384 842 379 853 365ZM904 152C904 46 949 -11 1032 -11C1087 -11 1147 15 1192 57C1254 116 1298 230 1298 331C1298 425 1248 482 1165 482C1061 482 904 382 904 152ZM1128 444C1189 444 1222 399 1222 315C1222 219 1191 113 1147 60C1129 39 1103 27 1072 27C1014 27 980 72 980 151C980 264 1019 387 1068 427C1081 438 1104 444 1128 444ZM1672 330L1695 330C1703 395 1710 432 1719 458C1695 473 1660 482 1623 482C1578 483 1505 463 1448 400C1394 352 1355 241 1355 136C1355 40 1397 -11 1477 -11C1531 -11 1579 9 1634 54L1684 95L1676 115L1661 105C1589 57 1551 40 1516 40C1460 40 1431 80 1431 159C1431 267 1466 371 1515 409C1536 425 1560 433 1591 433C1636 433 1672 414 1672 390ZM2064 111L2040 94C1987 56 1939 36 1903 36C1856 36 1827 73 1827 133C1827 158 1830 185 1835 214C1852 218 1961 248 1986 259C2071 296 2110 342 2110 404C2110 451 2076 482 2026 482C1958 496 1848 423 1811 349C1781 299 1751 180 1751 113C1751 35 1795 -11 1867 -11C1924 -11 1980 17 2072 92ZM1849 274C1866 343 1886 386 1915 412C1933 428 1964 440 1988 440C2017 440 2036 420 2036 388C2036 344 2001 297 1949 272C1921 258 1885 247 1840 237ZM2155 148C2150 97 2144 62 2133 16C2171 -2 2205 -11 2240 -11C2289 -11 2335 7 2386 47C2437 87 2458 124 2458 174C2458 228 2426 257 2352 271L2309 279C2249 290 2230 307 2230 348C2230 401 2275 442 2332 442C2373 442 2411 424 2427 397L2427 342L2450 342C2454 377 2458 404 2469 455C2430 474 2402 482 2369 482C2317 482 2256 452 2208 404C2182 377 2171 352 2171 316C2171 260 2202 228 2268 215L2331 203C2375 195 2391 177 2391 138C2391 73 2345 29 2274 29C2239 29 2208 40 2180 64L2180 148ZM2543 148C2538 97 2532 62 2521 16C2559 -2 2593 -11 2628 -11C2677 -11 2723 7 2774 47C2825 87 2846 124 2846 174C2846 228 2814 257 2740 271L2697 279C2637 290 2618 307 2618 348C2618 401 2663 442 2720 442C2761 442 2799 424 2815 397L2815 342L2838 342C2842 377 2846 404 2857 455C2818 474 2790 482 2757 482C2705 482 2644 452 2596 404C2570 377 2559 352 2559 316C2559 260 2590 228 2656 215L2719 203C2763 195 2779 177 2779 138C2779 73 2733 29 2662 29C2627 29 2596 40 2568 64L2568 148ZM2934 388L2941 368L2973 389C3010 412 3013 414 3020 414C3030 414 3038 404 3038 391C3038 384 3034 361 3030 347L2964 107C2956 76 2951 49 2951 30C2951 6 2962 -9 2981 -9C3007 -9 3043 12 3141 85L3131 103L3105 86C3076 67 3053 56 3044 56C3037 56 3031 66 3031 76C3031 86 3033 95 3038 116L3115 420C3119 437 3121 448 3121 456C3121 473 3112 482 3096 482C3074 482 3037 461 2962 408ZM3128 712C3099 712 3070 679 3070 645C3070 620 3085 604 3109 604C3140 604 3164 633 3164 671C3164 695 3149 712 3128 712ZM3201 388L3208 368L3240 389C3277 412 3280 414 3287 414C3298 414 3305 404 3305 389C3305 338 3264 145 3223 2L3230 -9C3255 -2 3278 4 3300 8C3319 134 3340 199 3386 268C3440 352 3515 414 3560 414C3571 414 3577 405 3577 390C3577 372 3574 351 3566 319L3514 107C3505 70 3501 47 3501 31C3501 6 3512 -9 3531 -9C3557 -9 3593 12 3691 85L3681 103L3655 86C3626 67 3604 56 3594 56C3587 56 3581 65 3581 76C3581 81 3582 92 3583 96L3649 372C3656 401 3660 429 3660 446C3660 469 3649 482 3629 482C3587 482 3518 444 3459 389C3421 354 3393 320 3341 247L3379 408C3383 426 3385 438 3385 449C3385 470 3377 482 3362 482C3341 482 3302 460 3229 408ZM4007 482C3940 482 3787 419 3787 259C3787 182 3832 136 3909 136C3917 136 3928 136 3939 137L3898 99C3882 84 3871 66 3871 52C3871 42 3878 31 3892 19C3823 -4 3695 -48 3695 -159C3695 -230 3765 -276 3874 -276C4003 -276 4116 -204 4116 -121C4116 -85 4095 -49 4052 -14L3992 35C3958 62 3945 81 3945 100C3945 114 3960 128 3972 146C4070 170 4141 253 4141 342C4141 357 4138 376 4137 380C4154 378 4162 378 4171 378C4188 378 4198 379 4221 382L4230 427L4227 433C4199 426 4179 424 4125 424C4125 425 4101 482 4007 482ZM3908 1L3985 -58C4031 -94 4050 -121 4050 -154C4050 -206 3981 -248 3898 -248C3816 -248 3759 -206 3759 -145C3759 -43 3869 -11 3908 1ZM3982 448C4040 448 4069 412 4069 341C4069 238 4021 168 3951 168C3890 168 3858 209 3858 288C3858 383 3909 448 3982 448Z" stroke="rgb(0, 0, 0)" stroke-width="8" fill="rgb(0, 0, 0)" style="transform:matrix(0.017136,0,0,-0.017136,0,0);"></path></g></g></g></g><g style="transform:matrix(1,0,0,1,480.99371337890625,83.605);"><path d="" stroke="rgb(0, 0, 0)" stroke-width="8" fill="rgb(0, 0, 0)" style="transform:matrix(0.024480000000000002,0,0,-0.024480000000000002,0,0);"></path></g><g style="transform:matrix(1,0,0,1,491.98126220703125,83.605);"><path d="M604 241L604 300L364 300L364 538L305 538L305 300L65 300L65 241L305 241L305 0L364 0L364 241Z" stroke="rgb(0, 0, 0)" stroke-width="8" fill="rgb(0, 0, 0)" style="transform:matrix(0.024480000000000002,0,0,-0.024480000000000002,0,0);"></path></g><g style="transform:matrix(1,0,0,1,513.2188110351562,83.605);"><path d="M639 646L712 646C790 646 826 641 829 629C832 621 834 602 833 592L829 528L857 528L884 692L793 691C705 690 637 689 602 689C565 689 501 690 415 691L320 692L302 528L331 528L346 588C351 610 358 626 364 633C370 640 408 646 445 646L557 646L471 125C455 34 453 31 413 28L362 25L358 -3L415 -2C455 -1 484 0 500 0C519 0 550 -1 589 -2L633 -3L636 25L577 28C551 29 541 37 541 58C541 67 542 74 545 93Z" stroke="rgb(0, 0, 0)" stroke-width="8" fill="rgb(0, 0, 0)" style="transform:matrix(0.024480000000000002,0,0,-0.024480000000000002,0,0);"></path></g><g><g><g><g style="transform:matrix(1,0,0,1,534.9688110351562,88.72350915527343);"><path d="M385 458C342 475 313 482 284 482C209 482 121 394 103 374C63 327 24 181 24 78C24 19 36 -11 60 -11C82 -11 101 -3 133 19C180 51 259 121 308 209L232 -205C227 -229 217 -249 205 -262L214 -276C245 -268 276 -262 300 -259C304 -205 310 -150 319 -100L405 356C416 417 422 443 432 474L418 480ZM118 59C104 59 96 80 96 113C96 209 139 359 181 409C193 424 222 433 254 433C282 433 303 427 351 406L330 311C301 174 160 59 118 59ZM954 473L947 482L879 465L869 414C854 336 829 268 798 221C739 130 661 59 621 59C613 59 608 68 608 85C608 99 610 112 615 137L672 408C675 424 677 438 677 451C677 470 668 482 654 482C634 482 596 461 522 408L494 388L501 368L533 389C561 407 572 412 581 412C590 412 598 403 598 392C598 388 597 378 596 374L533 77C531 68 529 44 529 30C529 7 544 -11 564 -11C627 -11 748 101 832 239L795 97C788 73 784 46 784 31C784 6 795 -9 814 -9C840 -9 876 12 974 85L964 103L938 86C914 70 888 59 877 59C869 59 864 66 864 76C864 112 939 416 954 473ZM1345 111L1321 94C1268 56 1220 36 1184 36C1137 36 1108 73 1108 133C1108 158 1111 185 1116 214C1133 218 1242 248 1267 259C1352 296 1391 342 1391 404C1391 451 1357 482 1307 482C1239 496 1129 423 1092 349C1062 299 1032 180 1032 113C1032 35 1076 -11 1148 -11C1205 -11 1261 17 1353 92ZM1130 274C1147 343 1167 386 1196 412C1214 428 1245 440 1269 440C1298 440 1317 420 1317 388C1317 344 1282 297 1230 272C1202 258 1166 247 1121 237ZM1897 473L1890 482L1822 465L1812 414C1797 336 1772 268 1741 221C1682 130 1604 59 1564 59C1556 59 1551 68 1551 85C1551 99 1553 112 1558 137L1615 408C1618 424 1620 438 1620 451C1620 470 1611 482 1597 482C1577 482 1539 461 1465 408L1437 388L1444 368L1476 389C1504 407 1515 412 1524 412C1533 412 1541 403 1541 392C1541 388 1540 378 1539 374L1476 77C1474 68 1472 44 1472 30C1472 7 1487 -11 1507 -11C1570 -11 1691 101 1775 239L1738 97C1731 73 1727 46 1727 31C1727 6 1738 -9 1757 -9C1783 -9 1819 12 1917 85L1907 103L1881 86C1857 70 1831 59 1820 59C1812 59 1807 66 1807 76C1807 112 1882 416 1897 473ZM2288 111L2264 94C2211 56 2163 36 2127 36C2080 36 2051 73 2051 133C2051 158 2054 185 2059 214C2076 218 2185 248 2210 259C2295 296 2334 342 2334 404C2334 451 2300 482 2250 482C2182 496 2072 423 2035 349C2005 299 1975 180 1975 113C1975 35 2019 -11 2091 -11C2148 -11 2204 17 2296 92ZM2073 274C2090 343 2110 386 2139 412C2157 428 2188 440 2212 440C2241 440 2260 420 2260 388C2260 344 2225 297 2173 272C2145 258 2109 247 2064 237ZM2831 722L2819 733C2767 707 2731 698 2659 691L2655 670L2703 670C2727 670 2737 663 2737 646C2737 638 2736 629 2735 622L2707 468C2677 477 2650 482 2625 482C2556 482 2462 410 2416 323C2385 265 2365 170 2365 86C2365 21 2380 -11 2409 -11C2436 -11 2473 6 2507 33C2561 77 2594 116 2661 217L2638 126C2627 82 2622 50 2622 24C2622 3 2631 -9 2648 -9C2665 -9 2689 3 2723 28L2804 88L2794 107L2750 76C2736 66 2720 59 2711 59C2703 59 2697 68 2697 82C2697 90 2698 99 2705 128ZM2462 59C2446 59 2437 73 2437 98C2437 224 2483 380 2532 418C2545 428 2564 433 2591 433C2635 433 2664 427 2697 410L2685 351C2648 171 2507 59 2462 59Z" stroke="rgb(0, 0, 0)" stroke-width="8" fill="rgb(0, 0, 0)" style="transform:matrix(0.017136,0,0,-0.017136,0,0);"></path></g></g></g></g></g></g><g><g><g style="transform:matrix(1,0,0,1,443.51873779296875,122.09251831054688);"><path d="M390 646L463 646C541 646 577 641 580 629C583 621 585 602 584 592L580 528L608 528L635 692L544 691C456 690 388 689 353 689C316 689 252 690 166 691L71 692L53 528L82 528L97 588C102 610 109 626 115 633C121 640 159 646 196 646L308 646L222 125C206 34 204 31 164 28L113 25L109 -3L166 -2C206 -1 235 0 251 0C270 0 301 -1 340 -2L384 -3L387 25L328 28C302 29 292 37 292 58C292 67 293 74 296 93Z" stroke="rgb(0, 0, 0)" stroke-width="8" fill="rgb(0, 0, 0)" style="transform:matrix(0.024480000000000002,0,0,-0.024480000000000002,0,0);"></path></g><g><g><g><g style="transform:matrix(1,0,0,1,459.16876220703125,127.21101220703125);"><path d="M176 -11C232 -11 347 62 390 125C431 186 465 296 465 371C465 438 442 482 406 482C364 482 311 456 259 409C218 374 198 348 162 289L186 408C189 425 191 440 191 452C191 471 183 482 169 482C148 482 110 461 36 408L8 388L15 368L47 389C75 407 86 412 95 412C105 412 112 403 112 389C112 381 110 361 108 351L50 8C40 -52 21 -143 1 -233L-7 -270L0 -276C21 -269 41 -264 73 -259L115 3C136 -4 158 -11 176 -11ZM143 165C165 293 272 424 355 424C381 424 393 402 393 356C393 275 353 156 300 80C280 51 248 36 207 36C176 36 151 43 125 59ZM867 365C870 403 875 435 883 476C872 481 868 482 863 482C832 482 801 458 765 407C726 351 687 291 671 256L703 408C707 425 709 438 709 450C709 470 701 482 686 482C665 482 627 461 553 408L525 388L532 368L564 389C592 407 603 412 612 412C622 412 629 403 629 390C629 332 586 126 546 -2L556 -9C571 -4 587 -1 610 4L623 6L649 126C667 209 690 262 734 319C768 363 795 384 817 384C832 384 842 379 853 365ZM904 152C904 46 949 -11 1032 -11C1087 -11 1147 15 1192 57C1254 116 1298 230 1298 331C1298 425 1248 482 1165 482C1061 482 904 382 904 152ZM1128 444C1189 444 1222 399 1222 315C1222 219 1191 113 1147 60C1129 39 1103 27 1072 27C1014 27 980 72 980 151C980 264 1019 387 1068 427C1081 438 1104 444 1128 444ZM1672 330L1695 330C1703 395 1710 432 1719 458C1695 473 1660 482 1623 482C1578 483 1505 463 1448 400C1394 352 1355 241 1355 136C1355 40 1397 -11 1477 -11C1531 -11 1579 9 1634 54L1684 95L1676 115L1661 105C1589 57 1551 40 1516 40C1460 40 1431 80 1431 159C1431 267 1466 371 1515 409C1536 425 1560 433 1591 433C1636 433 1672 414 1672 390ZM2064 111L2040 94C1987 56 1939 36 1903 36C1856 36 1827 73 1827 133C1827 158 1830 185 1835 214C1852 218 1961 248 1986 259C2071 296 2110 342 2110 404C2110 451 2076 482 2026 482C1958 496 1848 423 1811 349C1781 299 1751 180 1751 113C1751 35 1795 -11 1867 -11C1924 -11 1980 17 2072 92ZM1849 274C1866 343 1886 386 1915 412C1933 428 1964 440 1988 440C2017 440 2036 420 2036 388C2036 344 2001 297 1949 272C1921 258 1885 247 1840 237ZM2155 148C2150 97 2144 62 2133 16C2171 -2 2205 -11 2240 -11C2289 -11 2335 7 2386 47C2437 87 2458 124 2458 174C2458 228 2426 257 2352 271L2309 279C2249 290 2230 307 2230 348C2230 401 2275 442 2332 442C2373 442 2411 424 2427 397L2427 342L2450 342C2454 377 2458 404 2469 455C2430 474 2402 482 2369 482C2317 482 2256 452 2208 404C2182 377 2171 352 2171 316C2171 260 2202 228 2268 215L2331 203C2375 195 2391 177 2391 138C2391 73 2345 29 2274 29C2239 29 2208 40 2180 64L2180 148ZM2543 148C2538 97 2532 62 2521 16C2559 -2 2593 -11 2628 -11C2677 -11 2723 7 2774 47C2825 87 2846 124 2846 174C2846 228 2814 257 2740 271L2697 279C2637 290 2618 307 2618 348C2618 401 2663 442 2720 442C2761 442 2799 424 2815 397L2815 342L2838 342C2842 377 2846 404 2857 455C2818 474 2790 482 2757 482C2705 482 2644 452 2596 404C2570 377 2559 352 2559 316C2559 260 2590 228 2656 215L2719 203C2763 195 2779 177 2779 138C2779 73 2733 29 2662 29C2627 29 2596 40 2568 64L2568 148ZM2934 388L2941 368L2973 389C3010 412 3013 414 3020 414C3030 414 3038 404 3038 391C3038 384 3034 361 3030 347L2964 107C2956 76 2951 49 2951 30C2951 6 2962 -9 2981 -9C3007 -9 3043 12 3141 85L3131 103L3105 86C3076 67 3053 56 3044 56C3037 56 3031 66 3031 76C3031 86 3033 95 3038 116L3115 420C3119 437 3121 448 3121 456C3121 473 3112 482 3096 482C3074 482 3037 461 2962 408ZM3128 712C3099 712 3070 679 3070 645C3070 620 3085 604 3109 604C3140 604 3164 633 3164 671C3164 695 3149 712 3128 712ZM3201 388L3208 368L3240 389C3277 412 3280 414 3287 414C3298 414 3305 404 3305 389C3305 338 3264 145 3223 2L3230 -9C3255 -2 3278 4 3300 8C3319 134 3340 199 3386 268C3440 352 3515 414 3560 414C3571 414 3577 405 3577 390C3577 372 3574 351 3566 319L3514 107C3505 70 3501 47 3501 31C3501 6 3512 -9 3531 -9C3557 -9 3593 12 3691 85L3681 103L3655 86C3626 67 3604 56 3594 56C3587 56 3581 65 3581 76C3581 81 3582 92 3583 96L3649 372C3656 401 3660 429 3660 446C3660 469 3649 482 3629 482C3587 482 3518 444 3459 389C3421 354 3393 320 3341 247L3379 408C3383 426 3385 438 3385 449C3385 470 3377 482 3362 482C3341 482 3302 460 3229 408ZM4007 482C3940 482 3787 419 3787 259C3787 182 3832 136 3909 136C3917 136 3928 136 3939 137L3898 99C3882 84 3871 66 3871 52C3871 42 3878 31 3892 19C3823 -4 3695 -48 3695 -159C3695 -230 3765 -276 3874 -276C4003 -276 4116 -204 4116 -121C4116 -85 4095 -49 4052 -14L3992 35C3958 62 3945 81 3945 100C3945 114 3960 128 3972 146C4070 170 4141 253 4141 342C4141 357 4138 376 4137 380C4154 378 4162 378 4171 378C4188 378 4198 379 4221 382L4230 427L4227 433C4199 426 4179 424 4125 424C4125 425 4101 482 4007 482ZM3908 1L3985 -58C4031 -94 4050 -121 4050 -154C4050 -206 3981 -248 3898 -248C3816 -248 3759 -206 3759 -145C3759 -43 3869 -11 3908 1ZM3982 448C4040 448 4069 412 4069 341C4069 238 4021 168 3951 168C3890 168 3858 209 3858 288C3858 383 3909 448 3982 448Z" stroke="rgb(0, 0, 0)" stroke-width="8" fill="rgb(0, 0, 0)" style="transform:matrix(0.017136,0,0,-0.017136,0,0);"></path></g></g></g></g></g></g><line style="fill:none;stroke-width:1px;stroke:rgb(0, 0, 0);" x1="391.41876220703125" y1="97.48751831054688" x2="585.1937713623047" y2="97.48751831054688"></line></g></g></g></g></g></g><g><g><g><g><g><g style="transform:matrix(1,0,0,1,342.375,259.8112683105469);"><path d="M409 -15C458 -15 530 43 565 74L565 81C562 86 558 90 553 92C531 76 472 25 461 77C461 151 506 393 533 463L533 473C511 465 488 459 465 456L455 445C453 381 421 203 395 146C372 97 311 42 254 42C199 42 184 90 185 137C188 248 238 356 241 467C213 462 187 457 161 453C179 227 9 -91 53 -286C76 -285 109 -281 131 -273L131 -261C81 -173 121 -38 138 36L138 35C204 -77 344 37 395 104L395 101C387 65 354 -15 409 -15Z" stroke="rgb(0, 0, 0)" stroke-width="8" fill="rgb(0, 0, 0)" style="transform:matrix(0.024480000000000002,0,0,-0.024480000000000002,0,0);"></path></g><g><g><g><g style="transform:matrix(1,0,0,1,358.0250244140625,264.9297622070313);"><path d="M108 471C108 386 146 339 230 319L325 296C379 283 406 248 406 191C406 96 335 30 232 30C178 30 140 42 96 73L96 172L66 172C60 117 53 72 42 20C91 -5 144 -18 197 -18C352 -18 485 99 485 234C485 313 442 355 341 377L276 391C210 405 180 442 180 508C180 595 247 658 339 658C388 658 421 645 451 613L451 537L481 537C485 591 492 629 506 672C461 696 421 706 374 706C250 706 108 614 108 471Z" stroke="rgb(0, 0, 0)" stroke-width="8" fill="rgb(0, 0, 0)" style="transform:matrix(0.017136,0,0,-0.017136,0,0);"></path></g></g></g></g><g style="transform:matrix(1,0,0,1,376.3375244140625,259.8112683105469);"><path d="M604 347L604 406L65 406L65 347ZM604 134L604 193L65 193L65 134Z" stroke="rgb(0, 0, 0)" stroke-width="8" fill="rgb(0, 0, 0)" style="transform:matrix(0.024480000000000002,0,0,-0.024480000000000002,0,0);"></path></g><g><g><g><g><g><g><g style="transform:matrix(1,0,0,1,424.48748779296875,217.37974389648437);"><path d="M24 388L31 368L63 389C100 412 103 414 110 414C121 414 128 404 128 389C128 338 87 145 46 2L53 -9C78 -2 101 4 123 8C142 134 163 199 209 268C263 352 338 414 383 414C394 414 400 405 400 390C400 372 397 351 389 319L337 107C328 70 324 47 324 31C324 6 335 -9 354 -9C380 -9 416 12 514 85L504 103L478 86C449 67 427 56 417 56C410 56 404 65 404 76C404 81 405 92 406 96L472 372C479 401 483 429 483 446C483 469 472 482 452 482C410 482 341 444 282 389C244 354 216 320 164 247L202 408C206 426 208 438 208 449C208 470 200 482 185 482C164 482 125 460 52 408Z" stroke="rgb(0, 0, 0)" stroke-width="8" fill="rgb(0, 0, 0)" style="transform:matrix(0.017136,0,0,-0.017136,0,0);"></path></g></g></g><g><g><g style="transform:matrix(1,0,0,1,424.48748779296875,245.25474389648437);"><path d="M263 689C108 689 29 566 29 324C29 207 50 106 85 57C120 8 176 -20 238 -20C389 -20 465 110 465 366C465 585 400 689 263 689ZM245 654C342 654 381 556 381 316C381 103 343 15 251 15C154 15 113 116 113 360C113 571 150 654 245 654Z" stroke="rgb(0, 0, 0)" stroke-width="8" fill="rgb(0, 0, 0)" style="transform:matrix(0.017136,0,0,-0.017136,0,0);"></path></g></g></g><g style="transform:matrix(1,0,0,1,402.4625244140625,230.32375);"><path d="M788 13L772 -310L62 -310L420 133L66 620L754 620L768 346L732 346C718 428 694 486 662 522C626 559 572 578 498 578L246 578L524 194L214 -205L512 -205C592 -205 648 -190 680 -162C714 -132 734 -74 746 13Z" stroke="rgb(0, 0, 0)" stroke-width="8" fill="rgb(0, 0, 0)" style="transform:matrix(0.024480000000000002,0,0,-0.024480000000000002,0,0);"></path></g></g><g style="transform:matrix(1,0,0,1,437.6624755859375,233.98625610351561);"><path d="M108 471C108 386 146 339 230 319L325 296C379 283 406 248 406 191C406 96 335 30 232 30C178 30 140 42 96 73L96 172L66 172C60 117 53 72 42 20C91 -5 144 -18 197 -18C352 -18 485 99 485 234C485 313 442 355 341 377L276 391C210 405 180 442 180 508C180 595 247 658 339 658C388 658 421 645 451 613L451 537L481 537C485 591 492 629 506 672C461 696 421 706 374 706C250 706 108 614 108 471Z" stroke="rgb(0, 0, 0)" stroke-width="8" fill="rgb(0, 0, 0)" style="transform:matrix(0.024480000000000002,0,0,-0.024480000000000002,0,0);"></path></g><g><g><g><g style="transform:matrix(1,0,0,1,451.9749755859375,239.10475);"><path d="M34 388L41 368L73 389C110 412 113 414 120 414C130 414 138 404 138 391C138 384 134 361 130 347L64 107C56 76 51 49 51 30C51 6 62 -9 81 -9C107 -9 143 12 241 85L231 103L205 86C176 67 153 56 144 56C137 56 131 66 131 76C131 86 133 95 138 116L215 420C219 437 221 448 221 456C221 473 212 482 196 482C174 482 137 461 62 408ZM228 712C199 712 170 679 170 645C170 620 185 604 209 604C240 604 264 633 264 671C264 695 249 712 228 712Z" stroke="rgb(0, 0, 0)" stroke-width="8" fill="rgb(0, 0, 0)" style="transform:matrix(0.017136,0,0,-0.017136,0,0);"></path></g></g></g></g></g></g><g><g><g style="transform:matrix(1,0,0,1,423.5250244140625,278.6237683105469);"><path d="M24 388L31 368L63 389C100 412 103 414 110 414C121 414 128 404 128 389C128 338 87 145 46 2L53 -9C78 -2 101 4 123 8C142 134 163 199 209 268C263 352 338 414 383 414C394 414 400 405 400 390C400 372 397 351 389 319L337 107C328 70 324 47 324 31C324 6 335 -9 354 -9C380 -9 416 12 514 85L504 103L478 86C449 67 427 56 417 56C410 56 404 65 404 76C404 81 405 92 406 96L472 372C479 401 483 429 483 446C483 469 472 482 452 482C410 482 341 444 282 389C244 354 216 320 164 247L202 408C206 426 208 438 208 449C208 470 200 482 185 482C164 482 125 460 52 408Z" stroke="rgb(0, 0, 0)" stroke-width="8" fill="rgb(0, 0, 0)" style="transform:matrix(0.024480000000000002,0,0,-0.024480000000000002,0,0);"></path></g></g></g><line style="fill:none;stroke-width:1px;stroke:rgb(0, 0, 0);" x1="402.4625244140625" y1="254.01876831054688" x2="458.18752670288086" y2="254.01876831054688"></line></g></g></g></g></g></g><g><g><g><g><g><g style="transform:matrix(1,0,0,1,491.73748779296875,259.8112683105469);"><path d="M409 -15C458 -15 530 43 565 74L565 81C562 86 558 90 553 92C531 76 472 25 461 77C461 151 506 393 533 463L533 473C511 465 488 459 465 456L455 445C453 381 421 203 395 146C372 97 311 42 254 42C199 42 184 90 185 137C188 248 238 356 241 467C213 462 187 457 161 453C179 227 9 -91 53 -286C76 -285 109 -281 131 -273L131 -261C81 -173 121 -38 138 36L138 35C204 -77 344 37 395 104L395 101C387 65 354 -15 409 -15Z" stroke="rgb(0, 0, 0)" stroke-width="8" fill="rgb(0, 0, 0)" style="transform:matrix(0.024480000000000002,0,0,-0.024480000000000002,0,0);"></path></g><g><g><g><g style="transform:matrix(1,0,0,1,507.38751220703125,264.9297622070313);"><path d="M390 646L463 646C541 646 577 641 580 629C583 621 585 602 584 592L580 528L608 528L635 692L544 691C456 690 388 689 353 689C316 689 252 690 166 691L71 692L53 528L82 528L97 588C102 610 109 626 115 633C121 640 159 646 196 646L308 646L222 125C206 34 204 31 164 28L113 25L109 -3L166 -2C206 -1 235 0 251 0C270 0 301 -1 340 -2L384 -3L387 25L328 28C302 29 292 37 292 58C292 67 293 74 296 93Z" stroke="rgb(0, 0, 0)" stroke-width="8" fill="rgb(0, 0, 0)" style="transform:matrix(0.017136,0,0,-0.017136,0,0);"></path></g></g></g></g><g style="transform:matrix(1,0,0,1,526.6375122070312,259.8112683105469);"><path d="M604 347L604 406L65 406L65 347ZM604 134L604 193L65 193L65 134Z" stroke="rgb(0, 0, 0)" stroke-width="8" fill="rgb(0, 0, 0)" style="transform:matrix(0.024480000000000002,0,0,-0.024480000000000002,0,0);"></path></g><g><g><g><g><g><g><g style="transform:matrix(1,0,0,1,574.7875366210938,217.37974389648437);"><path d="M24 388L31 368L63 389C100 412 103 414 110 414C121 414 128 404 128 389C128 338 87 145 46 2L53 -9C78 -2 101 4 123 8C142 134 163 199 209 268C263 352 338 414 383 414C394 414 400 405 400 390C400 372 397 351 389 319L337 107C328 70 324 47 324 31C324 6 335 -9 354 -9C380 -9 416 12 514 85L504 103L478 86C449 67 427 56 417 56C410 56 404 65 404 76C404 81 405 92 406 96L472 372C479 401 483 429 483 446C483 469 472 482 452 482C410 482 341 444 282 389C244 354 216 320 164 247L202 408C206 426 208 438 208 449C208 470 200 482 185 482C164 482 125 460 52 408Z" stroke="rgb(0, 0, 0)" stroke-width="8" fill="rgb(0, 0, 0)" style="transform:matrix(0.017136,0,0,-0.017136,0,0);"></path></g></g></g><g><g><g style="transform:matrix(1,0,0,1,574.7875366210938,245.25474389648437);"><path d="M263 689C108 689 29 566 29 324C29 207 50 106 85 57C120 8 176 -20 238 -20C389 -20 465 110 465 366C465 585 400 689 263 689ZM245 654C342 654 381 556 381 316C381 103 343 15 251 15C154 15 113 116 113 360C113 571 150 654 245 654Z" stroke="rgb(0, 0, 0)" stroke-width="8" fill="rgb(0, 0, 0)" style="transform:matrix(0.017136,0,0,-0.017136,0,0);"></path></g></g></g><g style="transform:matrix(1,0,0,1,552.7625122070312,230.32375);"><path d="M788 13L772 -310L62 -310L420 133L66 620L754 620L768 346L732 346C718 428 694 486 662 522C626 559 572 578 498 578L246 578L524 194L214 -205L512 -205C592 -205 648 -190 680 -162C714 -132 734 -74 746 13Z" stroke="rgb(0, 0, 0)" stroke-width="8" fill="rgb(0, 0, 0)" style="transform:matrix(0.024480000000000002,0,0,-0.024480000000000002,0,0);"></path></g></g><g style="transform:matrix(1,0,0,1,587.9624633789062,233.98625610351561);"><path d="M390 646L463 646C541 646 577 641 580 629C583 621 585 602 584 592L580 528L608 528L635 692L544 691C456 690 388 689 353 689C316 689 252 690 166 691L71 692L53 528L82 528L97 588C102 610 109 626 115 633C121 640 159 646 196 646L308 646L222 125C206 34 204 31 164 28L113 25L109 -3L166 -2C206 -1 235 0 251 0C270 0 301 -1 340 -2L384 -3L387 25L328 28C302 29 292 37 292 58C292 67 293 74 296 93Z" stroke="rgb(0, 0, 0)" stroke-width="8" fill="rgb(0, 0, 0)" style="transform:matrix(0.024480000000000002,0,0,-0.024480000000000002,0,0);"></path></g><g><g><g><g style="transform:matrix(1,0,0,1,603.6124877929688,239.10475);"><path d="M34 388L41 368L73 389C110 412 113 414 120 414C130 414 138 404 138 391C138 384 134 361 130 347L64 107C56 76 51 49 51 30C51 6 62 -9 81 -9C107 -9 143 12 241 85L231 103L205 86C176 67 153 56 144 56C137 56 131 66 131 76C131 86 133 95 138 116L215 420C219 437 221 448 221 456C221 473 212 482 196 482C174 482 137 461 62 408ZM228 712C199 712 170 679 170 645C170 620 185 604 209 604C240 604 264 633 264 671C264 695 249 712 228 712Z" stroke="rgb(0, 0, 0)" stroke-width="8" fill="rgb(0, 0, 0)" style="transform:matrix(0.017136,0,0,-0.017136,0,0);"></path></g></g></g></g></g></g><g><g><g style="transform:matrix(1,0,0,1,574.5000610351562,278.6237683105469);"><path d="M24 388L31 368L63 389C100 412 103 414 110 414C121 414 128 404 128 389C128 338 87 145 46 2L53 -9C78 -2 101 4 123 8C142 134 163 199 209 268C263 352 338 414 383 414C394 414 400 405 400 390C400 372 397 351 389 319L337 107C328 70 324 47 324 31C324 6 335 -9 354 -9C380 -9 416 12 514 85L504 103L478 86C449 67 427 56 417 56C410 56 404 65 404 76C404 81 405 92 406 96L472 372C479 401 483 429 483 446C483 469 472 482 452 482C410 482 341 444 282 389C244 354 216 320 164 247L202 408C206 426 208 438 208 449C208 470 200 482 185 482C164 482 125 460 52 408Z" stroke="rgb(0, 0, 0)" stroke-width="8" fill="rgb(0, 0, 0)" style="transform:matrix(0.024480000000000002,0,0,-0.024480000000000002,0,0);"></path></g></g></g><line style="fill:none;stroke-width:1px;stroke:rgb(0, 0, 0);" x1="552.7625122070312" y1="254.01876831054688" x2="609.8250122070312" y2="254.01876831054688"></line></g></g></g></g></g></g><g><g><text x="309.07501220703125" y="17.199996948242188" style="white-space:pre;stroke:none;fill:rgb(0, 0, 0);font-size:25.95px;font-family:Arial, Helvetica, sans-serif;font-weight:400;font-style:normal;dominant-baseline:text-before-edge;text-decoration:none solid rgb(0, 0, 0);">Mean Slowdown and Latency</text></g></g><g><g><g><g><g></g></g></g></g><g><g><g><g><g style="transform:matrix(1,0,0,1,26.8187255859375,175.61751220703124);"><path d="M390 646L463 646C541 646 577 641 580 629C583 621 585 602 584 592L580 528L608 528L635 692L544 691C456 690 388 689 353 689C316 689 252 690 166 691L71 692L53 528L82 528L97 588C102 610 109 626 115 633C121 640 159 646 196 646L308 646L222 125C206 34 204 31 164 28L113 25L109 -3L166 -2C206 -1 235 0 251 0C270 0 301 -1 340 -2L384 -3L387 25L328 28C302 29 292 37 292 58C292 67 293 74 296 93Z" stroke="rgb(0, 0, 0)" stroke-width="8" fill="rgb(0, 0, 0)" style="transform:matrix(0.024480000000000002,0,0,-0.024480000000000002,0,0);"></path></g><g><g><g><g style="transform:matrix(1,0,0,1,42.46875,180.73600610351562);"><path d="M176 -11C232 -11 347 62 390 125C431 186 465 296 465 371C465 438 442 482 406 482C364 482 311 456 259 409C218 374 198 348 162 289L186 408C189 425 191 440 191 452C191 471 183 482 169 482C148 482 110 461 36 408L8 388L15 368L47 389C75 407 86 412 95 412C105 412 112 403 112 389C112 381 110 361 108 351L50 8C40 -52 21 -143 1 -233L-7 -270L0 -276C21 -269 41 -264 73 -259L115 3C136 -4 158 -11 176 -11ZM143 165C165 293 272 424 355 424C381 424 393 402 393 356C393 275 353 156 300 80C280 51 248 36 207 36C176 36 151 43 125 59ZM867 365C870 403 875 435 883 476C872 481 868 482 863 482C832 482 801 458 765 407C726 351 687 291 671 256L703 408C707 425 709 438 709 450C709 470 701 482 686 482C665 482 627 461 553 408L525 388L532 368L564 389C592 407 603 412 612 412C622 412 629 403 629 390C629 332 586 126 546 -2L556 -9C571 -4 587 -1 610 4L623 6L649 126C667 209 690 262 734 319C768 363 795 384 817 384C832 384 842 379 853 365ZM904 152C904 46 949 -11 1032 -11C1087 -11 1147 15 1192 57C1254 116 1298 230 1298 331C1298 425 1248 482 1165 482C1061 482 904 382 904 152ZM1128 444C1189 444 1222 399 1222 315C1222 219 1191 113 1147 60C1129 39 1103 27 1072 27C1014 27 980 72 980 151C980 264 1019 387 1068 427C1081 438 1104 444 1128 444ZM1672 330L1695 330C1703 395 1710 432 1719 458C1695 473 1660 482 1623 482C1578 483 1505 463 1448 400C1394 352 1355 241 1355 136C1355 40 1397 -11 1477 -11C1531 -11 1579 9 1634 54L1684 95L1676 115L1661 105C1589 57 1551 40 1516 40C1460 40 1431 80 1431 159C1431 267 1466 371 1515 409C1536 425 1560 433 1591 433C1636 433 1672 414 1672 390ZM2064 111L2040 94C1987 56 1939 36 1903 36C1856 36 1827 73 1827 133C1827 158 1830 185 1835 214C1852 218 1961 248 1986 259C2071 296 2110 342 2110 404C2110 451 2076 482 2026 482C1958 496 1848 423 1811 349C1781 299 1751 180 1751 113C1751 35 1795 -11 1867 -11C1924 -11 1980 17 2072 92ZM1849 274C1866 343 1886 386 1915 412C1933 428 1964 440 1988 440C2017 440 2036 420 2036 388C2036 344 2001 297 1949 272C1921 258 1885 247 1840 237ZM2155 148C2150 97 2144 62 2133 16C2171 -2 2205 -11 2240 -11C2289 -11 2335 7 2386 47C2437 87 2458 124 2458 174C2458 228 2426 257 2352 271L2309 279C2249 290 2230 307 2230 348C2230 401 2275 442 2332 442C2373 442 2411 424 2427 397L2427 342L2450 342C2454 377 2458 404 2469 455C2430 474 2402 482 2369 482C2317 482 2256 452 2208 404C2182 377 2171 352 2171 316C2171 260 2202 228 2268 215L2331 203C2375 195 2391 177 2391 138C2391 73 2345 29 2274 29C2239 29 2208 40 2180 64L2180 148ZM2543 148C2538 97 2532 62 2521 16C2559 -2 2593 -11 2628 -11C2677 -11 2723 7 2774 47C2825 87 2846 124 2846 174C2846 228 2814 257 2740 271L2697 279C2637 290 2618 307 2618 348C2618 401 2663 442 2720 442C2761 442 2799 424 2815 397L2815 342L2838 342C2842 377 2846 404 2857 455C2818 474 2790 482 2757 482C2705 482 2644 452 2596 404C2570 377 2559 352 2559 316C2559 260 2590 228 2656 215L2719 203C2763 195 2779 177 2779 138C2779 73 2733 29 2662 29C2627 29 2596 40 2568 64L2568 148ZM2934 388L2941 368L2973 389C3010 412 3013 414 3020 414C3030 414 3038 404 3038 391C3038 384 3034 361 3030 347L2964 107C2956 76 2951 49 2951 30C2951 6 2962 -9 2981 -9C3007 -9 3043 12 3141 85L3131 103L3105 86C3076 67 3053 56 3044 56C3037 56 3031 66 3031 76C3031 86 3033 95 3038 116L3115 420C3119 437 3121 448 3121 456C3121 473 3112 482 3096 482C3074 482 3037 461 2962 408ZM3128 712C3099 712 3070 679 3070 645C3070 620 3085 604 3109 604C3140 604 3164 633 3164 671C3164 695 3149 712 3128 712ZM3201 388L3208 368L3240 389C3277 412 3280 414 3287 414C3298 414 3305 404 3305 389C3305 338 3264 145 3223 2L3230 -9C3255 -2 3278 4 3300 8C3319 134 3340 199 3386 268C3440 352 3515 414 3560 414C3571 414 3577 405 3577 390C3577 372 3574 351 3566 319L3514 107C3505 70 3501 47 3501 31C3501 6 3512 -9 3531 -9C3557 -9 3593 12 3691 85L3681 103L3655 86C3626 67 3604 56 3594 56C3587 56 3581 65 3581 76C3581 81 3582 92 3583 96L3649 372C3656 401 3660 429 3660 446C3660 469 3649 482 3629 482C3587 482 3518 444 3459 389C3421 354 3393 320 3341 247L3379 408C3383 426 3385 438 3385 449C3385 470 3377 482 3362 482C3341 482 3302 460 3229 408ZM4007 482C3940 482 3787 419 3787 259C3787 182 3832 136 3909 136C3917 136 3928 136 3939 137L3898 99C3882 84 3871 66 3871 52C3871 42 3878 31 3892 19C3823 -4 3695 -48 3695 -159C3695 -230 3765 -276 3874 -276C4003 -276 4116 -204 4116 -121C4116 -85 4095 -49 4052 -14L3992 35C3958 62 3945 81 3945 100C3945 114 3960 128 3972 146C4070 170 4141 253 4141 342C4141 357 4138 376 4137 380C4154 378 4162 378 4171 378C4188 378 4198 379 4221 382L4230 427L4227 433C4199 426 4179 424 4125 424C4125 425 4101 482 4007 482ZM3908 1L3985 -58C4031 -94 4050 -121 4050 -154C4050 -206 3981 -248 3898 -248C3816 -248 3759 -206 3759 -145C3759 -43 3869 -11 3908 1ZM3982 448C4040 448 4069 412 4069 341C4069 238 4021 168 3951 168C3890 168 3858 209 3858 288C3858 383 3909 448 3982 448Z" stroke="rgb(0, 0, 0)" stroke-width="8" fill="rgb(0, 0, 0)" style="transform:matrix(0.017136,0,0,-0.017136,0,0);"></path></g></g></g></g><g style="transform:matrix(1,0,0,1,123.73126220703125,175.61751220703124);"><path d="M604 347L604 406L65 406L65 347ZM604 134L604 193L65 193L65 134Z" stroke="rgb(0, 0, 0)" stroke-width="8" fill="rgb(0, 0, 0)" style="transform:matrix(0.024480000000000002,0,0,-0.024480000000000002,0,0);"></path></g><g style="transform:matrix(1,0,0,1,147.41876220703125,175.61751220703124);"><path d="M390 646L463 646C541 646 577 641 580 629C583 621 585 602 584 592L580 528L608 528L635 692L544 691C456 690 388 689 353 689C316 689 252 690 166 691L71 692L53 528L82 528L97 588C102 610 109 626 115 633C121 640 159 646 196 646L308 646L222 125C206 34 204 31 164 28L113 25L109 -3L166 -2C206 -1 235 0 251 0C270 0 301 -1 340 -2L384 -3L387 25L328 28C302 29 292 37 292 58C292 67 293 74 296 93Z" stroke="rgb(0, 0, 0)" stroke-width="8" fill="rgb(0, 0, 0)" style="transform:matrix(0.024480000000000002,0,0,-0.024480000000000002,0,0);"></path></g><g><g><g><g style="transform:matrix(1,0,0,1,163.0687255859375,180.73600610351562);"><path d="M345 437L329 437L350 549C366 635 394 673 440 673C470 673 497 658 512 634L522 638C527 654 537 685 545 705L550 720C534 727 503 733 480 733C469 733 453 730 445 726C421 715 339 654 316 630C294 608 282 578 271 521L256 442C215 422 195 414 170 405L165 383L246 383L237 327C207 132 170 -54 148 -123C130 -182 100 -213 64 -213C41 -213 30 -206 12 -184L-2 -188C-6 -211 -20 -259 -25 -268C-16 -273 -1 -276 10 -276C51 -276 105 -245 144 -198C215 -114 235 -18 319 383L423 383C427 402 434 425 440 439L436 446C407 439 408 437 345 437Z" stroke="rgb(0, 0, 0)" stroke-width="8" fill="rgb(0, 0, 0)" style="transform:matrix(0.017136,0,0,-0.017136,0,0);"></path></g></g></g></g><g style="transform:matrix(1,0,0,1,173.95623779296875,175.61751220703124);"><path d="" stroke="rgb(0, 0, 0)" stroke-width="8" fill="rgb(0, 0, 0)" style="transform:matrix(0.024480000000000002,0,0,-0.024480000000000002,0,0);"></path></g><g style="transform:matrix(1,0,0,1,184.9437255859375,175.61751220703124);"><path d="M555 243L555 299L51 299L51 243Z" stroke="rgb(0, 0, 0)" stroke-width="8" fill="rgb(0, 0, 0)" style="transform:matrix(0.024480000000000002,0,0,-0.024480000000000002,0,0);"></path></g><g style="transform:matrix(1,0,0,1,204.6312255859375,175.61751220703124);"><path d="M639 646L712 646C790 646 826 641 829 629C832 621 834 602 833 592L829 528L857 528L884 692L793 691C705 690 637 689 602 689C565 689 501 690 415 691L320 692L302 528L331 528L346 588C351 610 358 626 364 633C370 640 408 646 445 646L557 646L471 125C455 34 453 31 413 28L362 25L358 -3L415 -2C455 -1 484 0 500 0C519 0 550 -1 589 -2L633 -3L636 25L577 28C551 29 541 37 541 58C541 67 542 74 545 93Z" stroke="rgb(0, 0, 0)" stroke-width="8" fill="rgb(0, 0, 0)" style="transform:matrix(0.024480000000000002,0,0,-0.024480000000000002,0,0);"></path></g><g><g><g><g style="transform:matrix(1,0,0,1,226.3812255859375,180.73600610351562);"><path d="M385 458C342 475 313 482 284 482C209 482 121 394 103 374C63 327 24 181 24 78C24 19 36 -11 60 -11C82 -11 101 -3 133 19C180 51 259 121 308 209L232 -205C227 -229 217 -249 205 -262L214 -276C245 -268 276 -262 300 -259C304 -205 310 -150 319 -100L405 356C416 417 422 443 432 474L418 480ZM118 59C104 59 96 80 96 113C96 209 139 359 181 409C193 424 222 433 254 433C282 433 303 427 351 406L330 311C301 174 160 59 118 59ZM807 437L791 437L812 549C828 635 856 673 902 673C932 673 959 658 974 634L984 638C989 654 999 685 1007 705L1012 720C996 727 965 733 942 733C931 733 915 730 907 726C883 715 801 654 778 630C756 608 744 578 733 521L718 442C677 422 657 414 632 405L627 383L708 383L699 327C669 132 632 -54 610 -123C592 -182 562 -213 526 -213C503 -213 492 -206 474 -184L460 -188C456 -211 442 -259 437 -268C446 -273 461 -276 472 -276C513 -276 567 -245 606 -198C677 -114 697 -18 781 383L885 383C889 402 896 425 902 439L898 446C869 439 870 437 807 437Z" stroke="rgb(0, 0, 0)" stroke-width="8" fill="rgb(0, 0, 0)" style="transform:matrix(0.017136,0,0,-0.017136,0,0);"></path></g></g></g></g></g><g></g><g><g style="transform:matrix(1,0,0,1,26.8187255859375,236.08000610351561);"><path d="M390 646L463 646C541 646 577 641 580 629C583 621 585 602 584 592L580 528L608 528L635 692L544 691C456 690 388 689 353 689C316 689 252 690 166 691L71 692L53 528L82 528L97 588C102 610 109 626 115 633C121 640 159 646 196 646L308 646L222 125C206 34 204 31 164 28L113 25L109 -3L166 -2C206 -1 235 0 251 0C270 0 301 -1 340 -2L384 -3L387 25L328 28C302 29 292 37 292 58C292 67 293 74 296 93Z" stroke="rgb(0, 0, 0)" stroke-width="8" fill="rgb(0, 0, 0)" style="transform:matrix(0.024480000000000002,0,0,-0.024480000000000002,0,0);"></path></g><g><g><g><g style="transform:matrix(1,0,0,1,42.46875,241.1985);"><path d="M385 458C342 475 313 482 284 482C209 482 121 394 103 374C63 327 24 181 24 78C24 19 36 -11 60 -11C82 -11 101 -3 133 19C180 51 259 121 308 209L232 -205C227 -229 217 -249 205 -262L214 -276C245 -268 276 -262 300 -259C304 -205 310 -150 319 -100L405 356C416 417 422 443 432 474L418 480ZM118 59C104 59 96 80 96 113C96 209 139 359 181 409C193 424 222 433 254 433C282 433 303 427 351 406L330 311C301 174 160 59 118 59ZM954 473L947 482L879 465L869 414C854 336 829 268 798 221C739 130 661 59 621 59C613 59 608 68 608 85C608 99 610 112 615 137L672 408C675 424 677 438 677 451C677 470 668 482 654 482C634 482 596 461 522 408L494 388L501 368L533 389C561 407 572 412 581 412C590 412 598 403 598 392C598 388 597 378 596 374L533 77C531 68 529 44 529 30C529 7 544 -11 564 -11C627 -11 748 101 832 239L795 97C788 73 784 46 784 31C784 6 795 -9 814 -9C840 -9 876 12 974 85L964 103L938 86C914 70 888 59 877 59C869 59 864 66 864 76C864 112 939 416 954 473ZM1345 111L1321 94C1268 56 1220 36 1184 36C1137 36 1108 73 1108 133C1108 158 1111 185 1116 214C1133 218 1242 248 1267 259C1352 296 1391 342 1391 404C1391 451 1357 482 1307 482C1239 496 1129 423 1092 349C1062 299 1032 180 1032 113C1032 35 1076 -11 1148 -11C1205 -11 1261 17 1353 92ZM1130 274C1147 343 1167 386 1196 412C1214 428 1245 440 1269 440C1298 440 1317 420 1317 388C1317 344 1282 297 1230 272C1202 258 1166 247 1121 237ZM1897 473L1890 482L1822 465L1812 414C1797 336 1772 268 1741 221C1682 130 1604 59 1564 59C1556 59 1551 68 1551 85C1551 99 1553 112 1558 137L1615 408C1618 424 1620 438 1620 451C1620 470 1611 482 1597 482C1577 482 1539 461 1465 408L1437 388L1444 368L1476 389C1504 407 1515 412 1524 412C1533 412 1541 403 1541 392C1541 388 1540 378 1539 374L1476 77C1474 68 1472 44 1472 30C1472 7 1487 -11 1507 -11C1570 -11 1691 101 1775 239L1738 97C1731 73 1727 46 1727 31C1727 6 1738 -9 1757 -9C1783 -9 1819 12 1917 85L1907 103L1881 86C1857 70 1831 59 1820 59C1812 59 1807 66 1807 76C1807 112 1882 416 1897 473ZM2288 111L2264 94C2211 56 2163 36 2127 36C2080 36 2051 73 2051 133C2051 158 2054 185 2059 214C2076 218 2185 248 2210 259C2295 296 2334 342 2334 404C2334 451 2300 482 2250 482C2182 496 2072 423 2035 349C2005 299 1975 180 1975 113C1975 35 2019 -11 2091 -11C2148 -11 2204 17 2296 92ZM2073 274C2090 343 2110 386 2139 412C2157 428 2188 440 2212 440C2241 440 2260 420 2260 388C2260 344 2225 297 2173 272C2145 258 2109 247 2064 237ZM2831 722L2819 733C2767 707 2731 698 2659 691L2655 670L2703 670C2727 670 2737 663 2737 646C2737 638 2736 629 2735 622L2707 468C2677 477 2650 482 2625 482C2556 482 2462 410 2416 323C2385 265 2365 170 2365 86C2365 21 2380 -11 2409 -11C2436 -11 2473 6 2507 33C2561 77 2594 116 2661 217L2638 126C2627 82 2622 50 2622 24C2622 3 2631 -9 2648 -9C2665 -9 2689 3 2723 28L2804 88L2794 107L2750 76C2736 66 2720 59 2711 59C2703 59 2697 68 2697 82C2697 90 2698 99 2705 128ZM2462 59C2446 59 2437 73 2437 98C2437 224 2483 380 2532 418C2545 428 2564 433 2591 433C2635 433 2664 427 2697 410L2685 351C2648 171 2507 59 2462 59Z" stroke="rgb(0, 0, 0)" stroke-width="8" fill="rgb(0, 0, 0)" style="transform:matrix(0.017136,0,0,-0.017136,0,0);"></path></g></g></g></g><g style="transform:matrix(1,0,0,1,92.6937255859375,236.08000610351561);"><path d="" stroke="rgb(0, 0, 0)" stroke-width="8" fill="rgb(0, 0, 0)" style="transform:matrix(0.024480000000000002,0,0,-0.024480000000000002,0,0);"></path></g><g style="transform:matrix(1,0,0,1,124.40625,236.08000610351561);"><path d="M604 347L604 406L65 406L65 347ZM604 134L604 193L65 193L65 134Z" stroke="rgb(0, 0, 0)" stroke-width="8" fill="rgb(0, 0, 0)" style="transform:matrix(0.024480000000000002,0,0,-0.024480000000000002,0,0);"></path></g><g style="transform:matrix(1,0,0,1,148.09375,236.08000610351561);"><path d="M390 646L463 646C541 646 577 641 580 629C583 621 585 602 584 592L580 528L608 528L635 692L544 691C456 690 388 689 353 689C316 689 252 690 166 691L71 692L53 528L82 528L97 588C102 610 109 626 115 633C121 640 159 646 196 646L308 646L222 125C206 34 204 31 164 28L113 25L109 -3L166 -2C206 -1 235 0 251 0C270 0 301 -1 340 -2L384 -3L387 25L328 28C302 29 292 37 292 58C292 67 293 74 296 93Z" stroke="rgb(0, 0, 0)" stroke-width="8" fill="rgb(0, 0, 0)" style="transform:matrix(0.024480000000000002,0,0,-0.024480000000000002,0,0);"></path></g><g><g><g><g style="transform:matrix(1,0,0,1,163.7437744140625,241.1985);"><path d="M385 458C342 475 313 482 284 482C209 482 121 394 103 374C63 327 24 181 24 78C24 19 36 -11 60 -11C82 -11 101 -3 133 19C180 51 259 121 308 209L232 -205C227 -229 217 -249 205 -262L214 -276C245 -268 276 -262 300 -259C304 -205 310 -150 319 -100L405 356C416 417 422 443 432 474L418 480ZM118 59C104 59 96 80 96 113C96 209 139 359 181 409C193 424 222 433 254 433C282 433 303 427 351 406L330 311C301 174 160 59 118 59ZM807 437L791 437L812 549C828 635 856 673 902 673C932 673 959 658 974 634L984 638C989 654 999 685 1007 705L1012 720C996 727 965 733 942 733C931 733 915 730 907 726C883 715 801 654 778 630C756 608 744 578 733 521L718 442C677 422 657 414 632 405L627 383L708 383L699 327C669 132 632 -54 610 -123C592 -182 562 -213 526 -213C503 -213 492 -206 474 -184L460 -188C456 -211 442 -259 437 -268C446 -273 461 -276 472 -276C513 -276 567 -245 606 -198C677 -114 697 -18 781 383L885 383C889 402 896 425 902 439L898 446C869 439 870 437 807 437Z" stroke="rgb(0, 0, 0)" stroke-width="8" fill="rgb(0, 0, 0)" style="transform:matrix(0.017136,0,0,-0.017136,0,0);"></path></g></g></g></g><g style="transform:matrix(1,0,0,1,182.54376220703125,236.08000610351561);"><path d="" stroke="rgb(0, 0, 0)" stroke-width="8" fill="rgb(0, 0, 0)" style="transform:matrix(0.024480000000000002,0,0,-0.024480000000000002,0,0);"></path></g><g style="transform:matrix(1,0,0,1,193.53125,236.08000610351561);"><path d="M555 243L555 299L51 299L51 243Z" stroke="rgb(0, 0, 0)" stroke-width="8" fill="rgb(0, 0, 0)" style="transform:matrix(0.024480000000000002,0,0,-0.024480000000000002,0,0);"></path></g><g style="transform:matrix(1,0,0,1,213.21875,236.08000610351561);"><path d="M639 646L712 646C790 646 826 641 829 629C832 621 834 602 833 592L829 528L857 528L884 692L793 691C705 690 637 689 602 689C565 689 501 690 415 691L320 692L302 528L331 528L346 588C351 610 358 626 364 633C370 640 408 646 445 646L557 646L471 125C455 34 453 31 413 28L362 25L358 -3L415 -2C455 -1 484 0 500 0C519 0 550 -1 589 -2L633 -3L636 25L577 28C551 29 541 37 541 58C541 67 542 74 545 93Z" stroke="rgb(0, 0, 0)" stroke-width="8" fill="rgb(0, 0, 0)" style="transform:matrix(0.024480000000000002,0,0,-0.024480000000000002,0,0);"></path></g><g><g><g><g style="transform:matrix(1,0,0,1,234.96875,241.1985);"><path d="M385 458C342 475 313 482 284 482C209 482 121 394 103 374C63 327 24 181 24 78C24 19 36 -11 60 -11C82 -11 101 -3 133 19C180 51 259 121 308 209L232 -205C227 -229 217 -249 205 -262L214 -276C245 -268 276 -262 300 -259C304 -205 310 -150 319 -100L405 356C416 417 422 443 432 474L418 480ZM118 59C104 59 96 80 96 113C96 209 139 359 181 409C193 424 222 433 254 433C282 433 303 427 351 406L330 311C301 174 160 59 118 59Z" stroke="rgb(0, 0, 0)" stroke-width="8" fill="rgb(0, 0, 0)" style="transform:matrix(0.017136,0,0,-0.017136,0,0);"></path></g></g></g></g></g></g></g></g></g><g><g><g><g><g><g style="transform:matrix(1,0,0,1,342.26251220703125,163.81126831054686);"><path d="M390 646L463 646C541 646 577 641 580 629C583 621 585 602 584 592L580 528L608 528L635 692L544 691C456 690 388 689 353 689C316 689 252 690 166 691L71 692L53 528L82 528L97 588C102 610 109 626 115 633C121 640 159 646 196 646L308 646L222 125C206 34 204 31 164 28L113 25L109 -3L166 -2C206 -1 235 0 251 0C270 0 301 -1 340 -2L384 -3L387 25L328 28C302 29 292 37 292 58C292 67 293 74 296 93Z" stroke="rgb(0, 0, 0)" stroke-width="8" fill="rgb(0, 0, 0)" style="transform:matrix(0.024480000000000002,0,0,-0.024480000000000002,0,0);"></path></g><g style="transform:matrix(1,0,0,1,364.5250244140625,163.81126831054686);"><path d="M604 347L604 406L65 406L65 347ZM604 134L604 193L65 193L65 134Z" stroke="rgb(0, 0, 0)" stroke-width="8" fill="rgb(0, 0, 0)" style="transform:matrix(0.024480000000000002,0,0,-0.024480000000000002,0,0);"></path></g><g style="transform:matrix(1,0,0,1,388.2125244140625,163.81126831054686);"><path d="M390 646L463 646C541 646 577 641 580 629C583 621 585 602 584 592L580 528L608 528L635 692L544 691C456 690 388 689 353 689C316 689 252 690 166 691L71 692L53 528L82 528L97 588C102 610 109 626 115 633C121 640 159 646 196 646L308 646L222 125C206 34 204 31 164 28L113 25L109 -3L166 -2C206 -1 235 0 251 0C270 0 301 -1 340 -2L384 -3L387 25L328 28C302 29 292 37 292 58C292 67 293 74 296 93Z" stroke="rgb(0, 0, 0)" stroke-width="8" fill="rgb(0, 0, 0)" style="transform:matrix(0.024480000000000002,0,0,-0.024480000000000002,0,0);"></path></g><g><g><g><g style="transform:matrix(1,0,0,1,403.86248779296875,168.92976220703125);"><path d="M176 -11C232 -11 347 62 390 125C431 186 465 296 465 371C465 438 442 482 406 482C364 482 311 456 259 409C218 374 198 348 162 289L186 408C189 425 191 440 191 452C191 471 183 482 169 482C148 482 110 461 36 408L8 388L15 368L47 389C75 407 86 412 95 412C105 412 112 403 112 389C112 381 110 361 108 351L50 8C40 -52 21 -143 1 -233L-7 -270L0 -276C21 -269 41 -264 73 -259L115 3C136 -4 158 -11 176 -11ZM143 165C165 293 272 424 355 424C381 424 393 402 393 356C393 275 353 156 300 80C280 51 248 36 207 36C176 36 151 43 125 59ZM867 365C870 403 875 435 883 476C872 481 868 482 863 482C832 482 801 458 765 407C726 351 687 291 671 256L703 408C707 425 709 438 709 450C709 470 701 482 686 482C665 482 627 461 553 408L525 388L532 368L564 389C592 407 603 412 612 412C622 412 629 403 629 390C629 332 586 126 546 -2L556 -9C571 -4 587 -1 610 4L623 6L649 126C667 209 690 262 734 319C768 363 795 384 817 384C832 384 842 379 853 365ZM904 152C904 46 949 -11 1032 -11C1087 -11 1147 15 1192 57C1254 116 1298 230 1298 331C1298 425 1248 482 1165 482C1061 482 904 382 904 152ZM1128 444C1189 444 1222 399 1222 315C1222 219 1191 113 1147 60C1129 39 1103 27 1072 27C1014 27 980 72 980 151C980 264 1019 387 1068 427C1081 438 1104 444 1128 444ZM1672 330L1695 330C1703 395 1710 432 1719 458C1695 473 1660 482 1623 482C1578 483 1505 463 1448 400C1394 352 1355 241 1355 136C1355 40 1397 -11 1477 -11C1531 -11 1579 9 1634 54L1684 95L1676 115L1661 105C1589 57 1551 40 1516 40C1460 40 1431 80 1431 159C1431 267 1466 371 1515 409C1536 425 1560 433 1591 433C1636 433 1672 414 1672 390ZM2064 111L2040 94C1987 56 1939 36 1903 36C1856 36 1827 73 1827 133C1827 158 1830 185 1835 214C1852 218 1961 248 1986 259C2071 296 2110 342 2110 404C2110 451 2076 482 2026 482C1958 496 1848 423 1811 349C1781 299 1751 180 1751 113C1751 35 1795 -11 1867 -11C1924 -11 1980 17 2072 92ZM1849 274C1866 343 1886 386 1915 412C1933 428 1964 440 1988 440C2017 440 2036 420 2036 388C2036 344 2001 297 1949 272C1921 258 1885 247 1840 237ZM2155 148C2150 97 2144 62 2133 16C2171 -2 2205 -11 2240 -11C2289 -11 2335 7 2386 47C2437 87 2458 124 2458 174C2458 228 2426 257 2352 271L2309 279C2249 290 2230 307 2230 348C2230 401 2275 442 2332 442C2373 442 2411 424 2427 397L2427 342L2450 342C2454 377 2458 404 2469 455C2430 474 2402 482 2369 482C2317 482 2256 452 2208 404C2182 377 2171 352 2171 316C2171 260 2202 228 2268 215L2331 203C2375 195 2391 177 2391 138C2391 73 2345 29 2274 29C2239 29 2208 40 2180 64L2180 148ZM2543 148C2538 97 2532 62 2521 16C2559 -2 2593 -11 2628 -11C2677 -11 2723 7 2774 47C2825 87 2846 124 2846 174C2846 228 2814 257 2740 271L2697 279C2637 290 2618 307 2618 348C2618 401 2663 442 2720 442C2761 442 2799 424 2815 397L2815 342L2838 342C2842 377 2846 404 2857 455C2818 474 2790 482 2757 482C2705 482 2644 452 2596 404C2570 377 2559 352 2559 316C2559 260 2590 228 2656 215L2719 203C2763 195 2779 177 2779 138C2779 73 2733 29 2662 29C2627 29 2596 40 2568 64L2568 148ZM2934 388L2941 368L2973 389C3010 412 3013 414 3020 414C3030 414 3038 404 3038 391C3038 384 3034 361 3030 347L2964 107C2956 76 2951 49 2951 30C2951 6 2962 -9 2981 -9C3007 -9 3043 12 3141 85L3131 103L3105 86C3076 67 3053 56 3044 56C3037 56 3031 66 3031 76C3031 86 3033 95 3038 116L3115 420C3119 437 3121 448 3121 456C3121 473 3112 482 3096 482C3074 482 3037 461 2962 408ZM3128 712C3099 712 3070 679 3070 645C3070 620 3085 604 3109 604C3140 604 3164 633 3164 671C3164 695 3149 712 3128 712ZM3201 388L3208 368L3240 389C3277 412 3280 414 3287 414C3298 414 3305 404 3305 389C3305 338 3264 145 3223 2L3230 -9C3255 -2 3278 4 3300 8C3319 134 3340 199 3386 268C3440 352 3515 414 3560 414C3571 414 3577 405 3577 390C3577 372 3574 351 3566 319L3514 107C3505 70 3501 47 3501 31C3501 6 3512 -9 3531 -9C3557 -9 3593 12 3691 85L3681 103L3655 86C3626 67 3604 56 3594 56C3587 56 3581 65 3581 76C3581 81 3582 92 3583 96L3649 372C3656 401 3660 429 3660 446C3660 469 3649 482 3629 482C3587 482 3518 444 3459 389C3421 354 3393 320 3341 247L3379 408C3383 426 3385 438 3385 449C3385 470 3377 482 3362 482C3341 482 3302 460 3229 408ZM4007 482C3940 482 3787 419 3787 259C3787 182 3832 136 3909 136C3917 136 3928 136 3939 137L3898 99C3882 84 3871 66 3871 52C3871 42 3878 31 3892 19C3823 -4 3695 -48 3695 -159C3695 -230 3765 -276 3874 -276C4003 -276 4116 -204 4116 -121C4116 -85 4095 -49 4052 -14L3992 35C3958 62 3945 81 3945 100C3945 114 3960 128 3972 146C4070 170 4141 253 4141 342C4141 357 4138 376 4137 380C4154 378 4162 378 4171 378C4188 378 4198 379 4221 382L4230 427L4227 433C4199 426 4179 424 4125 424C4125 425 4101 482 4007 482ZM3908 1L3985 -58C4031 -94 4050 -121 4050 -154C4050 -206 3981 -248 3898 -248C3816 -248 3759 -206 3759 -145C3759 -43 3869 -11 3908 1ZM3982 448C4040 448 4069 412 4069 341C4069 238 4021 168 3951 168C3890 168 3858 209 3858 288C3858 383 3909 448 3982 448Z" stroke="rgb(0, 0, 0)" stroke-width="8" fill="rgb(0, 0, 0)" style="transform:matrix(0.017136,0,0,-0.017136,0,0);"></path></g></g></g></g><g style="transform:matrix(1,0,0,1,477.78753662109375,163.81126831054686);"><path d="" stroke="rgb(0, 0, 0)" stroke-width="8" fill="rgb(0, 0, 0)" style="transform:matrix(0.024480000000000002,0,0,-0.024480000000000002,0,0);"></path></g><g style="transform:matrix(1,0,0,1,488.77496337890625,163.81126831054686);"><path d="M604 241L604 300L364 300L364 538L305 538L305 300L65 300L65 241L305 241L305 0L364 0L364 241Z" stroke="rgb(0, 0, 0)" stroke-width="8" fill="rgb(0, 0, 0)" style="transform:matrix(0.024480000000000002,0,0,-0.024480000000000002,0,0);"></path></g><g style="transform:matrix(1,0,0,1,510.01251220703125,163.81126831054686);"><path d="M639 646L712 646C790 646 826 641 829 629C832 621 834 602 833 592L829 528L857 528L884 692L793 691C705 690 637 689 602 689C565 689 501 690 415 691L320 692L302 528L331 528L346 588C351 610 358 626 364 633C370 640 408 646 445 646L557 646L471 125C455 34 453 31 413 28L362 25L358 -3L415 -2C455 -1 484 0 500 0C519 0 550 -1 589 -2L633 -3L636 25L577 28C551 29 541 37 541 58C541 67 542 74 545 93Z" stroke="rgb(0, 0, 0)" stroke-width="8" fill="rgb(0, 0, 0)" style="transform:matrix(0.024480000000000002,0,0,-0.024480000000000002,0,0);"></path></g><g><g><g><g style="transform:matrix(1,0,0,1,531.7625122070312,168.92976220703125);"><path d="M385 458C342 475 313 482 284 482C209 482 121 394 103 374C63 327 24 181 24 78C24 19 36 -11 60 -11C82 -11 101 -3 133 19C180 51 259 121 308 209L232 -205C227 -229 217 -249 205 -262L214 -276C245 -268 276 -262 300 -259C304 -205 310 -150 319 -100L405 356C416 417 422 443 432 474L418 480ZM118 59C104 59 96 80 96 113C96 209 139 359 181 409C193 424 222 433 254 433C282 433 303 427 351 406L330 311C301 174 160 59 118 59ZM954 473L947 482L879 465L869 414C854 336 829 268 798 221C739 130 661 59 621 59C613 59 608 68 608 85C608 99 610 112 615 137L672 408C675 424 677 438 677 451C677 470 668 482 654 482C634 482 596 461 522 408L494 388L501 368L533 389C561 407 572 412 581 412C590 412 598 403 598 392C598 388 597 378 596 374L533 77C531 68 529 44 529 30C529 7 544 -11 564 -11C627 -11 748 101 832 239L795 97C788 73 784 46 784 31C784 6 795 -9 814 -9C840 -9 876 12 974 85L964 103L938 86C914 70 888 59 877 59C869 59 864 66 864 76C864 112 939 416 954 473ZM1345 111L1321 94C1268 56 1220 36 1184 36C1137 36 1108 73 1108 133C1108 158 1111 185 1116 214C1133 218 1242 248 1267 259C1352 296 1391 342 1391 404C1391 451 1357 482 1307 482C1239 496 1129 423 1092 349C1062 299 1032 180 1032 113C1032 35 1076 -11 1148 -11C1205 -11 1261 17 1353 92ZM1130 274C1147 343 1167 386 1196 412C1214 428 1245 440 1269 440C1298 440 1317 420 1317 388C1317 344 1282 297 1230 272C1202 258 1166 247 1121 237ZM1897 473L1890 482L1822 465L1812 414C1797 336 1772 268 1741 221C1682 130 1604 59 1564 59C1556 59 1551 68 1551 85C1551 99 1553 112 1558 137L1615 408C1618 424 1620 438 1620 451C1620 470 1611 482 1597 482C1577 482 1539 461 1465 408L1437 388L1444 368L1476 389C1504 407 1515 412 1524 412C1533 412 1541 403 1541 392C1541 388 1540 378 1539 374L1476 77C1474 68 1472 44 1472 30C1472 7 1487 -11 1507 -11C1570 -11 1691 101 1775 239L1738 97C1731 73 1727 46 1727 31C1727 6 1738 -9 1757 -9C1783 -9 1819 12 1917 85L1907 103L1881 86C1857 70 1831 59 1820 59C1812 59 1807 66 1807 76C1807 112 1882 416 1897 473ZM2288 111L2264 94C2211 56 2163 36 2127 36C2080 36 2051 73 2051 133C2051 158 2054 185 2059 214C2076 218 2185 248 2210 259C2295 296 2334 342 2334 404C2334 451 2300 482 2250 482C2182 496 2072 423 2035 349C2005 299 1975 180 1975 113C1975 35 2019 -11 2091 -11C2148 -11 2204 17 2296 92ZM2073 274C2090 343 2110 386 2139 412C2157 428 2188 440 2212 440C2241 440 2260 420 2260 388C2260 344 2225 297 2173 272C2145 258 2109 247 2064 237ZM2831 722L2819 733C2767 707 2731 698 2659 691L2655 670L2703 670C2727 670 2737 663 2737 646C2737 638 2736 629 2735 622L2707 468C2677 477 2650 482 2625 482C2556 482 2462 410 2416 323C2385 265 2365 170 2365 86C2365 21 2380 -11 2409 -11C2436 -11 2473 6 2507 33C2561 77 2594 116 2661 217L2638 126C2627 82 2622 50 2622 24C2622 3 2631 -9 2648 -9C2665 -9 2689 3 2723 28L2804 88L2794 107L2750 76C2736 66 2720 59 2711 59C2703 59 2697 68 2697 82C2697 90 2698 99 2705 128ZM2462 59C2446 59 2437 73 2437 98C2437 224 2483 380 2532 418C2545 428 2564 433 2591 433C2635 433 2664 427 2697 410L2685 351C2648 171 2507 59 2462 59Z" stroke="rgb(0, 0, 0)" stroke-width="8" fill="rgb(0, 0, 0)" style="transform:matrix(0.017136,0,0,-0.017136,0,0);"></path></g></g></g></g><g><g><g></g></g></g></g></g></g></g></g><g><g><text x="32.11248779296875" y="17.199996948242188" style="white-space:pre;stroke:none;fill:rgb(0, 0, 0);font-size:25.95px;font-family:Arial, Helvetica, sans-serif;font-weight:400;font-style:normal;dominant-baseline:text-before-edge;text-decoration:none solid rgb(0, 0, 0);">Single Task Timing</text></g></g></svg>
</svg>
