<svg xmlns="http://www.w3.org/2000/svg" width="662" height="312.20001220703125" style="
        width:662px;
        height:312.20001220703125px;
        background: transparent;
        fill: none;
">
        
        
        <svg xmlns="http://www.w3.org/2000/svg" class="role-diagram-draw-area"><g class="shapes-region" style="stroke: black; fill: none;"><g class="composite-shape axis2d" style="stroke-width: 1; stroke: rgb(0, 0, 0);"><path class="real" d=" M0,227.32 L310,227.32 M31,70 L31,244.8"/><path d=" M303,222.32 L310,227.32 L303,232.32"/><path d=" M26,77 L31,70 L36,77"/></g><g class="arrow-line"><path class="connection real" stroke-dasharray="" d="  M40,220 C59.3,72.2 65.3,188.2 80,210 C94.7,231.8 98.7,115.8 120,170 C141.3,224.2 228.7,197.8 240,160 C251.3,122.2 278.36,221.23 280,220" style="stroke: rgb(0, 0, 0); stroke-width: 1; fill: none;"/></g><g class="composite-shape axis2d" style="stroke-width: 1; stroke: rgb(0, 0, 0);"><path class="real" d=" M330,227.32 L640,227.32 M361,70 L361,244.8"/><path d=" M633,222.32 L640,227.32 L633,232.32"/><path d=" M356,77 L361,70 L366,77"/></g><g class="arrow-line"><path class="connection real" stroke-dasharray="" d="  M370,190 C377.3,182.2 386.7,180.8 410,190 C433.3,199.2 434.7,170.8 450,180 C465.3,189.2 562.7,188.8 570,180 C577.3,171.2 598.3,178.2 610,190" style="stroke: rgb(0, 0, 0); stroke-width: 1; fill: none;"/></g><g class="composite-shape"><path class="real" d=" M40,140 L70,140 L70,220 L40,220 Z" style="stroke-width: 1; stroke: rgb(0, 0, 0); fill: rgba(255, 194, 194, 0.45); stroke-dasharray: 1.125, 3.35;"/></g><g class="arrow-line"><path class="connection real" stroke-dasharray="1.125 3.35" d="  M20,180 L300,180" style="stroke: rgb(0, 0, 0); stroke-width: 1; fill: none;"/></g><g class="composite-shape"><path class="real" d=" M100,140 L120,140 L120,220 L100,220 Z" style="stroke-width: 1; stroke: rgb(0, 0, 0); fill: rgba(255, 194, 194, 0.45); stroke-dasharray: 1.125, 3.35;"/></g><g class="composite-shape"><path class="real" d=" M230,140 L260,140 L260,220 L230,220 Z" style="stroke-width: 1; stroke: rgb(0, 0, 0); fill: rgba(255, 194, 194, 0.45); stroke-dasharray: 1.125, 3.35;"/></g><g class="arrow-line"><path class="connection real" stroke-dasharray="1.125 3.35" d="  M350,180 L630,180" style="stroke: rgb(0, 0, 0); stroke-width: 1; fill: none;"/></g><g/></g><g/><g/><g/></svg>
        <svg xmlns="http://www.w3.org/2000/svg" width="660" height="310.20001220703125" style="width:660px;height:310.20001220703125px;font-family:Asana-Math, Asana;background:transparent;"><g><g><g><g><g><g style="transform:matrix(1,0,0,1,28.1875,57.30000305175781);"><path d="M386 473C267 473 146 396 119 277C79 98 60 -97 34 -284C62 -283 92 -277 118 -266C116 -222 115 -145 145 29C169 -5 206 -15 247 -15C424 -15 522 168 525 325C527 420 482 473 386 473ZM347 441C426 441 446 380 445 311C444 203 398 11 260 11C182 11 164 72 166 138C168 243 210 441 347 441Z" stroke="rgb(0, 0, 0)" stroke-width="8" fill="rgb(0, 0, 0)" style="transform:matrix(0.017,0,0,-0.017,0,0);"></path></g></g></g></g></g></g><g><g><text x="31.90625" y="240.6999969482422" style="white-space:pre;stroke:none;fill:rgb(0, 0, 0);font-size:15px;font-family:Arial, Helvetica, sans-serif;font-weight:400;font-style:normal;dominant-baseline:text-before-edge;text-decoration:none solid rgb(0, 0, 0);">9am</text></g></g><g><g><text x="100.23748779296875" y="241.6999969482422" style="white-space:pre;stroke:none;fill:rgb(0, 0, 0);font-size:15px;font-family:Arial, Helvetica, sans-serif;font-weight:400;font-style:normal;dominant-baseline:text-before-edge;text-decoration:none solid rgb(0, 0, 0);">12pm</text></g></g><g><g><text x="208.90625" y="240.6999969482422" style="white-space:pre;stroke:none;fill:rgb(0, 0, 0);font-size:15px;font-family:Arial, Helvetica, sans-serif;font-weight:400;font-style:normal;dominant-baseline:text-before-edge;text-decoration:none solid rgb(0, 0, 0);">4pm</text></g></g><g><g><g><g><g><g style="transform:matrix(1,0,0,1,358.1875,57.30000305175781);"><path d="M386 473C267 473 146 396 119 277C79 98 60 -97 34 -284C62 -283 92 -277 118 -266C116 -222 115 -145 145 29C169 -5 206 -15 247 -15C424 -15 522 168 525 325C527 420 482 473 386 473ZM347 441C426 441 446 380 445 311C444 203 398 11 260 11C182 11 164 72 166 138C168 243 210 441 347 441Z" stroke="rgb(0, 0, 0)" stroke-width="8" fill="rgb(0, 0, 0)" style="transform:matrix(0.017,0,0,-0.017,0,0);"></path></g></g></g></g></g></g><g><g><text x="361.90625" y="240.6999969482422" style="white-space:pre;stroke:none;fill:rgb(0, 0, 0);font-size:15px;font-family:Arial, Helvetica, sans-serif;font-weight:400;font-style:normal;dominant-baseline:text-before-edge;text-decoration:none solid rgb(0, 0, 0);">9am</text></g></g><g><g><text x="430.23748779296875" y="241.6999969482422" style="white-space:pre;stroke:none;fill:rgb(0, 0, 0);font-size:15px;font-family:Arial, Helvetica, sans-serif;font-weight:400;font-style:normal;dominant-baseline:text-before-edge;text-decoration:none solid rgb(0, 0, 0);">12pm</text></g></g><g><g><text x="538.9063110351562" y="240.6999969482422" style="white-space:pre;stroke:none;fill:rgb(0, 0, 0);font-size:15px;font-family:Arial, Helvetica, sans-serif;font-weight:400;font-style:normal;dominant-baseline:text-before-edge;text-decoration:none solid rgb(0, 0, 0);">4pm</text></g></g><g><g><text x="2.125" y="171.6999969482422" style="white-space:pre;stroke:none;fill:rgb(0, 0, 0);font-size:15px;font-family:Arial, Helvetica, sans-serif;font-weight:400;font-style:normal;dominant-baseline:text-before-edge;text-decoration:none solid rgb(0, 0, 0);">1</text></g></g><g><g><text x="120.29376220703125" y="7.1999969482421875" style="white-space:pre;stroke:none;fill:rgb(0, 0, 0);font-size:25.95px;font-family:Arial, Helvetica, sans-serif;font-weight:400;font-style:normal;dominant-baseline:text-before-edge;text-decoration:none solid rgb(0, 0, 0);">Single DMV Office Load over Time</text></g></g><g><g><text x="102.04376220703125" y="273.1999969482422" style="white-space:pre;stroke:none;fill:rgb(0, 0, 0);font-size:25.95px;font-family:Arial, Helvetica, sans-serif;font-weight:400;font-style:normal;dominant-baseline:text-before-edge;text-decoration:none solid rgb(0, 0, 0);">Walk-Ins</text></g></g><g><g><text x="429.1937255859375" y="273.1999969482422" style="white-space:pre;stroke:none;fill:rgb(0, 0, 0);font-size:25.95px;font-family:Arial, Helvetica, sans-serif;font-weight:400;font-style:normal;dominant-baseline:text-before-edge;text-decoration:none solid rgb(0, 0, 0);">Appointments</text></g></g><g><g><g><g><g><g style="transform:matrix(1,0,0,1,312.125,234.3000030517578);"><path d="M125 390L69 107C68 99 56 61 56 31C56 6 67 -9 86 -9C121 -9 156 11 234 74L265 99L255 117L210 86C181 66 161 56 150 56C141 56 136 64 136 76C136 102 150 183 179 328L192 390L299 390L310 440C272 436 238 434 200 434C216 528 227 577 245 631L234 646C214 634 187 622 156 610L131 440C87 419 61 408 43 403L41 390Z" stroke="rgb(0, 0, 0)" stroke-width="8" fill="rgb(0, 0, 0)" style="transform:matrix(0.017,0,0,-0.017,0,0);"></path></g></g></g></g></g></g><g><g><g><g><g><g style="transform:matrix(1,0,0,1,642.1250610351562,234.3000030517578);"><path d="M125 390L69 107C68 99 56 61 56 31C56 6 67 -9 86 -9C121 -9 156 11 234 74L265 99L255 117L210 86C181 66 161 56 150 56C141 56 136 64 136 76C136 102 150 183 179 328L192 390L299 390L310 440C272 436 238 434 200 434C216 528 227 577 245 631L234 646C214 634 187 622 156 610L131 440C87 419 61 408 43 403L41 390Z" stroke="rgb(0, 0, 0)" stroke-width="8" fill="rgb(0, 0, 0)" style="transform:matrix(0.017,0,0,-0.017,0,0);"></path></g></g></g></g></g></g><g><g><text x="332.125" y="171.6999969482422" style="white-space:pre;stroke:none;fill:rgb(0, 0, 0);font-size:15px;font-family:Arial, Helvetica, sans-serif;font-weight:400;font-style:normal;dominant-baseline:text-before-edge;text-decoration:none solid rgb(0, 0, 0);">1</text></g></g></svg>
</svg>
