<svg xmlns="http://www.w3.org/2000/svg" width="662" height="325.3999938964844" style="
        width:662px;
        height:325.3999938964844px;
        background: transparent;
        fill: none;
">
        
        
        <svg xmlns="http://www.w3.org/2000/svg" class="role-diagram-draw-area"><g class="shapes-region" style="stroke: black; fill: none;"><g class="composite-shape"><path class="real" d=" M20,90 L350,90 L350,140 L20,140 Z" style="stroke-width: 1; stroke: rgb(0, 0, 0); fill: none;"/></g><g class="composite-shape"><path class="real" d=" M30,115 C30,106.72 36.72,100 45,100 C53.28,100 60,106.72 60,115 C60,123.28 53.28,130 45,130 C36.72,130 30,123.28 30,115 Z" style="stroke-width: 1; stroke: rgb(0, 0, 0); fill: none;"/><path class="real" d=" M38.4,109.9 C38.4,109.07 39.07,108.4 39.9,108.4 C40.73,108.4 41.4,109.07 41.4,109.9 C41.4,110.73 40.73,111.4 39.9,111.4 C39.07,111.4 38.4,110.73 38.4,109.9 Z" style="stroke-width: 1; stroke: rgb(0, 0, 0); fill: none;"/><path class="real" d=" M48.6,109.9 C48.6,109.07 49.27,108.4 50.1,108.4 C50.93,108.4 51.6,109.07 51.6,109.9 C51.6,110.73 50.93,111.4 50.1,111.4 C49.27,111.4 48.6,110.73 48.6,109.9 Z" style="stroke-width: 1; stroke: rgb(0, 0, 0); fill: none;"/><path class="real" d=" M37.5,121 C42.5,125 47.5,125 52.5,121" style="stroke-width: 1; stroke: rgb(0, 0, 0); fill: none;"/></g><g class="composite-shape"><path class="real" d=" M70,115 C70,106.72 76.72,100 85,100 C93.28,100 100,106.72 100,115 C100,123.28 93.28,130 85,130 C76.72,130 70,123.28 70,115 Z" style="stroke-width: 1; stroke: rgb(0, 0, 0); fill: none;"/><path class="real" d=" M78.4,109.9 C78.4,109.07 79.07,108.4 79.9,108.4 C80.73,108.4 81.4,109.07 81.4,109.9 C81.4,110.73 80.73,111.4 79.9,111.4 C79.07,111.4 78.4,110.73 78.4,109.9 Z" style="stroke-width: 1; stroke: rgb(0, 0, 0); fill: none;"/><path class="real" d=" M88.6,109.9 C88.6,109.07 89.27,108.4 90.1,108.4 C90.93,108.4 91.6,109.07 91.6,109.9 C91.6,110.73 90.93,111.4 90.1,111.4 C89.27,111.4 88.6,110.73 88.6,109.9 Z" style="stroke-width: 1; stroke: rgb(0, 0, 0); fill: none;"/><path class="real" d=" M77.5,121 C82.5,125 87.5,125 92.5,121" style="stroke-width: 1; stroke: rgb(0, 0, 0); fill: none;"/></g><g class="composite-shape"><path class="real" d=" M110,115 C110,106.72 116.72,100 125,100 C133.28,100 140,106.72 140,115 C140,123.28 133.28,130 125,130 C116.72,130 110,123.28 110,115 Z" style="stroke-width: 1; stroke: rgb(0, 0, 0); fill: none;"/><path class="real" d=" M118.4,109.9 C118.4,109.07 119.07,108.4 119.9,108.4 C120.73,108.4 121.4,109.07 121.4,109.9 C121.4,110.73 120.73,111.4 119.9,111.4 C119.07,111.4 118.4,110.73 118.4,109.9 Z" style="stroke-width: 1; stroke: rgb(0, 0, 0); fill: none;"/><path class="real" d=" M128.6,109.9 C128.6,109.07 129.27,108.4 130.1,108.4 C130.93,108.4 131.6,109.07 131.6,109.9 C131.6,110.73 130.93,111.4 130.1,111.4 C129.27,111.4 128.6,110.73 128.6,109.9 Z" style="stroke-width: 1; stroke: rgb(0, 0, 0); fill: none;"/><path class="real" d=" M117.5,121 C122.5,125 127.5,125 132.5,121" style="stroke-width: 1; stroke: rgb(0, 0, 0); fill: none;"/></g><g class="arrow-line"><path class="connection real" stroke-dasharray="" d="  M160,90 L160,140" style="stroke: rgb(0, 0, 0); stroke-width: 1; fill: none;"/></g><g class="composite-shape"><path class="real" d=" M170,115 C170,106.72 176.72,100 185,100 C193.28,100 200,106.72 200,115 C200,123.28 193.28,130 185,130 C176.72,130 170,123.28 170,115 Z" style="stroke-width: 1; stroke: rgb(0, 0, 0); fill: none;"/><path class="real" d=" M178.4,109.9 C178.4,109.07 179.07,108.4 179.9,108.4 C180.73,108.4 181.4,109.07 181.4,109.9 C181.4,110.73 180.73,111.4 179.9,111.4 C179.07,111.4 178.4,110.73 178.4,109.9 Z" style="stroke-width: 1; stroke: rgb(0, 0, 0); fill: none;"/><path class="real" d=" M188.6,109.9 C188.6,109.07 189.27,108.4 190.1,108.4 C190.93,108.4 191.6,109.07 191.6,109.9 C191.6,110.73 190.93,111.4 190.1,111.4 C189.27,111.4 188.6,110.73 188.6,109.9 Z" style="stroke-width: 1; stroke: rgb(0, 0, 0); fill: none;"/><path class="real" d=" M177.5,121 C182.5,125 187.5,125 192.5,121" style="stroke-width: 1; stroke: rgb(0, 0, 0); fill: none;"/></g><g class="composite-shape"><path class="real" d=" M210,115 C210,106.72 216.72,100 225,100 C233.28,100 240,106.72 240,115 C240,123.28 233.28,130 225,130 C216.72,130 210,123.28 210,115 Z" style="stroke-width: 1; stroke: rgb(0, 0, 0); fill: none;"/><path class="real" d=" M218.4,109.9 C218.4,109.07 219.07,108.4 219.9,108.4 C220.73,108.4 221.4,109.07 221.4,109.9 C221.4,110.73 220.73,111.4 219.9,111.4 C219.07,111.4 218.4,110.73 218.4,109.9 Z" style="stroke-width: 1; stroke: rgb(0, 0, 0); fill: none;"/><path class="real" d=" M228.6,109.9 C228.6,109.07 229.27,108.4 230.1,108.4 C230.93,108.4 231.6,109.07 231.6,109.9 C231.6,110.73 230.93,111.4 230.1,111.4 C229.27,111.4 228.6,110.73 228.6,109.9 Z" style="stroke-width: 1; stroke: rgb(0, 0, 0); fill: none;"/><path class="real" d=" M217.5,121 C222.5,125 227.5,125 232.5,121" style="stroke-width: 1; stroke: rgb(0, 0, 0); fill: none;"/></g><g class="composite-shape"><path class="real" d=" M250,115 C250,106.72 256.72,100 265,100 C273.28,100 280,106.72 280,115 C280,123.28 273.28,130 265,130 C256.72,130 250,123.28 250,115 Z" style="stroke-width: 1; stroke: rgb(0, 0, 0); fill: none;"/><path class="real" d=" M258.4,109.9 C258.4,109.07 259.07,108.4 259.9,108.4 C260.73,108.4 261.4,109.07 261.4,109.9 C261.4,110.73 260.73,111.4 259.9,111.4 C259.07,111.4 258.4,110.73 258.4,109.9 Z" style="stroke-width: 1; stroke: rgb(0, 0, 0); fill: none;"/><path class="real" d=" M268.6,109.9 C268.6,109.07 269.27,108.4 270.1,108.4 C270.93,108.4 271.6,109.07 271.6,109.9 C271.6,110.73 270.93,111.4 270.1,111.4 C269.27,111.4 268.6,110.73 268.6,109.9 Z" style="stroke-width: 1; stroke: rgb(0, 0, 0); fill: none;"/><path class="real" d=" M257.5,121 C262.5,125 267.5,125 272.5,121" style="stroke-width: 1; stroke: rgb(0, 0, 0); fill: none;"/></g><g class="arrow-line"><path class="connection real" stroke-dasharray="" d="  M290,90 L290,140" style="stroke: rgb(0, 0, 0); stroke-width: 1; fill: none;"/></g><g class="composite-shape"><path class="real" d=" M310,115 C310,106.72 316.72,100 325,100 C333.28,100 340,106.72 340,115 C340,123.28 333.28,130 325,130 C316.72,130 310,123.28 310,115 Z" style="stroke-width: 1; stroke: rgb(0, 0, 0); fill: none;"/><path class="real" d=" M318.4,109.9 C318.4,109.07 319.07,108.4 319.9,108.4 C320.73,108.4 321.4,109.07 321.4,109.9 C321.4,110.73 320.73,111.4 319.9,111.4 C319.07,111.4 318.4,110.73 318.4,109.9 Z" style="stroke-width: 1; stroke: rgb(0, 0, 0); fill: none;"/><path class="real" d=" M328.6,109.9 C328.6,109.07 329.27,108.4 330.1,108.4 C330.93,108.4 331.6,109.07 331.6,109.9 C331.6,110.73 330.93,111.4 330.1,111.4 C329.27,111.4 328.6,110.73 328.6,109.9 Z" style="stroke-width: 1; stroke: rgb(0, 0, 0); fill: none;"/><path class="real" d=" M317.5,121 C322.5,125 327.5,125 332.5,121" style="stroke-width: 1; stroke: rgb(0, 0, 0); fill: none;"/></g><g class="composite-shape"><path class="real" d=" M70,170 L110,170 L110,180 L70,180 Z" style="stroke-width: 1; stroke: rgb(0, 0, 0); fill: none;"/></g><g class="composite-shape"><path class="real" d=" M70,180 L110,180 L110,190 L70,190 Z" style="stroke-width: 1; stroke: rgb(0, 0, 0); fill: none;"/></g><g class="composite-shape"><path class="real" d=" M70,190 L110,190 L110,200 L70,200 Z" style="stroke-width: 1; stroke: rgb(0, 0, 0); fill: none;"/></g><g class="composite-shape"><path class="real" d=" M70,200 L110,200 L110,210 L70,210 Z" style="stroke-width: 1; stroke: rgb(0, 0, 0); fill: none;"/></g><g class="composite-shape"><path class="real" d=" M70,210 L110,210 L110,220 L70,220 Z" style="stroke-width: 1; stroke: rgb(0, 0, 0); fill: none;"/></g><g class="composite-shape"><path class="real" d=" M70,220 L110,220 L110,230 L70,230 Z" style="stroke-width: 1; stroke: rgb(0, 0, 0); fill: none;"/></g><g class="composite-shape"><path class="real" d=" M70,230 L110,230 L110,240 L70,240 Z" style="stroke-width: 1; stroke: rgb(0, 0, 0); fill: none;"/></g><g class="composite-shape"><path class="real" d=" M70,240 L110,240 L110,250 L70,250 Z" style="stroke-width: 1; stroke: rgb(0, 0, 0); fill: none;"/></g><g class="composite-shape"><path class="real" d=" M210,170 L250,170 L250,180 L210,180 Z" style="stroke-width: 1; stroke: rgb(0, 0, 0); fill: none;"/></g><g class="composite-shape"><path class="real" d=" M210,180 L250,180 L250,190 L210,190 Z" style="stroke-width: 1; stroke: rgb(0, 0, 0); fill: none;"/></g><g class="composite-shape"><path class="real" d=" M210,190 L250,190 L250,200 L210,200 Z" style="stroke-width: 1; stroke: rgb(0, 0, 0); fill: none;"/></g><g class="composite-shape"><path class="real" d=" M210,200 L250,200 L250,210 L210,210 Z" style="stroke-width: 1; stroke: rgb(0, 0, 0); fill: none;"/></g><g class="composite-shape"><path class="real" d=" M210,210 L250,210 L250,220 L210,220 Z" style="stroke-width: 1; stroke: rgb(0, 0, 0); fill: none;"/></g><g class="composite-shape"><path class="real" d=" M210,220 L250,220 L250,230 L210,230 Z" style="stroke-width: 1; stroke: rgb(0, 0, 0); fill: none;"/></g><g class="composite-shape"><path class="real" d=" M300,170 L340,170 L340,180 L300,180 Z" style="stroke-width: 1; stroke: rgb(0, 0, 0); fill: none;"/></g><g class="composite-shape"><path class="real" d=" M300,180 L340,180 L340,190 L300,190 Z" style="stroke-width: 1; stroke: rgb(0, 0, 0); fill: none;"/></g><g class="composite-shape"><path class="real" d=" M300,190 L340,190 L340,200 L300,200 Z" style="stroke-width: 1; stroke: rgb(0, 0, 0); fill: none;"/></g><g class="composite-shape"><path class="real" d=" M300,200 L340,200 L340,210 L300,210 Z" style="stroke-width: 1; stroke: rgb(0, 0, 0); fill: none;"/></g><g class="composite-shape"><path class="real" d=" M300,210 L340,210 L340,220 L300,220 Z" style="stroke-width: 1; stroke: rgb(0, 0, 0); fill: none;"/></g><g class="composite-shape"><path class="real" d=" M300,220 L340,220 L340,230 L300,230 Z" style="stroke-width: 1; stroke: rgb(0, 0, 0); fill: none;"/></g><g class="composite-shape"><path class="real" d=" M300,230 L340,230 L340,240 L300,240 Z" style="stroke-width: 1; stroke: rgb(0, 0, 0); fill: none;"/></g><g class="composite-shape"><path class="real" d=" M300,240 L340,240 L340,250 L300,250 Z" style="stroke-width: 1; stroke: rgb(0, 0, 0); fill: none;"/></g><g class="composite-shape"><path class="real" d=" M160,288 C160,283.58 163.58,280 168,280 L222,280 C226.42,280 230,283.58 230,288 L230,312 C230,316.42 226.42,320 222,320 L168,320 C163.58,320 160,316.42 160,312 Z" style="stroke-width: 1; stroke: rgb(0, 0, 0); fill: none;"/></g><g class="arrow-line"><path class="connection real" stroke-dasharray="" d="  M200,280 L91.93,250.53" style="stroke: rgb(0, 0, 0); stroke-width: 1; fill: none;"/><g stroke="#000" transform="matrix(0.9647414015272168,0.26319959760474865,-0.26319959760474865,0.9647414015272168,90,250)" style="stroke: rgb(0, 0, 0); stroke-width: 1;"><path d=" M10.93,-3.29 Q4.96,-0.45 0,0 Q4.96,0.45 10.93,3.29"/></g></g><g class="arrow-line"><path class="connection real" stroke-dasharray="" d="  M200,280 L228.97,231.71" style="stroke: rgb(0, 0, 0); stroke-width: 1; fill: none;"/><g stroke="#000" transform="matrix(-0.5144395337815063,0.8575266561936523,-0.8575266561936523,-0.5144395337815063,230,230)" style="stroke: rgb(0, 0, 0); stroke-width: 1;"><path d=" M10.93,-3.29 Q4.96,-0.45 0,0 Q4.96,0.45 10.93,3.29"/></g></g><g class="arrow-line"><path class="connection real" stroke-dasharray="" d="  M200,280 L318.06,250.49" style="stroke: rgb(0, 0, 0); stroke-width: 1; fill: none;"/><g stroke="#000" transform="matrix(-0.970126596490106,0.24259923079540677,-0.24259923079540677,-0.970126596490106,320,250.00000000000003)" style="stroke: rgb(0, 0, 0); stroke-width: 1;"><path d=" M10.93,-3.29 Q4.96,-0.45 0,0 Q4.96,0.45 10.93,3.29"/></g></g><g class="arrow-line"><path class="connection real" stroke-dasharray="" d="  M90,170 L41.71,141.03" style="stroke: rgb(0, 0, 0); stroke-width: 1; fill: none;"/><g stroke="#000" transform="matrix(0.8575266561936523,0.5144395337815063,-0.5144395337815063,0.8575266561936523,40,140)" style="stroke: rgb(0, 0, 0); stroke-width: 1;"><path d=" M10.93,-3.29 Q4.96,-0.45 0,0 Q4.96,0.45 10.93,3.29"/></g></g><g class="arrow-line"><path class="connection real" stroke-dasharray="" d="  M90,170 L90,142" style="stroke: rgb(0, 0, 0); stroke-width: 1; fill: none;"/><g stroke="#000" transform="matrix(3.061616997868383e-16,1,-1,3.061616997868383e-16,90,140)" style="stroke: rgb(0, 0, 0); stroke-width: 1;"><path d=" M10.93,-3.29 Q4.96,-0.45 0,0 Q4.96,0.45 10.93,3.29"/></g></g><g class="arrow-line"><path class="connection real" stroke-dasharray="" d="  M90,170 L128.4,141.2" style="stroke: rgb(0, 0, 0); stroke-width: 1; fill: none;"/><g stroke="#000" transform="matrix(-0.7999989281485084,0.6000014291326627,-0.6000014291326627,-0.7999989281485084,130,140)" style="stroke: rgb(0, 0, 0); stroke-width: 1;"><path d=" M10.93,-3.29 Q4.96,-0.45 0,0 Q4.96,0.45 10.93,3.29"/></g></g><g class="arrow-line"><path class="connection real" stroke-dasharray="" d="  M230,170 L181.71,141.03" style="stroke: rgb(0, 0, 0); stroke-width: 1; fill: none;"/><g stroke="#000" transform="matrix(0.8575266561936523,0.5144395337815063,-0.5144395337815063,0.8575266561936523,180,140)" style="stroke: rgb(0, 0, 0); stroke-width: 1;"><path d=" M10.93,-3.29 Q4.96,-0.45 0,0 Q4.96,0.45 10.93,3.29"/></g></g><g class="arrow-line"><path class="connection real" stroke-dasharray="" d="  M230,170 L230,142" style="stroke: rgb(0, 0, 0); stroke-width: 1; fill: none;"/><g stroke="#000" transform="matrix(3.061616997868383e-16,1,-1,3.061616997868383e-16,230,140)" style="stroke: rgb(0, 0, 0); stroke-width: 1;"><path d=" M10.93,-3.29 Q4.96,-0.45 0,0 Q4.96,0.45 10.93,3.29"/></g></g><g class="arrow-line"><path class="connection real" stroke-dasharray="" d="  M230,170 L268.4,141.2" style="stroke: rgb(0, 0, 0); stroke-width: 1; fill: none;"/><g stroke="#000" transform="matrix(-0.7999989281485084,0.6000014291326627,-0.6000014291326627,-0.7999989281485084,270,140)" style="stroke: rgb(0, 0, 0); stroke-width: 1;"><path d=" M10.93,-3.29 Q4.96,-0.45 0,0 Q4.96,0.45 10.93,3.29"/></g></g><g class="arrow-line"><path class="connection real" stroke-dasharray="" d="  M320,170 L320,142" style="stroke: rgb(0, 0, 0); stroke-width: 1; fill: none;"/><g stroke="#000" transform="matrix(3.061616997868383e-16,1,-1,3.061616997868383e-16,320,140)" style="stroke: rgb(0, 0, 0); stroke-width: 1;"><path d=" M10.93,-3.29 Q4.96,-0.45 0,0 Q4.96,0.45 10.93,3.29"/></g></g><g class="composite-shape"><path class="real" d=" M470,113 L600,113 L600,163 L470,163 Z" style="stroke-width: 1; stroke: rgb(0, 0, 0); fill: none;"/></g><g class="composite-shape"><path class="real" d=" M480,138 C480,129.72 486.72,123 495,123 C503.28,123 510,129.72 510,138 C510,146.28 503.28,153 495,153 C486.72,153 480,146.28 480,138 Z" style="stroke-width: 1; stroke: rgb(0, 0, 0); fill: none;"/><path class="real" d=" M488.4,132.9 C488.4,132.07 489.07,131.4 489.9,131.4 C490.73,131.4 491.4,132.07 491.4,132.9 C491.4,133.73 490.73,134.4 489.9,134.4 C489.07,134.4 488.4,133.73 488.4,132.9 Z" style="stroke-width: 1; stroke: rgb(0, 0, 0); fill: none;"/><path class="real" d=" M498.6,132.9 C498.6,132.07 499.27,131.4 500.1,131.4 C500.93,131.4 501.6,132.07 501.6,132.9 C501.6,133.73 500.93,134.4 500.1,134.4 C499.27,134.4 498.6,133.73 498.6,132.9 Z" style="stroke-width: 1; stroke: rgb(0, 0, 0); fill: none;"/><path class="real" d=" M487.5,144 C492.5,148 497.5,148 502.5,144" style="stroke-width: 1; stroke: rgb(0, 0, 0); fill: none;"/></g><g class="composite-shape"><path class="real" d=" M520,138 C520,129.72 526.72,123 535,123 C543.28,123 550,129.72 550,138 C550,146.28 543.28,153 535,153 C526.72,153 520,146.28 520,138 Z" style="stroke-width: 1; stroke: rgb(0, 0, 0); fill: none;"/><path class="real" d=" M528.4,132.9 C528.4,132.07 529.07,131.4 529.9,131.4 C530.73,131.4 531.4,132.07 531.4,132.9 C531.4,133.73 530.73,134.4 529.9,134.4 C529.07,134.4 528.4,133.73 528.4,132.9 Z" style="stroke-width: 1; stroke: rgb(0, 0, 0); fill: none;"/><path class="real" d=" M538.6,132.9 C538.6,132.07 539.27,131.4 540.1,131.4 C540.93,131.4 541.6,132.07 541.6,132.9 C541.6,133.73 540.93,134.4 540.1,134.4 C539.27,134.4 538.6,133.73 538.6,132.9 Z" style="stroke-width: 1; stroke: rgb(0, 0, 0); fill: none;"/><path class="real" d=" M527.5,144 C532.5,148 537.5,148 542.5,144" style="stroke-width: 1; stroke: rgb(0, 0, 0); fill: none;"/></g><g class="composite-shape"><path class="real" d=" M560,138 C560,129.72 566.72,123 575,123 C583.28,123 590,129.72 590,138 C590,146.28 583.28,153 575,153 C566.72,153 560,146.28 560,138 Z" style="stroke-width: 1; stroke: rgb(0, 0, 0); fill: rgba(208, 2, 27, 0.43);"/><path class="real" d=" M568.4,132.9 C568.4,132.07 569.07,131.4 569.9,131.4 C570.73,131.4 571.4,132.07 571.4,132.9 C571.4,133.73 570.73,134.4 569.9,134.4 C569.07,134.4 568.4,133.73 568.4,132.9 Z" style="stroke-width: 1; stroke: rgb(0, 0, 0); fill: rgba(208, 2, 27, 0.43);"/><path class="real" d=" M578.6,132.9 C578.6,132.07 579.27,131.4 580.1,131.4 C580.93,131.4 581.6,132.07 581.6,132.9 C581.6,133.73 580.93,134.4 580.1,134.4 C579.27,134.4 578.6,133.73 578.6,132.9 Z" style="stroke-width: 1; stroke: rgb(0, 0, 0); fill: rgba(208, 2, 27, 0.43);"/><path class="real" d=" M567.5,144 C572.5,148 577.5,148 582.5,144" style="stroke-width: 1; stroke: rgb(0, 0, 0); fill: none;"/></g><g class="composite-shape"><path class="real" d=" M490,213 L530,213 L530,223 L490,223 Z" style="stroke-width: 1; stroke: rgb(0, 0, 0); fill: none;"/></g><g class="composite-shape"><path class="real" d=" M490,223 L530,223 L530,233 L490,233 Z" style="stroke-width: 1; stroke: rgb(0, 0, 0); fill: none;"/></g><g class="composite-shape"><path class="real" d=" M490,233 L530,233 L530,243 L490,243 Z" style="stroke-width: 1; stroke: rgb(0, 0, 0); fill: none;"/></g><g class="composite-shape"><path class="real" d=" M490,243 L530,243 L530,253 L490,253 Z" style="stroke-width: 1; stroke: rgb(0, 0, 0); fill: none;"/></g><g class="composite-shape"><path class="real" d=" M490,253 L530,253 L530,263 L490,263 Z" style="stroke-width: 1; stroke: rgb(0, 0, 0); fill: none;"/></g><g class="composite-shape"><path class="real" d=" M490,263 L530,263 L530,273 L490,273 Z" style="stroke-width: 1; stroke: rgb(0, 0, 0); fill: none;"/></g><g class="composite-shape"><path class="real" d=" M550,213 L590,213 L590,223 L550,223 Z" style="stroke-width: 1; stroke: rgb(0, 0, 0); fill: none;"/></g><g class="composite-shape"><path class="real" d=" M550,223 L590,223 L590,233 L550,233 Z" style="stroke-width: 1; stroke: rgb(0, 0, 0); fill: none;"/></g><g class="arrow-line"><path class="connection real" stroke-dasharray="" d="  M510,213 L538.34,194.11" style="stroke: rgb(0, 0, 0); stroke-width: 1; fill: none;"/><g stroke="#000" transform="matrix(-0.832050948079558,0.5546992156114056,-0.5546992156114056,-0.832050948079558,540,193)" style="stroke: rgb(0, 0, 0); stroke-width: 1;"><path d=" M10.93,-3.29 Q4.96,-0.45 0,0 Q4.96,0.45 10.93,3.29"/></g></g><g class="arrow-line"><path class="connection real" stroke-dasharray="" d="  M540,193 C543.25,276.13 551.06,262.83 569.17,234.31" style="stroke: rgb(0, 0, 0); stroke-width: 1; fill: none;"/><g stroke="#000" transform="matrix(-0.5367106791534966,0.8437663461424569,-0.8437663461424569,-0.5367106791534966,569.9999999999999,233)" style="stroke: rgb(0, 0, 0); stroke-width: 1;"><path d=" M10.93,-3.29 Q4.96,-0.45 0,0 Q4.96,0.45 10.93,3.29"/></g></g><g class="arrow-line"><path class="connection real" stroke-dasharray="" d="  M510,213 L490.89,174.79" style="stroke: rgb(0, 0, 0); stroke-width: 1; fill: none;"/><g stroke="#000" transform="matrix(0.44729084841871003,0.8943885603700835,-0.8943885603700835,0.44729084841871003,490,173)" style="stroke: rgb(0, 0, 0); stroke-width: 1;"><path d=" M10.93,-3.29 Q4.96,-0.45 0,0 Q4.96,0.45 10.93,3.29"/></g></g><g class="arrow-line"><path class="connection real" stroke-dasharray="" d="  M580,210 L580,172" style="stroke: rgb(0, 0, 0); stroke-width: 1; fill: none;"/><g stroke="#000" transform="matrix(3.061616997868383e-16,1,-1,3.061616997868383e-16,580,170)" style="stroke: rgb(0, 0, 0); stroke-width: 1;"><path d=" M10.93,-3.29 Q4.96,-0.45 0,0 Q4.96,0.45 10.93,3.29"/></g></g><g/></g><g/><g/><g/></svg>
        <svg xmlns="http://www.w3.org/2000/svg" width="660" height="323.3999938964844" style="width:660px;height:323.3999938964844px;font-family:Asana-Math, Asana;background:transparent;"><g><g><g><g><g><g style="transform:matrix(1,0,0,1,62.1187744140625,77.29998779296875);"><path d="M418 -3L418 27L366 30C311 33 301 44 301 96L301 700L60 598L67 548L217 614L217 96C217 44 206 33 152 30L96 27L96 -3C250 0 250 0 261 0C292 0 402 -3 418 -3Z" stroke="rgb(0, 0, 0)" stroke-width="8" fill="rgb(0, 0, 0)" style="transform:matrix(0.017,0,0,-0.017,0,0);"></path></g><g style="transform:matrix(1,0,0,1,74.0062255859375,77.29998779296875);"><path d="M555 243L555 299L51 299L51 243Z" stroke="rgb(0, 0, 0)" stroke-width="8" fill="rgb(0, 0, 0)" style="transform:matrix(0.017,0,0,-0.017,0,0);"></path></g><g style="transform:matrix(1,0,0,1,87.6937255859375,77.29998779296875);"><path d="M418 -3L418 27L366 30C311 33 301 44 301 96L301 700L60 598L67 548L217 614L217 96C217 44 206 33 152 30L96 27L96 -3C250 0 250 0 261 0C292 0 402 -3 418 -3ZM762 689C607 689 528 566 528 324C528 207 549 106 584 57C619 8 675 -20 737 -20C888 -20 964 110 964 366C964 585 899 689 762 689ZM744 654C841 654 880 556 880 316C880 103 842 15 750 15C653 15 612 116 612 360C612 571 649 654 744 654ZM1728 103L1702 86C1673 67 1651 56 1641 56C1634 56 1628 65 1628 76C1628 86 1630 95 1635 116L1710 413C1714 430 1717 446 1717 454C1717 471 1707 482 1691 482C1662 482 1624 464 1563 421C1500 376 1465 341 1416 272L1446 409C1450 429 1453 444 1453 451C1453 470 1443 482 1427 482C1397 482 1351 460 1296 418C1252 384 1232 363 1167 275L1200 408C1204 424 1206 439 1206 451C1206 470 1197 482 1183 482C1162 482 1124 461 1050 408L1022 388L1029 368C1066 391 1101 414 1108 414C1119 414 1126 404 1126 389C1126 338 1085 145 1044 2L1047 -9L1115 6L1137 108C1161 219 1188 278 1243 338C1285 384 1330 414 1358 414C1365 414 1369 406 1369 393C1369 358 1347 244 1306 69L1290 2L1295 -9L1364 6L1385 113C1401 194 1435 269 1479 318C1534 379 1584 414 1616 414C1624 414 1629 405 1629 389C1629 365 1626 351 1604 264C1564 105 1548 84 1548 31C1548 6 1559 -9 1578 -9C1604 -9 1640 12 1738 85Z" stroke="rgb(0, 0, 0)" stroke-width="8" fill="rgb(0, 0, 0)" style="transform:matrix(0.017,0,0,-0.017,0,0);"></path></g></g></g></g></g></g><g><g><g><g><g><g style="transform:matrix(1,0,0,1,191.875,77.29998779296875);"><path d="M418 -3L418 27L366 30C311 33 301 44 301 96L301 700L60 598L67 548L217 614L217 96C217 44 206 33 152 30L96 27L96 -3C250 0 250 0 261 0C292 0 402 -3 418 -3ZM762 689C607 689 528 566 528 324C528 207 549 106 584 57C619 8 675 -20 737 -20C888 -20 964 110 964 366C964 585 899 689 762 689ZM744 654C841 654 880 556 880 316C880 103 842 15 750 15C653 15 612 116 612 360C612 571 649 654 744 654Z" stroke="rgb(0, 0, 0)" stroke-width="8" fill="rgb(0, 0, 0)" style="transform:matrix(0.017,0,0,-0.017,0,0);"></path></g><g style="transform:matrix(1,0,0,1,212.25,77.29998779296875);"><path d="M555 243L555 299L51 299L51 243Z" stroke="rgb(0, 0, 0)" stroke-width="8" fill="rgb(0, 0, 0)" style="transform:matrix(0.017,0,0,-0.017,0,0);"></path></g><g style="transform:matrix(1,0,0,1,225.9375,77.29998779296875);"><path d="M462 224C462 345 355 366 308 374C388 436 418 482 418 541C418 630 344 689 233 689C165 689 120 670 72 622L43 498L74 498L92 554C103 588 166 622 218 622C283 622 336 569 336 506C336 431 277 368 206 368C198 368 187 369 174 370L159 371L147 318L154 312C192 329 211 334 238 334C321 334 369 281 369 190C369 88 308 21 215 21C169 21 128 36 98 64C74 86 61 109 42 163L15 153C36 92 44 56 50 6C103 -12 147 -20 184 -20C307 -20 462 87 462 224ZM762 689C607 689 528 566 528 324C528 207 549 106 584 57C619 8 675 -20 737 -20C888 -20 964 110 964 366C964 585 899 689 762 689ZM744 654C841 654 880 556 880 316C880 103 842 15 750 15C653 15 612 116 612 360C612 571 649 654 744 654ZM1728 103L1702 86C1673 67 1651 56 1641 56C1634 56 1628 65 1628 76C1628 86 1630 95 1635 116L1710 413C1714 430 1717 446 1717 454C1717 471 1707 482 1691 482C1662 482 1624 464 1563 421C1500 376 1465 341 1416 272L1446 409C1450 429 1453 444 1453 451C1453 470 1443 482 1427 482C1397 482 1351 460 1296 418C1252 384 1232 363 1167 275L1200 408C1204 424 1206 439 1206 451C1206 470 1197 482 1183 482C1162 482 1124 461 1050 408L1022 388L1029 368C1066 391 1101 414 1108 414C1119 414 1126 404 1126 389C1126 338 1085 145 1044 2L1047 -9L1115 6L1137 108C1161 219 1188 278 1243 338C1285 384 1330 414 1358 414C1365 414 1369 406 1369 393C1369 358 1347 244 1306 69L1290 2L1295 -9L1364 6L1385 113C1401 194 1435 269 1479 318C1534 379 1584 414 1616 414C1624 414 1629 405 1629 389C1629 365 1626 351 1604 264C1564 105 1548 84 1548 31C1548 6 1559 -9 1578 -9C1604 -9 1640 12 1738 85Z" stroke="rgb(0, 0, 0)" stroke-width="8" fill="rgb(0, 0, 0)" style="transform:matrix(0.017,0,0,-0.017,0,0);"></path></g></g></g></g></g></g><g><g><g><g><g><g style="transform:matrix(1,0,0,1,299.82501220703125,77.29998779296875);"><path d="M462 224C462 345 355 366 308 374C388 436 418 482 418 541C418 630 344 689 233 689C165 689 120 670 72 622L43 498L74 498L92 554C103 588 166 622 218 622C283 622 336 569 336 506C336 431 277 368 206 368C198 368 187 369 174 370L159 371L147 318L154 312C192 329 211 334 238 334C321 334 369 281 369 190C369 88 308 21 215 21C169 21 128 36 98 64C74 86 61 109 42 163L15 153C36 92 44 56 50 6C103 -12 147 -20 184 -20C307 -20 462 87 462 224ZM762 689C607 689 528 566 528 324C528 207 549 106 584 57C619 8 675 -20 737 -20C888 -20 964 110 964 366C964 585 899 689 762 689ZM744 654C841 654 880 556 880 316C880 103 842 15 750 15C653 15 612 116 612 360C612 571 649 654 744 654ZM1728 103L1702 86C1673 67 1651 56 1641 56C1634 56 1628 65 1628 76C1628 86 1630 95 1635 116L1710 413C1714 430 1717 446 1717 454C1717 471 1707 482 1691 482C1662 482 1624 464 1563 421C1500 376 1465 341 1416 272L1446 409C1450 429 1453 444 1453 451C1453 470 1443 482 1427 482C1397 482 1351 460 1296 418C1252 384 1232 363 1167 275L1200 408C1204 424 1206 439 1206 451C1206 470 1197 482 1183 482C1162 482 1124 461 1050 408L1022 388L1029 368C1066 391 1101 414 1108 414C1119 414 1126 404 1126 389C1126 338 1085 145 1044 2L1047 -9L1115 6L1137 108C1161 219 1188 278 1243 338C1285 384 1330 414 1358 414C1365 414 1369 406 1369 393C1369 358 1347 244 1306 69L1290 2L1295 -9L1364 6L1385 113C1401 194 1435 269 1479 318C1534 379 1584 414 1616 414C1624 414 1629 405 1629 389C1629 365 1626 351 1604 264C1564 105 1548 84 1548 31C1548 6 1559 -9 1578 -9C1604 -9 1640 12 1738 85Z" stroke="rgb(0, 0, 0)" stroke-width="8" fill="rgb(0, 0, 0)" style="transform:matrix(0.017,0,0,-0.017,0,0);"></path></g><g style="transform:matrix(1,0,0,1,333.4124755859375,77.29998779296875);"><path d="M604 241L604 300L364 300L364 538L305 538L305 300L65 300L65 241L305 241L305 0L364 0L364 241Z" stroke="rgb(0, 0, 0)" stroke-width="8" fill="rgb(0, 0, 0)" style="transform:matrix(0.017,0,0,-0.017,0,0);"></path></g></g></g></g></g></g><g><g><text x="171.3812255859375" y="291.1999816894531" style="white-space:pre;stroke:none;fill:rgb(0, 0, 0);font-size:15px;font-family:Arial, Helvetica, sans-serif;font-weight:400;font-style:normal;dominant-baseline:text-before-edge;text-decoration:none solid rgb(0, 0, 0);">SITA-E</text></g></g><g><g><g><g><g><g style="transform:matrix(1,0,0,1,501.87506103515625,104.29998779296875);"><path d="M418 -3L418 27L366 30C311 33 301 44 301 96L301 700L60 598L67 548L217 614L217 96C217 44 206 33 152 30L96 27L96 -3C250 0 250 0 261 0C292 0 402 -3 418 -3ZM762 689C607 689 528 566 528 324C528 207 549 106 584 57C619 8 675 -20 737 -20C888 -20 964 110 964 366C964 585 899 689 762 689ZM744 654C841 654 880 556 880 316C880 103 842 15 750 15C653 15 612 116 612 360C612 571 649 654 744 654Z" stroke="rgb(0, 0, 0)" stroke-width="8" fill="rgb(0, 0, 0)" style="transform:matrix(0.017,0,0,-0.017,0,0);"></path></g><g style="transform:matrix(1,0,0,1,522.2500610351562,104.29998779296875);"><path d="M555 243L555 299L51 299L51 243Z" stroke="rgb(0, 0, 0)" stroke-width="8" fill="rgb(0, 0, 0)" style="transform:matrix(0.017,0,0,-0.017,0,0);"></path></g><g style="transform:matrix(1,0,0,1,535.9375610351562,104.29998779296875);"><path d="M462 224C462 345 355 366 308 374C388 436 418 482 418 541C418 630 344 689 233 689C165 689 120 670 72 622L43 498L74 498L92 554C103 588 166 622 218 622C283 622 336 569 336 506C336 431 277 368 206 368C198 368 187 369 174 370L159 371L147 318L154 312C192 329 211 334 238 334C321 334 369 281 369 190C369 88 308 21 215 21C169 21 128 36 98 64C74 86 61 109 42 163L15 153C36 92 44 56 50 6C103 -12 147 -20 184 -20C307 -20 462 87 462 224ZM762 689C607 689 528 566 528 324C528 207 549 106 584 57C619 8 675 -20 737 -20C888 -20 964 110 964 366C964 585 899 689 762 689ZM744 654C841 654 880 556 880 316C880 103 842 15 750 15C653 15 612 116 612 360C612 571 649 654 744 654ZM1728 103L1702 86C1673 67 1651 56 1641 56C1634 56 1628 65 1628 76C1628 86 1630 95 1635 116L1710 413C1714 430 1717 446 1717 454C1717 471 1707 482 1691 482C1662 482 1624 464 1563 421C1500 376 1465 341 1416 272L1446 409C1450 429 1453 444 1453 451C1453 470 1443 482 1427 482C1397 482 1351 460 1296 418C1252 384 1232 363 1167 275L1200 408C1204 424 1206 439 1206 451C1206 470 1197 482 1183 482C1162 482 1124 461 1050 408L1022 388L1029 368C1066 391 1101 414 1108 414C1119 414 1126 404 1126 389C1126 338 1085 145 1044 2L1047 -9L1115 6L1137 108C1161 219 1188 278 1243 338C1285 384 1330 414 1358 414C1365 414 1369 406 1369 393C1369 358 1347 244 1306 69L1290 2L1295 -9L1364 6L1385 113C1401 194 1435 269 1479 318C1534 379 1584 414 1616 414C1624 414 1629 405 1629 389C1629 365 1626 351 1604 264C1564 105 1548 84 1548 31C1548 6 1559 -9 1578 -9C1604 -9 1640 12 1738 85Z" stroke="rgb(0, 0, 0)" stroke-width="8" fill="rgb(0, 0, 0)" style="transform:matrix(0.017,0,0,-0.017,0,0);"></path></g></g></g></g></g></g><g><g><text x="512.3562622070312" y="173.69998168945312" style="white-space:pre;stroke:none;fill:rgb(0, 0, 0);font-size:15px;font-family:Arial, Helvetica, sans-serif;font-weight:400;font-style:normal;dominant-baseline:text-before-edge;text-decoration:none solid rgb(0, 0, 0);">&gt;30m?</text></g></g><g><g><text x="409.10626220703125" y="17.20001220703125" style="white-space:pre;stroke:none;fill:rgb(0, 0, 0);font-size:25.95px;font-family:Arial, Helvetica, sans-serif;font-weight:400;font-style:normal;dominant-baseline:text-before-edge;text-decoration:none solid rgb(0, 0, 0);">Slow Task Requeue</text></g></g><g><g><text x="58.04376220703125" y="17.20001220703125" style="white-space:pre;stroke:none;fill:rgb(0, 0, 0);font-size:25.95px;font-family:Arial, Helvetica, sans-serif;font-weight:400;font-style:normal;dominant-baseline:text-before-edge;text-decoration:none solid rgb(0, 0, 0);">Size Based Queueing</text></g></g></svg>
</svg>
