<svg xmlns="http://www.w3.org/2000/svg" width="662" height="315.3999938964844" style="
        width:662px;
        height:315.3999938964844px;
        background: transparent;
        fill: none;
">
        
        
        <svg xmlns="http://www.w3.org/2000/svg" class="role-diagram-draw-area"><g class="shapes-region" style="stroke: black; fill: none;"><g class="composite-shape axis2d" style="stroke-width: 1; stroke: rgb(0, 0, 0);"><path class="real" d=" M320,227.32 L630,227.32 M351,70 L351,244.8"/><path d=" M623,222.32 L630,227.32 L623,232.32"/><path d=" M346,77 L351,70 L356,77"/></g><g class="arrow-line"><path class="connection real" stroke-dasharray="1.125 3.35" d="  M350,99 L630,99" style="stroke: rgb(0, 0, 0); stroke-width: 1; fill: none;"/></g><g class="arrow-line"><path class="connection real" stroke-dasharray="3.375 4.0200000000000005" d="  M370,230 C377.3,146.8 469.3,143.8 500,160 C583.17,206.6 579.54,205.87 635.57,209.7" style="stroke: rgb(208, 2, 27); stroke-width: 3; fill: none;"/><g stroke="none" fill="rgba(208,2,27,1)" transform="matrix(-0.9976125063612252,-0.06906002571440581,0.06906002571440581,-0.9976125063612252,640.0000000000001,210)" style="stroke: none; fill: rgb(208, 2, 27); stroke-width: 3;"><path d=" M14.29,-6.86 L0,0 L14.29,6.86 Z"/></g></g><g class="composite-shape"><path class="real" d=" M13,50 L293,50 L293,260 L13,260 Z" style="stroke-width: 1; stroke: rgb(0, 0, 0); fill: none;"/></g><g class="composite-shape"><path class="real" d=" M53,105 C53,91.19 64.19,80 78,80 C91.81,80 103,91.19 103,105 C103,118.81 91.81,130 78,130 C64.19,130 53,118.81 53,105 Z" style="stroke-width: 3; stroke: rgb(0, 0, 0); fill: rgba(255, 226, 194, 0.83);"/></g><g class="composite-shape"><path class="real" d=" M203,125 C203,111.19 214.19,100 228,100 C241.81,100 253,111.19 253,125 C253,138.81 241.81,150 228,150 C214.19,150 203,138.81 203,125 Z" style="stroke-width: 3; stroke: rgb(0, 0, 0); fill: rgba(255, 194, 194, 0.45); stroke-dasharray: 3.375, 4.02;"/></g><g class="composite-shape"><path class="real" d=" M140,215 C140,201.19 151.19,190 165,190 C178.81,190 190,201.19 190,215 C190,228.81 178.81,240 165,240 C151.19,240 140,228.81 140,215 Z" style="stroke-width: 3; stroke: rgb(0, 0, 0); fill: rgba(194, 255, 210, 0.45); stroke-dasharray: 9, 6;"/></g><g class="arrow-line"><path class="connection real" stroke-dasharray="" d="  M370,230 C377.3,146.8 389.3,163.8 420,180 C516.33,221.38 482.01,201.21 635.3,219.44" style="stroke: rgb(245, 166, 35); stroke-width: 3; fill: none;"/><g stroke="none" fill="rgba(245,166,35,1)" transform="matrix(-0.9927573419294455,-0.12013683883464747,0.12013683883464747,-0.9927573419294455,640,220.00000000000006)" style="stroke: none; fill: rgb(245, 166, 35); stroke-width: 3;"><path d=" M14.29,-6.86 L0,0 L14.29,6.86 Z"/></g></g><g class="arrow-line"><path class="connection real" stroke-dasharray="9 6" d="  M370,230 C388.3,23.8 391.3,153.8 400,190 C431.14,224.63 379.82,226.78 636.11,220.1" style="stroke: rgb(126, 211, 33); stroke-width: 3; fill: none;"/><g stroke="none" fill="rgba(126,211,33,1)" transform="matrix(-0.9996618784892434,0.026002474792935836,-0.026002474792935836,-0.9996618784892434,640,220.00000000000003)" style="stroke: none; fill: rgb(126, 211, 33); stroke-width: 3;"><path d=" M14.29,-6.86 L0,0 L14.29,6.86 Z"/></g></g><g/></g><g/><g/><g/></svg>
        <svg xmlns="http://www.w3.org/2000/svg" width="660" height="313.3999938964844" style="width:660px;height:313.3999938964844px;font-family:Asana-Math, Asana;background:transparent;"><g><g><g><g><g><g style="transform:matrix(1,0,0,1,339.8499755859375,57.29998779296875);"><path d="M345 437L329 437L350 549C366 635 394 673 440 673C470 673 497 658 512 634L522 638C527 654 537 685 545 705L550 720C534 727 503 733 480 733C469 733 453 730 445 726C421 715 339 654 316 630C294 608 282 578 271 521L256 442C215 422 195 414 170 405L165 383L246 383L237 327C207 132 170 -54 148 -123C130 -182 100 -213 64 -213C41 -213 30 -206 12 -184L-2 -188C-6 -211 -20 -259 -25 -268C-16 -273 -1 -276 10 -276C51 -276 105 -245 144 -198C215 -114 235 -18 319 383L423 383C427 402 434 425 440 439L436 446C407 439 408 437 345 437Z" stroke="rgb(0, 0, 0)" stroke-width="8" fill="rgb(0, 0, 0)" style="transform:matrix(0.017,0,0,-0.017,0,0);"></path></g><g style="transform:matrix(1,0,0,1,349.20001220703125,57.29998779296875);"><path d="M146 266C146 526 243 632 301 700L282 726C225 675 60 542 60 266C60 159 85 58 133 -32C168 -99 200 -138 282 -215L301 -194C255 -137 146 -15 146 266Z" stroke="rgb(0, 0, 0)" stroke-width="8" fill="rgb(0, 0, 0)" style="transform:matrix(0.017,0,0,-0.017,0,0);"></path></g><g style="transform:matrix(1,0,0,1,354.8499755859375,57.29998779296875);"><path d="M125 390L69 107C68 99 56 61 56 31C56 6 67 -9 86 -9C121 -9 156 11 234 74L265 99L255 117L210 86C181 66 161 56 150 56C141 56 136 64 136 76C136 102 150 183 179 328L192 390L299 390L310 440C272 436 238 434 200 434C216 528 227 577 245 631L234 646C214 634 187 622 156 610L131 440C87 419 61 408 43 403L41 390Z" stroke="rgb(0, 0, 0)" stroke-width="8" fill="rgb(0, 0, 0)" style="transform:matrix(0.017,0,0,-0.017,0,0);"></path></g><g style="transform:matrix(1,0,0,1,360.5,57.29998779296875);"><path d="M51 726L32 700C87 636 187 526 187 266C187 -10 83 -131 32 -194L51 -215C104 -165 273 -23 273 265C273 542 108 675 51 726Z" stroke="rgb(0, 0, 0)" stroke-width="8" fill="rgb(0, 0, 0)" style="transform:matrix(0.017,0,0,-0.017,0,0);"></path></g></g></g></g></g></g><g><g><text x="120.76251220703125" y="7.1999969482421875" style="white-space:pre;stroke:none;fill:rgb(0, 0, 0);font-size:25.95px;font-family:Arial, Helvetica, sans-serif;font-weight:400;font-style:normal;dominant-baseline:text-before-edge;text-decoration:none solid rgb(0, 0, 0);">DMV Real-time Walk-in Total Time</text></g></g><g><g><text x="362.42498779296875" y="277.1999816894531" style="white-space:pre;stroke:none;fill:rgb(0, 0, 0);font-size:25.95px;font-family:Arial, Helvetica, sans-serif;font-weight:400;font-style:normal;dominant-baseline:text-before-edge;text-decoration:none solid rgb(0, 0, 0);">Total Time Distribution</text></g></g><g><g><g><g><g><g style="transform:matrix(1,0,0,1,642.1250610351562,234.29998779296875);"><path d="M125 390L69 107C68 99 56 61 56 31C56 6 67 -9 86 -9C121 -9 156 11 234 74L265 99L255 117L210 86C181 66 161 56 150 56C141 56 136 64 136 76C136 102 150 183 179 328L192 390L299 390L310 440C272 436 238 434 200 434C216 528 227 577 245 631L234 646C214 634 187 622 156 610L131 440C87 419 61 408 43 403L41 390Z" stroke="rgb(0, 0, 0)" stroke-width="8" fill="rgb(0, 0, 0)" style="transform:matrix(0.017,0,0,-0.017,0,0);"></path></g></g></g></g></g></g><g><g><text x="329.125" y="90.70001220703125" style="white-space:pre;stroke:none;fill:rgb(0, 0, 0);font-size:15px;font-family:Arial, Helvetica, sans-serif;font-weight:400;font-style:normal;dominant-baseline:text-before-edge;text-decoration:none solid rgb(0, 0, 0);">1</text></g></g><g><g><text x="362.08123779296875" y="239.70001220703125" style="white-space:pre;stroke:none;fill:rgb(0, 0, 0);font-size:15px;font-family:Arial, Helvetica, sans-serif;font-weight:400;font-style:normal;dominant-baseline:text-before-edge;text-decoration:none solid rgb(0, 0, 0);">1m</text></g></g><g><g><text x="423.40625" y="240.70001220703125" style="white-space:pre;stroke:none;fill:rgb(0, 0, 0);font-size:15px;font-family:Arial, Helvetica, sans-serif;font-weight:400;font-style:normal;dominant-baseline:text-before-edge;text-decoration:none solid rgb(0, 0, 0);">10m</text></g></g><g><g><text x="531.0249633789062" y="239.70001220703125" style="white-space:pre;stroke:none;fill:rgb(0, 0, 0);font-size:15px;font-family:Arial, Helvetica, sans-serif;font-weight:400;font-style:normal;dominant-baseline:text-before-edge;text-decoration:none solid rgb(0, 0, 0);">60m+</text></g></g><g><g><g><g><g><g style="transform:matrix(1,0,0,1,63.3499755859375,299.8099938964844);"><path d="M221 334L338 334L470 330L489 375L485 382C404 378 344 376 266 376L229 376L276 646C308 647 391 650 413 650C475 650 516 641 517 626L525 537L549 537C552 601 559 651 570 689C549 691 519 692 501 692C498 692 487 692 463 691L343 690C334 689 160 691 150 691L105 692L102 664L156 662C180 661 191 653 191 635C191 621 187 589 182 559L95 55C91 37 79 30 35 23L30 -3L71 -2C102 -1 164 0 184 0L409 -3C423 -3 448 -2 481 -1L514 0L518 36C520 56 525 86 534 135L539 161L512 161L496 101C486 65 477 53 455 48C435 44 362 39 308 39C267 39 240 40 171 46Z" stroke="rgb(0, 0, 0)" stroke-width="8" fill="rgb(0, 0, 0)" style="transform:matrix(0.02941,0,0,-0.02941,0,0);"></path></g><g style="transform:matrix(1,0,0,1,81.2874755859375,299.8099938964844);"><path d="M88 -184C88 -184 182 -183 182 -183C182 -183 282 -184 282 -184L288 -178L288 -152L284 -147L246 -147C219 -147 197 -141 185 -131C176 -122 173 -108 173 -75L173 616C173 649 176 664 185 673C197 683 219 689 246 689L284 689L288 694L288 720L282 726L188 723L88 726C84 717 83 706 83 691C83 665 87 628 87 578L87 -44C87 -112 85 -140 79 -171Z" stroke="rgb(0, 0, 0)" stroke-width="8" fill="rgb(0, 0, 0)" style="transform:matrix(0.02941,0,0,-0.02941,0,0);"></path></g><g style="transform:matrix(1,0,0,1,91.04998779296875,299.8099938964844);"><path d="M390 646L463 646C541 646 577 641 580 629C583 621 585 602 584 592L580 528L608 528L635 692L544 691C456 690 388 689 353 689C316 689 252 690 166 691L71 692L53 528L82 528L97 588C102 610 109 626 115 633C121 640 159 646 196 646L308 646L222 125C206 34 204 31 164 28L113 25L109 -3L166 -2C206 -1 235 0 251 0C270 0 301 -1 340 -2L384 -3L387 25L328 28C302 29 292 37 292 58C292 67 293 74 296 93Z" stroke="rgb(0, 0, 0)" stroke-width="8" fill="rgb(0, 0, 0)" style="transform:matrix(0.02941,0,0,-0.02941,0,0);"></path></g><g><g><g><g style="transform:matrix(1,0,0,1,109.86248779296875,304.19951831054686);"><path d="M385 458C342 475 313 482 284 482C209 482 121 394 103 374C63 327 24 181 24 78C24 19 36 -11 60 -11C82 -11 101 -3 133 19C180 51 259 121 308 209L232 -205C227 -229 217 -249 205 -262L214 -276C245 -268 276 -262 300 -259C304 -205 310 -150 319 -100L405 356C416 417 422 443 432 474L418 480ZM118 59C104 59 96 80 96 113C96 209 139 359 181 409C193 424 222 433 254 433C282 433 303 427 351 406L330 311C301 174 160 59 118 59ZM954 473L947 482L879 465L869 414C854 336 829 268 798 221C739 130 661 59 621 59C613 59 608 68 608 85C608 99 610 112 615 137L672 408C675 424 677 438 677 451C677 470 668 482 654 482C634 482 596 461 522 408L494 388L501 368L533 389C561 407 572 412 581 412C590 412 598 403 598 392C598 388 597 378 596 374L533 77C531 68 529 44 529 30C529 7 544 -11 564 -11C627 -11 748 101 832 239L795 97C788 73 784 46 784 31C784 6 795 -9 814 -9C840 -9 876 12 974 85L964 103L938 86C914 70 888 59 877 59C869 59 864 66 864 76C864 112 939 416 954 473ZM1345 111L1321 94C1268 56 1220 36 1184 36C1137 36 1108 73 1108 133C1108 158 1111 185 1116 214C1133 218 1242 248 1267 259C1352 296 1391 342 1391 404C1391 451 1357 482 1307 482C1239 496 1129 423 1092 349C1062 299 1032 180 1032 113C1032 35 1076 -11 1148 -11C1205 -11 1261 17 1353 92ZM1130 274C1147 343 1167 386 1196 412C1214 428 1245 440 1269 440C1298 440 1317 420 1317 388C1317 344 1282 297 1230 272C1202 258 1166 247 1121 237ZM1897 473L1890 482L1822 465L1812 414C1797 336 1772 268 1741 221C1682 130 1604 59 1564 59C1556 59 1551 68 1551 85C1551 99 1553 112 1558 137L1615 408C1618 424 1620 438 1620 451C1620 470 1611 482 1597 482C1577 482 1539 461 1465 408L1437 388L1444 368L1476 389C1504 407 1515 412 1524 412C1533 412 1541 403 1541 392C1541 388 1540 378 1539 374L1476 77C1474 68 1472 44 1472 30C1472 7 1487 -11 1507 -11C1570 -11 1691 101 1775 239L1738 97C1731 73 1727 46 1727 31C1727 6 1738 -9 1757 -9C1783 -9 1819 12 1917 85L1907 103L1881 86C1857 70 1831 59 1820 59C1812 59 1807 66 1807 76C1807 112 1882 416 1897 473ZM2288 111L2264 94C2211 56 2163 36 2127 36C2080 36 2051 73 2051 133C2051 158 2054 185 2059 214C2076 218 2185 248 2210 259C2295 296 2334 342 2334 404C2334 451 2300 482 2250 482C2182 496 2072 423 2035 349C2005 299 1975 180 1975 113C1975 35 2019 -11 2091 -11C2148 -11 2204 17 2296 92ZM2073 274C2090 343 2110 386 2139 412C2157 428 2188 440 2212 440C2241 440 2260 420 2260 388C2260 344 2225 297 2173 272C2145 258 2109 247 2064 237ZM2831 722L2819 733C2767 707 2731 698 2659 691L2655 670L2703 670C2727 670 2737 663 2737 646C2737 638 2736 629 2735 622L2707 468C2677 477 2650 482 2625 482C2556 482 2462 410 2416 323C2385 265 2365 170 2365 86C2365 21 2380 -11 2409 -11C2436 -11 2473 6 2507 33C2561 77 2594 116 2661 217L2638 126C2627 82 2622 50 2622 24C2622 3 2631 -9 2648 -9C2665 -9 2689 3 2723 28L2804 88L2794 107L2750 76C2736 66 2720 59 2711 59C2703 59 2697 68 2697 82C2697 90 2698 99 2705 128ZM2462 59C2446 59 2437 73 2437 98C2437 224 2483 380 2532 418C2545 428 2564 433 2591 433C2635 433 2664 427 2697 410L2685 351C2648 171 2507 59 2462 59Z" stroke="rgb(0, 0, 0)" stroke-width="8" fill="rgb(0, 0, 0)" style="transform:matrix(0.020587,0,0,-0.020587,0,0);"></path></g></g></g></g><g style="transform:matrix(1,0,0,1,170.2125244140625,299.8099938964844);"><path d="M245 -184L254 -171C248 -140 246 -112 246 -44L246 578C246 628 250 665 250 691C250 706 249 717 245 726L51 726L45 720L45 694L49 689L87 689C114 689 136 683 148 673C157 664 160 649 160 616L160 -75C160 -108 157 -122 148 -131C136 -141 114 -147 87 -147L49 -147L45 -152L45 -178L51 -184Z" stroke="rgb(0, 0, 0)" stroke-width="8" fill="rgb(0, 0, 0)" style="transform:matrix(0.02941,0,0,-0.02941,0,0);"></path></g></g></g></g><text x="179.9749755859375" y="276.8000183105469" style="white-space:pre;stroke:none;fill:rgb(0, 0, 0);font-size:25.95px;font-family:Arial, Helvetica, sans-serif;font-weight:400;font-style:normal;dominant-baseline:text-before-edge;text-decoration:none solid rgb(0, 0, 0);"> Map</text></g></g><g><g><g><g><g><g style="transform:matrix(1,0,0,1,62.90625,110.79998779296875);"><path d="M418 -3L418 27L366 30C311 33 301 44 301 96L301 700L60 598L67 548L217 614L217 96C217 44 206 33 152 30L96 27L96 -3C250 0 250 0 261 0C292 0 402 -3 418 -3ZM762 689C607 689 528 566 528 324C528 207 549 106 584 57C619 8 675 -20 737 -20C888 -20 964 110 964 366C964 585 899 689 762 689ZM744 654C841 654 880 556 880 316C880 103 842 15 750 15C653 15 612 116 612 360C612 571 649 654 744 654ZM1728 103L1702 86C1673 67 1651 56 1641 56C1634 56 1628 65 1628 76C1628 86 1630 95 1635 116L1710 413C1714 430 1717 446 1717 454C1717 471 1707 482 1691 482C1662 482 1624 464 1563 421C1500 376 1465 341 1416 272L1446 409C1450 429 1453 444 1453 451C1453 470 1443 482 1427 482C1397 482 1351 460 1296 418C1252 384 1232 363 1167 275L1200 408C1204 424 1206 439 1206 451C1206 470 1197 482 1183 482C1162 482 1124 461 1050 408L1022 388L1029 368C1066 391 1101 414 1108 414C1119 414 1126 404 1126 389C1126 338 1085 145 1044 2L1047 -9L1115 6L1137 108C1161 219 1188 278 1243 338C1285 384 1330 414 1358 414C1365 414 1369 406 1369 393C1369 358 1347 244 1306 69L1290 2L1295 -9L1364 6L1385 113C1401 194 1435 269 1479 318C1534 379 1584 414 1616 414C1624 414 1629 405 1629 389C1629 365 1626 351 1604 264C1564 105 1548 84 1548 31C1548 6 1559 -9 1578 -9C1604 -9 1640 12 1738 85Z" stroke="rgb(0, 0, 0)" stroke-width="8" fill="rgb(0, 0, 0)" style="transform:matrix(0.017,0,0,-0.017,0,0);"></path></g></g></g></g></g></g><g><g><g><g><g><g style="transform:matrix(1,0,0,1,212.90625,130.79998779296875);"><path d="M280 181L280 106C280 46 269 32 220 30L158 27L158 -3C291 0 291 0 315 0C339 0 339 0 472 -3L472 27L424 30C375 33 364 46 364 106L364 181C423 181 444 180 472 177L472 248L364 245L365 697L285 667L2 204L2 181ZM280 245L65 245L280 597ZM958 253C958 366 877 446 763 446C715 446 679 443 626 396L626 605L931 604L931 689L574 690L574 322L594 316C641 363 668 377 717 377C813 377 873 309 873 201C873 90 809 25 700 25C646 25 596 43 582 69L536 151L512 137C535 80 547 48 561 4C589 -11 629 -20 672 -20C800 -20 958 89 958 253ZM1728 103L1702 86C1673 67 1651 56 1641 56C1634 56 1628 65 1628 76C1628 86 1630 95 1635 116L1710 413C1714 430 1717 446 1717 454C1717 471 1707 482 1691 482C1662 482 1624 464 1563 421C1500 376 1465 341 1416 272L1446 409C1450 429 1453 444 1453 451C1453 470 1443 482 1427 482C1397 482 1351 460 1296 418C1252 384 1232 363 1167 275L1200 408C1204 424 1206 439 1206 451C1206 470 1197 482 1183 482C1162 482 1124 461 1050 408L1022 388L1029 368C1066 391 1101 414 1108 414C1119 414 1126 404 1126 389C1126 338 1085 145 1044 2L1047 -9L1115 6L1137 108C1161 219 1188 278 1243 338C1285 384 1330 414 1358 414C1365 414 1369 406 1369 393C1369 358 1347 244 1306 69L1290 2L1295 -9L1364 6L1385 113C1401 194 1435 269 1479 318C1534 379 1584 414 1616 414C1624 414 1629 405 1629 389C1629 365 1626 351 1604 264C1564 105 1548 84 1548 31C1548 6 1559 -9 1578 -9C1604 -9 1640 12 1738 85Z" stroke="rgb(0, 0, 0)" stroke-width="8" fill="rgb(0, 0, 0)" style="transform:matrix(0.017,0,0,-0.017,0,0);"></path></g></g></g></g></g></g><g><g><g><g><g><g style="transform:matrix(1,0,0,1,154.1500244140625,220.79998779296875);"><path d="M16 23L16 -3C203 -3 203 0 239 0C275 0 275 -3 468 -3L468 82C353 77 307 81 122 77L304 270C401 373 431 428 431 503C431 618 353 689 226 689C154 689 105 669 56 619L39 483L68 483L81 529C97 587 133 612 200 612C286 612 341 558 341 473C341 398 299 324 186 204ZM1229 103L1203 86C1174 67 1152 56 1142 56C1135 56 1129 65 1129 76C1129 86 1131 95 1136 116L1211 413C1215 430 1218 446 1218 454C1218 471 1208 482 1192 482C1163 482 1125 464 1064 421C1001 376 966 341 917 272L947 409C951 429 954 444 954 451C954 470 944 482 928 482C898 482 852 460 797 418C753 384 733 363 668 275L701 408C705 424 707 439 707 451C707 470 698 482 684 482C663 482 625 461 551 408L523 388L530 368C567 391 602 414 609 414C620 414 627 404 627 389C627 338 586 145 545 2L548 -9L616 6L638 108C662 219 689 278 744 338C786 384 831 414 859 414C866 414 870 406 870 393C870 358 848 244 807 69L791 2L796 -9L865 6L886 113C902 194 936 269 980 318C1035 379 1085 414 1117 414C1125 414 1130 405 1130 389C1130 365 1127 351 1105 264C1065 105 1049 84 1049 31C1049 6 1060 -9 1079 -9C1105 -9 1141 12 1239 85Z" stroke="rgb(0, 0, 0)" stroke-width="8" fill="rgb(0, 0, 0)" style="transform:matrix(0.017,0,0,-0.017,0,0);"></path></g></g></g></g></g></g></svg>
</svg>
