<svg xmlns="http://www.w3.org/2000/svg" width="662" height="302" style="
        width:662px;
        height:302px;
        background: transparent;
        fill: none;
">
        <svg xmlns="http://www.w3.org/2000/svg"><g><defs><pattern id=".7690493904671838" width="10" height="10" patternUnits="userSpaceOnUse"><path d="M 10 0 L 0 0 0 10" fill="none" stroke="lightgray" stroke-width="0.5"/></pattern></defs><rect width="100%" height="100%" fill="url(#.7690493904671838)" stroke="lightgray" stroke-width="0.5"/></g></svg>
        <svg xmlns="http://www.w3.org/2000/svg" class="role-diagram-draw-area"><g class="shapes-region" style="stroke: black; fill: none;"><g class="composite-shape"><path class="real" d=" M0,0 L660,0 L660,300 L0,300 Z" style="stroke-width: 1; stroke: rgb(0, 0, 0); fill: none;"/></g><g class="composite-shape"><path class="real" d=" M280,70 C280,53.43 293.43,40 310,40 C326.57,40 340,53.43 340,70 C340,86.57 326.57,100 310,100 C293.43,100 280,86.57 280,70 Z" style="stroke-width: 1; stroke: rgb(0, 0, 0); fill: none;"/></g><g class="arrow-line"><path class="connection real" stroke-dasharray="" d="  M90,250 L110,250" style="stroke: rgb(0, 0, 0); stroke-width: 1; fill: none;"/></g><g class="arrow-line"><path class="connection real" stroke-dasharray="" d="  M90,240 L90,260" style="stroke: rgb(0, 0, 0); stroke-width: 1; fill: none;"/></g><g class="arrow-line"><path class="connection real" stroke-dasharray="" d="  M110,240 L110,260" style="stroke: rgb(0, 0, 0); stroke-width: 1; fill: none;"/></g><g class="composite-shape"><path class="real" d=" M210,75 C210,66.72 216.72,60 225,60 C233.28,60 240,66.72 240,75 C240,83.28 233.28,90 225,90 C216.72,90 210,83.28 210,75 Z" style="stroke-width: 1; stroke: rgb(0, 0, 0); fill: rgba(245, 166, 35, 0.18);"/><path class="real" d=" M218.4,69.9 C218.4,69.07 219.07,68.4 219.9,68.4 C220.73,68.4 221.4,69.07 221.4,69.9 C221.4,70.73 220.73,71.4 219.9,71.4 C219.07,71.4 218.4,70.73 218.4,69.9 Z" style="stroke-width: 1; stroke: rgb(0, 0, 0); fill: rgba(245, 166, 35, 0.18);"/><path class="real" d=" M228.6,69.9 C228.6,69.07 229.27,68.4 230.1,68.4 C230.93,68.4 231.6,69.07 231.6,69.9 C231.6,70.73 230.93,71.4 230.1,71.4 C229.27,71.4 228.6,70.73 228.6,69.9 Z" style="stroke-width: 1; stroke: rgb(0, 0, 0); fill: rgba(245, 166, 35, 0.18);"/><path class="real" d=" M217.5,81 C222.5,85 227.5,85 232.5,81" style="stroke-width: 1; stroke: rgb(0, 0, 0); fill: none;"/></g><g class="arrow-line"><path class="connection real" stroke-dasharray="" d="  M250,70 L268,70" style="stroke: rgb(0, 0, 0); stroke-width: 1; fill: none;"/><g stroke="none" fill="#000" transform="matrix(-1,1.2246467991473532e-16,-1.2246467991473532e-16,-1,270,70)" style="stroke: none; fill: rgb(0, 0, 0); stroke-width: 1;"><path d=" M8.93,-4.29 L0,0 L8.93,4.29 Z"/></g></g><g class="arrow-line"><path class="connection real" stroke-dasharray="" d="  M192,210 L270,210" style="stroke: rgb(0, 0, 0); stroke-width: 1; fill: none;"/><g stroke="none" fill="#000" transform="matrix(1,0,0,1,190,210)" style="stroke: none; fill: rgb(0, 0, 0); stroke-width: 1;"><path d=" M8.93,-4.29 L0,0 L8.93,4.29 Z"/></g></g><g class="arrow-line"><path class="connection real" stroke-dasharray="" d="  M270,70 L270,208" style="stroke: rgb(0, 0, 0); stroke-width: 1; fill: none;"/><g stroke="none" fill="#000" transform="matrix(-1.8369701987210297e-16,-1,1,-1.8369701987210297e-16,270,210)" style="stroke: none; fill: rgb(0, 0, 0); stroke-width: 1;"><path d=" M8.93,-4.29 L0,0 L8.93,4.29 Z"/></g></g><g class="composite-shape"><path class="real" d=" M530,155 C530,146.72 536.72,140 545,140 C553.28,140 560,146.72 560,155 C560,163.28 553.28,170 545,170 C536.72,170 530,163.28 530,155 Z" style="stroke-width: 1; stroke: rgb(0, 0, 0); fill: rgba(65, 117, 5, 0.21);"/><path class="real" d=" M538.4,149.9 C538.4,149.07 539.07,148.4 539.9,148.4 C540.73,148.4 541.4,149.07 541.4,149.9 C541.4,150.73 540.73,151.4 539.9,151.4 C539.07,151.4 538.4,150.73 538.4,149.9 Z" style="stroke-width: 1; stroke: rgb(0, 0, 0); fill: rgba(65, 117, 5, 0.21);"/><path class="real" d=" M548.6,149.9 C548.6,149.07 549.27,148.4 550.1,148.4 C550.93,148.4 551.6,149.07 551.6,149.9 C551.6,150.73 550.93,151.4 550.1,151.4 C549.27,151.4 548.6,150.73 548.6,149.9 Z" style="stroke-width: 1; stroke: rgb(0, 0, 0); fill: rgba(65, 117, 5, 0.21);"/><path class="real" d=" M537.5,161 C542.5,165 547.5,165 552.5,161" style="stroke-width: 1; stroke: rgb(0, 0, 0); fill: none;"/></g><g class="arrow-line"><path class="connection real" stroke-dasharray="" d="  M451.4,110 L450.03,188" style="stroke: rgb(0, 0, 0); stroke-width: 1; fill: none;"/><g stroke="none" fill="#000" transform="matrix(0.01745240643728313,-0.9998476951563913,0.9998476951563913,0.01745240643728313,450,189.99999999999994)" style="stroke: none; fill: rgb(0, 0, 0); stroke-width: 1;"><path d=" M8.93,-4.29 L0,0 L8.93,4.29 Z"/></g></g><g class="arrow-line"><path class="connection real" stroke-dasharray="" d="  M547.86,115.36 L547.86,133.36" style="stroke: rgb(0, 0, 0); stroke-width: 1; fill: none;"/><g stroke="none" fill="#000" transform="matrix(6.123233995736766e-17,1,-1,6.123233995736766e-17,547.8635068248745,113.35539209451673)" style="stroke: none; fill: rgb(0, 0, 0); stroke-width: 1;"><path d=" M8.93,-4.29 L0,0 L8.93,4.29 Z"/></g></g><g class="arrow-line"><path class="connection real" stroke-dasharray="" d="  M543.59,110.97 L453.4,110.02" style="stroke: rgb(0, 0, 0); stroke-width: 1; fill: none;"/><g stroke="none" fill="#000" transform="matrix(0.9999451693655121,0.010471784116246673,-0.010471784116246673,0.9999451693655121,451.3958410886103,110)" style="stroke: none; fill: rgb(0, 0, 0); stroke-width: 1;"><path d=" M8.93,-4.29 L0,0 L8.93,4.29 Z"/></g></g><g class="composite-shape"><path class="real" d=" M150,215 C150,206.72 156.72,200 165,200 C173.28,200 180,206.72 180,215 C180,223.28 173.28,230 165,230 C156.72,230 150,223.28 150,215 Z" style="stroke-width: 1; stroke: rgb(0, 0, 0); fill: rgba(245, 166, 35, 0.18);"/><path class="real" d=" M158.4,209.9 C158.4,209.07 159.07,208.4 159.9,208.4 C160.73,208.4 161.4,209.07 161.4,209.9 C161.4,210.73 160.73,211.4 159.9,211.4 C159.07,211.4 158.4,210.73 158.4,209.9 Z" style="stroke-width: 1; stroke: rgb(0, 0, 0); fill: rgba(245, 166, 35, 0.18);"/><path class="real" d=" M168.6,209.9 C168.6,209.07 169.27,208.4 170.1,208.4 C170.93,208.4 171.6,209.07 171.6,209.9 C171.6,210.73 170.93,211.4 170.1,211.4 C169.27,211.4 168.6,210.73 168.6,209.9 Z" style="stroke-width: 1; stroke: rgb(0, 0, 0); fill: rgba(245, 166, 35, 0.18);"/><path class="real" d=" M157.5,221 C162.5,225 167.5,225 172.5,221" style="stroke-width: 1; stroke: rgb(0, 0, 0); fill: none;"/></g><g class="composite-shape"><path class="real" d=" M430,215 C430,206.72 436.72,200 445,200 C453.28,200 460,206.72 460,215 C460,223.28 453.28,230 445,230 C436.72,230 430,223.28 430,215 Z" style="stroke-width: 1; stroke: rgb(0, 0, 0); fill: rgba(65, 117, 5, 0.21);"/><path class="real" d=" M438.4,209.9 C438.4,209.07 439.07,208.4 439.9,208.4 C440.73,208.4 441.4,209.07 441.4,209.9 C441.4,210.73 440.73,211.4 439.9,211.4 C439.07,211.4 438.4,210.73 438.4,209.9 Z" style="stroke-width: 1; stroke: rgb(0, 0, 0); fill: rgba(65, 117, 5, 0.21);"/><path class="real" d=" M448.6,209.9 C448.6,209.07 449.27,208.4 450.1,208.4 C450.93,208.4 451.6,209.07 451.6,209.9 C451.6,210.73 450.93,211.4 450.1,211.4 C449.27,211.4 448.6,210.73 448.6,209.9 Z" style="stroke-width: 1; stroke: rgb(0, 0, 0); fill: rgba(65, 117, 5, 0.21);"/><path class="real" d=" M437.5,221 C442.5,225 447.5,225 452.5,221" style="stroke-width: 1; stroke: rgb(0, 0, 0); fill: none;"/></g><g class="grouped-shape"><g class="composite-shape ignore-highlight"><path class="real" d=" M520,70 C520,53.43 533.43,40 550,40 C566.57,40 580,53.43 580,70 C580,86.57 566.57,100 550,100 C533.43,100 520,86.57 520,70 Z" style="stroke-width: 1; stroke: rgb(0, 0, 0); fill: none;"/></g></g><g/></g><g/><g/><!-- react-empty: 64181 --></svg>
        <svg xmlns="http://www.w3.org/2000/svg" width="660" height="300" style="width:660px;height:300px;font-family:Asana-Math, Asana;background:transparent;"><g><g><text x="463.01251220703125" y="0.600006103515625" style="white-space:pre;stroke:none;fill:rgb(0, 0, 0);font-size:25.92px;font-family:Arial, Helvetica, sans-serif;font-weight:400;font-style:normal;dominant-baseline:text-before-edge;text-decoration:none solid rgb(0, 0, 0);">Domino&#x27;s Model</text></g></g><g><g><text x="63.9749755859375" y="269.0000305175781" style="white-space:pre;stroke:none;fill:rgb(0, 0, 0);font-size:18px;font-family:Arial, Helvetica, sans-serif;font-weight:400;font-style:normal;dominant-baseline:text-before-edge;text-decoration:none solid rgb(0, 0, 0);">2 minutes</text></g></g><g><g><text x="76.4437255859375" y="42.20001220703125" style="white-space:pre;stroke:none;fill:rgb(0, 0, 0);font-size:15px;font-family:Arial, Helvetica, sans-serif;font-weight:400;font-style:normal;dominant-baseline:text-before-edge;text-decoration:none solid rgb(0, 0, 0);">ORDER [pepperoni, cheese]</text></g></g><g><g><text x="61.9375" y="180.20001220703125" style="white-space:pre;stroke:none;fill:rgb(0, 0, 0);font-size:15px;font-family:Arial, Helvetica, sans-serif;font-weight:400;font-style:normal;dominant-baseline:text-before-edge;text-decoration:none solid rgb(0, 0, 0);">DELIVER [pepperoni, cheese]</text></g></g><g><g><text x="153.39373779296875" y="112.20001220703125" style="white-space:pre;stroke:none;fill:rgb(0, 0, 0);font-size:15px;font-family:Arial, Helvetica, sans-serif;font-weight:400;font-style:normal;dominant-baseline:text-before-edge;text-decoration:none solid rgb(0, 0, 0);">pizza making ...</text></g></g><g><g><text x="288.7437744140625" y="52.399993896484375" style="white-space:pre;stroke:none;fill:rgb(0, 0, 0);font-size:15px;font-family:Arial, Helvetica, sans-serif;font-weight:400;font-style:normal;dominant-baseline:text-before-edge;text-decoration:none solid rgb(0, 0, 0);">PIZZA</text></g><g><text x="288.7437744140625" y="70" style="white-space:pre;stroke:none;fill:rgb(0, 0, 0);font-size:15px;font-family:Arial, Helvetica, sans-serif;font-weight:400;font-style:normal;dominant-baseline:text-before-edge;text-decoration:none solid rgb(0, 0, 0);">SHOP</text></g></g><g style="transform:matrix(6.123233995736766e-17,1,-1,6.123233995736766e-17,749.5000505447388,-388.50002574920654);"><g><text x="511.47503662109375" y="171.70001220703125" style="white-space:pre;stroke:none;fill:rgb(0, 0, 0);font-size:15px;font-family:Arial, Helvetica, sans-serif;font-weight:400;font-style:normal;dominant-baseline:text-before-edge;text-decoration:none solid rgb(0, 0, 0);">ORDER [cheese]</text></g></g><g style="transform:matrix(6.123233995736766e-17,1,-1,6.123233995736766e-17,691.3874826431274,-316.11249446868896);"><g><text x="451.64373779296875" y="178.83749389648438" style="white-space:pre;stroke:none;fill:rgb(0, 0, 0);font-size:15px;font-family:Arial, Helvetica, sans-serif;font-weight:400;font-style:normal;dominant-baseline:text-before-edge;text-decoration:none solid rgb(0, 0, 0);">... pizza making</text></g></g><g style="transform:matrix(6.123233995736766e-17,1,-1,6.123233995736766e-17,663.8624696731567,-278.58748149871826);"><g><text x="408.6937255859375" y="183.83749389648438" style="white-space:pre;stroke:none;fill:rgb(0, 0, 0);font-size:15px;font-family:Arial, Helvetica, sans-serif;font-weight:400;font-style:normal;dominant-baseline:text-before-edge;text-decoration:none solid rgb(0, 0, 0);">DELIVER [cheese]</text></g></g><g><g><text x="528.7437133789062" y="52.399993896484375" style="white-space:pre;stroke:none;fill:rgb(0, 0, 0);font-size:15px;font-family:Arial, Helvetica, sans-serif;font-weight:400;font-style:normal;dominant-baseline:text-before-edge;text-decoration:none solid rgb(0, 0, 0);">PIZZA</text></g><g><text x="528.7437133789062" y="70" style="white-space:pre;stroke:none;fill:rgb(0, 0, 0);font-size:15px;font-family:Arial, Helvetica, sans-serif;font-weight:400;font-style:normal;dominant-baseline:text-before-edge;text-decoration:none solid rgb(0, 0, 0);">SHOP</text></g></g><g><g><text x="5.01873779296875" y="11" style="white-space:pre;stroke:none;fill:rgb(0, 0, 0);font-size:21.6px;font-family:Arial, Helvetica, sans-serif;font-weight:400;font-style:normal;dominant-baseline:text-before-edge;text-decoration:none solid rgb(0, 0, 0);">Alice&#x27;s Order</text></g></g><g><g><text x="533.7124633789062" y="265.0000305175781" style="white-space:pre;stroke:none;fill:rgb(0, 0, 0);font-size:21.6px;font-family:Arial, Helvetica, sans-serif;font-weight:400;font-style:normal;dominant-baseline:text-before-edge;text-decoration:none solid rgb(0, 0, 0);">Bob&#x27;s Order</text></g></g></svg>
</svg>
