<svg xmlns="http://www.w3.org/2000/svg" width="662" height="302" style="
        width:662px;
        height:302px;
        background: transparent;
        fill: none;
">
        <svg xmlns="http://www.w3.org/2000/svg"><g><defs><pattern id=".5852839183994458" width="10" height="10" patternUnits="userSpaceOnUse"><path d="M 10 0 L 0 0 0 10" fill="none" stroke="lightgray" stroke-width="0.5"/></pattern></defs><rect width="100%" height="100%" fill="url(#.5852839183994458)" stroke="lightgray" stroke-width="0.5"/></g></svg>
        <svg xmlns="http://www.w3.org/2000/svg" class="role-diagram-draw-area"><g class="shapes-region" style="stroke: black; fill: none;"><g class="composite-shape"><path class="real" d=" M0,0 L660,0 L660,300 L0,300 Z" style="stroke-width: 1; stroke: rgb(0, 0, 0); fill: none;"/></g><g class="composite-shape"><path class="real" d=" M280,95 C280,70.15 300.15,50 325,50 C349.85,50 370,70.15 370,95 C370,119.85 349.85,140 325,140 C300.15,140 280,119.85 280,95 Z" style="stroke-width: 1; stroke: rgb(0, 0, 0); fill: none;"/></g><g class="arrow-line"><path class="connection real" stroke-dasharray="" d="  M90,250 L110,250" style="stroke: rgb(0, 0, 0); stroke-width: 1; fill: none;"/></g><g class="arrow-line"><path class="connection real" stroke-dasharray="" d="  M90,240 L90,260" style="stroke: rgb(0, 0, 0); stroke-width: 1; fill: none;"/></g><g class="arrow-line"><path class="connection real" stroke-dasharray="" d="  M110,240 L110,260" style="stroke: rgb(0, 0, 0); stroke-width: 1; fill: none;"/></g><g class="composite-shape"><path class="real" d=" M210,75 C210,66.72 216.72,60 225,60 C233.28,60 240,66.72 240,75 C240,83.28 233.28,90 225,90 C216.72,90 210,83.28 210,75 Z" style="stroke-width: 1; stroke: rgb(0, 0, 0); fill: rgba(245, 166, 35, 0.18);"/><path class="real" d=" M218.4,69.9 C218.4,69.07 219.07,68.4 219.9,68.4 C220.73,68.4 221.4,69.07 221.4,69.9 C221.4,70.73 220.73,71.4 219.9,71.4 C219.07,71.4 218.4,70.73 218.4,69.9 Z" style="stroke-width: 1; stroke: rgb(0, 0, 0); fill: rgba(245, 166, 35, 0.18);"/><path class="real" d=" M228.6,69.9 C228.6,69.07 229.27,68.4 230.1,68.4 C230.93,68.4 231.6,69.07 231.6,69.9 C231.6,70.73 230.93,71.4 230.1,71.4 C229.27,71.4 228.6,70.73 228.6,69.9 Z" style="stroke-width: 1; stroke: rgb(0, 0, 0); fill: rgba(245, 166, 35, 0.18);"/><path class="real" d=" M217.5,81 C222.5,85 227.5,85 232.5,81" style="stroke-width: 1; stroke: rgb(0, 0, 0); fill: none;"/></g><g class="arrow-line"><path class="connection real" stroke-dasharray="" d="  M250,70 L268,70" style="stroke: rgb(0, 0, 0); stroke-width: 1; fill: none;"/><g stroke="none" fill="#000" transform="matrix(-1,1.2246467991473532e-16,-1.2246467991473532e-16,-1,270,70)" style="stroke: none; fill: rgb(0, 0, 0); stroke-width: 1;"><path d=" M8.93,-4.29 L0,0 L8.93,4.29 Z"/></g></g><g class="arrow-line"><path class="connection real" stroke-dasharray="" d="  M72,208.02 L270,210" style="stroke: rgb(0, 0, 0); stroke-width: 1; fill: none;"/><g stroke="none" fill="#000" transform="matrix(0.9999505153082835,0.009948212638374357,-0.009948212638374357,0.9999505153082835,70,208)" style="stroke: none; fill: rgb(0, 0, 0); stroke-width: 1;"><path d=" M8.93,-4.29 L0,0 L8.93,4.29 Z"/></g></g><g class="arrow-line"><path class="connection real" stroke-dasharray="" d="  M270,70 L270,208" style="stroke: rgb(0, 0, 0); stroke-width: 1; fill: none;"/><g stroke="none" fill="#000" transform="matrix(-1.8369701987210297e-16,-1,1,-1.8369701987210297e-16,270,210)" style="stroke: none; fill: rgb(0, 0, 0); stroke-width: 1;"><path d=" M8.93,-4.29 L0,0 L8.93,4.29 Z"/></g></g><g class="composite-shape"><path class="real" d=" M420,125 C420,116.72 426.72,110 435,110 C443.28,110 450,116.72 450,125 C450,133.28 443.28,140 435,140 C426.72,140 420,133.28 420,125 Z" style="stroke-width: 1; stroke: rgb(0, 0, 0); fill: rgba(65, 117, 5, 0.21);"/><path class="real" d=" M428.4,119.9 C428.4,119.07 429.07,118.4 429.9,118.4 C430.73,118.4 431.4,119.07 431.4,119.9 C431.4,120.73 430.73,121.4 429.9,121.4 C429.07,121.4 428.4,120.73 428.4,119.9 Z" style="stroke-width: 1; stroke: rgb(0, 0, 0); fill: rgba(65, 117, 5, 0.21);"/><path class="real" d=" M438.6,119.9 C438.6,119.07 439.27,118.4 440.1,118.4 C440.93,118.4 441.6,119.07 441.6,119.9 C441.6,120.73 440.93,121.4 440.1,121.4 C439.27,121.4 438.6,120.73 438.6,119.9 Z" style="stroke-width: 1; stroke: rgb(0, 0, 0); fill: rgba(65, 117, 5, 0.21);"/><path class="real" d=" M427.5,131 C432.5,135 437.5,135 442.5,131" style="stroke-width: 1; stroke: rgb(0, 0, 0); fill: none;"/></g><g class="arrow-line"><path class="connection real" stroke-dasharray="" d="  M340,160 L468.47,268.71" style="stroke: rgb(0, 0, 0); stroke-width: 1; fill: none;"/><g stroke="none" fill="#000" transform="matrix(-0.7633452280654696,-0.645990760607051,0.645990760607051,-0.7633452280654696,470,270)" style="stroke: none; fill: rgb(0, 0, 0); stroke-width: 1;"><path d=" M8.93,-4.29 L0,0 L8.93,4.29 Z"/></g></g><g class="arrow-line"><path class="connection real" stroke-dasharray="" d="  M401.41,91.41 L420,110" style="stroke: rgb(0, 0, 0); stroke-width: 1; fill: none;"/><g stroke="none" fill="#000" transform="matrix(0.7071067811865476,0.7071067811865475,-0.7071067811865475,0.7071067811865476,400,90)" style="stroke: none; fill: rgb(0, 0, 0); stroke-width: 1;"><path d=" M8.93,-4.29 L0,0 L8.93,4.29 Z"/></g></g><g class="arrow-line"><path class="connection real" stroke-dasharray="" d="  M400,90 L341.3,158.48" style="stroke: rgb(0, 0, 0); stroke-width: 1; fill: none;"/><g stroke="none" fill="#000" transform="matrix(0.650774217265851,-0.7592713073348807,0.7592713073348807,0.650774217265851,340,160)" style="stroke: none; fill: rgb(0, 0, 0); stroke-width: 1;"><path d=" M8.93,-4.29 L0,0 L8.93,4.29 Z"/></g></g><g class="composite-shape"><path class="real" d=" M30,205 C30,196.72 36.72,190 45,190 C53.28,190 60,196.72 60,205 C60,213.28 53.28,220 45,220 C36.72,220 30,213.28 30,205 Z" style="stroke-width: 1; stroke: rgb(0, 0, 0); fill: rgba(245, 166, 35, 0.18);"/><path class="real" d=" M38.4,199.9 C38.4,199.07 39.07,198.4 39.9,198.4 C40.73,198.4 41.4,199.07 41.4,199.9 C41.4,200.73 40.73,201.4 39.9,201.4 C39.07,201.4 38.4,200.73 38.4,199.9 Z" style="stroke-width: 1; stroke: rgb(0, 0, 0); fill: rgba(245, 166, 35, 0.18);"/><path class="real" d=" M48.6,199.9 C48.6,199.07 49.27,198.4 50.1,198.4 C50.93,198.4 51.6,199.07 51.6,199.9 C51.6,200.73 50.93,201.4 50.1,201.4 C49.27,201.4 48.6,200.73 48.6,199.9 Z" style="stroke-width: 1; stroke: rgb(0, 0, 0); fill: rgba(245, 166, 35, 0.18);"/><path class="real" d=" M37.5,211 C42.5,215 47.5,215 52.5,211" style="stroke-width: 1; stroke: rgb(0, 0, 0); fill: none;"/></g><g class="composite-shape"><path class="real" d=" M480,275 C480,266.72 486.72,260 495,260 C503.28,260 510,266.72 510,275 C510,283.28 503.28,290 495,290 C486.72,290 480,283.28 480,275 Z" style="stroke-width: 1; stroke: rgb(0, 0, 0); fill: rgba(65, 117, 5, 0.21);"/><path class="real" d=" M488.4,269.9 C488.4,269.07 489.07,268.4 489.9,268.4 C490.73,268.4 491.4,269.07 491.4,269.9 C491.4,270.73 490.73,271.4 489.9,271.4 C489.07,271.4 488.4,270.73 488.4,269.9 Z" style="stroke-width: 1; stroke: rgb(0, 0, 0); fill: rgba(65, 117, 5, 0.21);"/><path class="real" d=" M498.6,269.9 C498.6,269.07 499.27,268.4 500.1,268.4 C500.93,268.4 501.6,269.07 501.6,269.9 C501.6,270.73 500.93,271.4 500.1,271.4 C499.27,271.4 498.6,270.73 498.6,269.9 Z" style="stroke-width: 1; stroke: rgb(0, 0, 0); fill: rgba(65, 117, 5, 0.21);"/><path class="real" d=" M487.5,281 C492.5,285 497.5,285 502.5,281" style="stroke-width: 1; stroke: rgb(0, 0, 0); fill: none;"/></g><g/></g><g/><g/><!-- react-empty: 63984 --></svg>
        <svg xmlns="http://www.w3.org/2000/svg" width="660" height="300" style="width:660px;height:300px;font-family:Asana-Math, Asana;background:transparent;"><g><g><text x="472.1312255859375" y="0.600006103515625" style="white-space:pre;stroke:none;fill:rgb(0, 0, 0);font-size:25.92px;font-family:Arial, Helvetica, sans-serif;font-weight:400;font-style:normal;dominant-baseline:text-before-edge;text-decoration:none solid rgb(0, 0, 0);">Big Pizza Shop</text></g></g><g><g><text x="63.9749755859375" y="269.00001525878906" style="white-space:pre;stroke:none;fill:rgb(0, 0, 0);font-size:18px;font-family:Arial, Helvetica, sans-serif;font-weight:400;font-style:normal;dominant-baseline:text-before-edge;text-decoration:none solid rgb(0, 0, 0);">2 minutes</text></g></g><g><g><text x="76.4437255859375" y="42.19999694824219" style="white-space:pre;stroke:none;fill:rgb(0, 0, 0);font-size:15px;font-family:Arial, Helvetica, sans-serif;font-weight:400;font-style:normal;dominant-baseline:text-before-edge;text-decoration:none solid rgb(0, 0, 0);">ORDER [pepperoni, cheese]</text></g></g><g><g><text x="67.9375" y="180.1999969482422" style="white-space:pre;stroke:none;fill:rgb(0, 0, 0);font-size:15px;font-family:Arial, Helvetica, sans-serif;font-weight:400;font-style:normal;dominant-baseline:text-before-edge;text-decoration:none solid rgb(0, 0, 0);">DELIVER [pepperoni, cheese]</text></g></g><g><g><text x="153.39373779296875" y="112.19999694824219" style="white-space:pre;stroke:none;fill:rgb(0, 0, 0);font-size:15px;font-family:Arial, Helvetica, sans-serif;font-weight:400;font-style:normal;dominant-baseline:text-before-edge;text-decoration:none solid rgb(0, 0, 0);">pizza making ...</text></g></g><g style="transform:matrix(0.766044443118978,0.6427876096865393,-0.6427876096865393,0.766044443118978,189.88945264214976,-272.0169768419189);"><g><text x="411.0999755859375" y="116.05000305175781" style="white-space:pre;stroke:none;fill:rgb(0, 0, 0);font-size:15px;font-family:Arial, Helvetica, sans-serif;font-weight:400;font-style:normal;dominant-baseline:text-before-edge;text-decoration:none solid rgb(0, 0, 0);">ORDER [cheese]</text></g></g><g style="transform:matrix(0.766044443118978,0.6427876096865393,-0.6427876096865393,0.766044443118978,210.46930126057117,-238.6846462168262);"><g><text x="381.01873779296875" y="160.9875030517578" style="white-space:pre;stroke:none;fill:rgb(0, 0, 0);font-size:15px;font-family:Arial, Helvetica, sans-serif;font-weight:400;font-style:normal;dominant-baseline:text-before-edge;text-decoration:none solid rgb(0, 0, 0);">... pizza making</text></g></g><g style="transform:matrix(0.766044443118978,0.6427876096865393,-0.6427876096865393,0.766044443118978,224.5529114707677,-221.12904725374176);"><g><text x="353.51873779296875" y="189.1125030517578" style="white-space:pre;stroke:none;fill:rgb(0, 0, 0);font-size:15px;font-family:Arial, Helvetica, sans-serif;font-weight:400;font-style:normal;dominant-baseline:text-before-edge;text-decoration:none solid rgb(0, 0, 0);">DELIVER [cheese]</text></g></g><g><g><text x="5.01873779296875" y="11" style="white-space:pre;stroke:none;fill:rgb(0, 0, 0);font-size:21.6px;font-family:Arial, Helvetica, sans-serif;font-weight:400;font-style:normal;dominant-baseline:text-before-edge;text-decoration:none solid rgb(0, 0, 0);">Alice&#x27;s Order</text></g></g><g><g><text x="533.7124633789062" y="261.00001525878906" style="white-space:pre;stroke:none;fill:rgb(0, 0, 0);font-size:21.6px;font-family:Arial, Helvetica, sans-serif;font-weight:400;font-style:normal;dominant-baseline:text-before-edge;text-decoration:none solid rgb(0, 0, 0);">Bob&#x27;s Order</text></g></g><g><g><text x="303.7437744140625" y="77.40000915527344" style="white-space:pre;stroke:none;fill:rgb(0, 0, 0);font-size:15px;font-family:Arial, Helvetica, sans-serif;font-weight:400;font-style:normal;dominant-baseline:text-before-edge;text-decoration:none solid rgb(0, 0, 0);">PIZZA</text></g><g><text x="303.7437744140625" y="95.00001525878906" style="white-space:pre;stroke:none;fill:rgb(0, 0, 0);font-size:15px;font-family:Arial, Helvetica, sans-serif;font-weight:400;font-style:normal;dominant-baseline:text-before-edge;text-decoration:none solid rgb(0, 0, 0);">SHOP</text></g></g></svg>
</svg>
