<svg xmlns="http://www.w3.org/2000/svg" width="662" height="302" style="
        width:662px;
        height:302px;
        background: transparent;
        fill: none;
">
        <svg xmlns="http://www.w3.org/2000/svg"><g><defs><pattern id=".5285826892824133" width="10" height="10" patternUnits="userSpaceOnUse"><path d="M 10 0 L 0 0 0 10" fill="none" stroke="lightgray" stroke-width="0.5"/></pattern></defs><rect width="100%" height="100%" fill="url(#.5285826892824133)" stroke="lightgray" stroke-width="0.5"/></g></svg>
        <svg xmlns="http://www.w3.org/2000/svg" class="role-diagram-draw-area"><g class="shapes-region" style="stroke: black; fill: none;"><g class="composite-shape"><path class="real" d=" M0,0 L660,0 L660,300 L0,300 Z" style="stroke-width: 1; stroke: rgb(0, 0, 0); fill: none;"/></g><g class="composite-shape"><path class="real" d=" M30,175 C30,161.19 41.19,150 55,150 C68.81,150 80,161.19 80,175 C80,188.81 68.81,200 55,200 C41.19,200 30,188.81 30,175 Z" style="stroke-width: 1; stroke: rgb(0, 0, 0); fill: none;"/></g><g class="arrow-line"><path class="connection real" stroke-dasharray="" d="  M28,260 L48,260" style="stroke: rgb(0, 0, 0); stroke-width: 1; fill: none;"/></g><g class="arrow-line"><path class="connection real" stroke-dasharray="" d="  M28,250 L28,270" style="stroke: rgb(0, 0, 0); stroke-width: 1; fill: none;"/></g><g class="arrow-line"><path class="connection real" stroke-dasharray="" d="  M48,250 L48,270" style="stroke: rgb(0, 0, 0); stroke-width: 1; fill: none;"/></g><g class="composite-shape"><path class="real" d=" M40,55 C40,46.72 46.72,40 55,40 C63.28,40 70,46.72 70,55 C70,63.28 63.28,70 55,70 C46.72,70 40,63.28 40,55 Z" style="stroke-width: 1; stroke: rgb(0, 0, 0); fill: rgba(245, 166, 35, 0.18);"/><path class="real" d=" M48.4,49.9 C48.4,49.07 49.07,48.4 49.9,48.4 C50.73,48.4 51.4,49.07 51.4,49.9 C51.4,50.73 50.73,51.4 49.9,51.4 C49.07,51.4 48.4,50.73 48.4,49.9 Z" style="stroke-width: 1; stroke: rgb(0, 0, 0); fill: rgba(245, 166, 35, 0.18);"/><path class="real" d=" M58.6,49.9 C58.6,49.07 59.27,48.4 60.1,48.4 C60.93,48.4 61.6,49.07 61.6,49.9 C61.6,50.73 60.93,51.4 60.1,51.4 C59.27,51.4 58.6,50.73 58.6,49.9 Z" style="stroke-width: 1; stroke: rgb(0, 0, 0); fill: rgba(245, 166, 35, 0.18);"/><path class="real" d=" M47.5,61 C52.5,65 57.5,65 62.5,61" style="stroke-width: 1; stroke: rgb(0, 0, 0); fill: none;"/></g><g class="arrow-line"><path class="connection real" stroke-dasharray="" d="  M80,60 L268,60" style="stroke: rgb(0, 0, 0); stroke-width: 1; fill: none;"/><g stroke="none" fill="#000" transform="matrix(-1,1.2246467991473532e-16,-1.2246467991473532e-16,-1,270,60.00000000000001)" style="stroke: none; fill: rgb(0, 0, 0); stroke-width: 1;"><path d=" M8.93,-4.29 L0,0 L8.93,4.29 Z"/></g></g><g class="composite-shape"><path class="real" d=" M270,70 C270,36.86 296.86,10 330,10 C363.14,10 390,36.86 390,70 C390,103.14 363.14,130 330,130 C296.86,130 270,103.14 270,70 Z" style="stroke-width: 1; stroke: rgb(0, 0, 0); fill: none;"/></g><g class="arrow-line"><path class="connection real" stroke-dasharray="" d="  M82,90 L270,90" style="stroke: rgb(0, 0, 0); stroke-width: 1; fill: none;"/><g stroke="none" fill="#000" transform="matrix(1,0,0,1,80,90)" style="stroke: none; fill: rgb(0, 0, 0); stroke-width: 1;"><path d=" M8.93,-4.29 L0,0 L8.93,4.29 Z"/></g></g><g class="composite-shape"><path class="real" d=" M40,95 C40,86.72 46.72,80 55,80 C63.28,80 70,86.72 70,95 C70,103.28 63.28,110 55,110 C46.72,110 40,103.28 40,95 Z" style="stroke-width: 1; stroke: rgb(0, 0, 0); fill: rgba(245, 166, 35, 0.18);"/><path class="real" d=" M48.4,89.9 C48.4,89.07 49.07,88.4 49.9,88.4 C50.73,88.4 51.4,89.07 51.4,89.9 C51.4,90.73 50.73,91.4 49.9,91.4 C49.07,91.4 48.4,90.73 48.4,89.9 Z" style="stroke-width: 1; stroke: rgb(0, 0, 0); fill: rgba(245, 166, 35, 0.18);"/><path class="real" d=" M58.6,89.9 C58.6,89.07 59.27,88.4 60.1,88.4 C60.93,88.4 61.6,89.07 61.6,89.9 C61.6,90.73 60.93,91.4 60.1,91.4 C59.27,91.4 58.6,90.73 58.6,89.9 Z" style="stroke-width: 1; stroke: rgb(0, 0, 0); fill: rgba(245, 166, 35, 0.18);"/><path class="real" d=" M47.5,101 C52.5,105 57.5,105 62.5,101" style="stroke-width: 1; stroke: rgb(0, 0, 0); fill: none;"/></g><g class="arrow-line"><path class="connection real" stroke-dasharray="" d="  M30,138 L30,110" style="stroke: rgb(0, 0, 0); stroke-width: 1; fill: none;"/><g stroke="none" fill="#000" transform="matrix(-1.8369701987210297e-16,-1,1,-1.8369701987210297e-16,30,140)" style="stroke: none; fill: rgb(0, 0, 0); stroke-width: 1;"><path d=" M8.93,-4.29 L0,0 L8.93,4.29 Z"/></g></g><g class="arrow-line"><path class="connection real" stroke-dasharray="" d="  M40,138 L40,110" style="stroke: rgb(0, 0, 0); stroke-width: 1; fill: none;"/><g stroke="none" fill="#000" transform="matrix(-1.8369701987210297e-16,-1,1,-1.8369701987210297e-16,40,140)" style="stroke: none; fill: rgb(0, 0, 0); stroke-width: 1;"><path d=" M8.93,-4.29 L0,0 L8.93,4.29 Z"/></g></g><g class="arrow-line"><path class="connection real" stroke-dasharray="" d="  M50,138 L50,110" style="stroke: rgb(0, 0, 0); stroke-width: 1; fill: none;"/><g stroke="none" fill="#000" transform="matrix(-1.8369701987210297e-16,-1,1,-1.8369701987210297e-16,50,140)" style="stroke: none; fill: rgb(0, 0, 0); stroke-width: 1;"><path d=" M8.93,-4.29 L0,0 L8.93,4.29 Z"/></g></g><g class="grouped-shape"><g class="arrow-line"><path class="connection real" stroke-dasharray="" d="  M80,112 L80,140" style="stroke: rgb(0, 0, 0); stroke-width: 1; fill: none;"/><g stroke="none" fill="#000" transform="matrix(6.123233995736766e-17,1,-1,6.123233995736766e-17,80,110)" style="stroke: none; fill: rgb(0, 0, 0); stroke-width: 1;"><path d=" M8.93,-4.29 L0,0 L8.93,4.29 Z"/></g></g><g class="arrow-line"><path class="connection real" stroke-dasharray="" d="  M70,112 L70,140" style="stroke: rgb(0, 0, 0); stroke-width: 1; fill: none;"/><g stroke="none" fill="#000" transform="matrix(6.123233995736766e-17,1,-1,6.123233995736766e-17,70,110)" style="stroke: none; fill: rgb(0, 0, 0); stroke-width: 1;"><path d=" M8.93,-4.29 L0,0 L8.93,4.29 Z"/></g></g><g class="arrow-line"><path class="connection real" stroke-dasharray="" d="  M60,112 L60,140" style="stroke: rgb(0, 0, 0); stroke-width: 1; fill: none;"/><g stroke="none" fill="#000" transform="matrix(6.123233995736766e-17,1,-1,6.123233995736766e-17,60,110)" style="stroke: none; fill: rgb(0, 0, 0); stroke-width: 1;"><path d=" M8.93,-4.29 L0,0 L8.93,4.29 Z"/></g></g></g><g class="arrow-line"><path class="connection real" stroke-dasharray="" d="  M30,140 L80,140" style="stroke: rgb(0, 0, 0); stroke-width: 1; fill: none;"/></g><g class="arrow-line"><path class="connection real" stroke-dasharray="" d="  M570,170 L391.71,61.04" style="stroke: rgb(0, 0, 0); stroke-width: 1; fill: none;"/><g stroke="none" transform="matrix(0.8532778802795901,0.5214564785536465,-0.5214564785536465,0.8532778802795901,390,60)" style="stroke: none; stroke-width: 1; fill: rgb(0, 0, 0);" fill="#000"><path d=" M8.93,-4.29 L0,0 L8.93,4.29 Z"/></g></g><g class="composite-shape"><path class="real" d=" M570,185 C570,176.72 576.72,170 585,170 C593.28,170 600,176.72 600,185 C600,193.28 593.28,200 585,200 C576.72,200 570,193.28 570,185 Z" style="stroke-width: 1; stroke: rgb(0, 0, 0); fill: rgba(65, 117, 5, 0.21);"/><path class="real" d=" M578.4,179.9 C578.4,179.07 579.07,178.4 579.9,178.4 C580.73,178.4 581.4,179.07 581.4,179.9 C581.4,180.73 580.73,181.4 579.9,181.4 C579.07,181.4 578.4,180.73 578.4,179.9 Z" style="stroke-width: 1; stroke: rgb(0, 0, 0); fill: rgba(65, 117, 5, 0.21);"/><path class="real" d=" M588.6,179.9 C588.6,179.07 589.27,178.4 590.1,178.4 C590.93,178.4 591.6,179.07 591.6,179.9 C591.6,180.73 590.93,181.4 590.1,181.4 C589.27,181.4 588.6,180.73 588.6,179.9 Z" style="stroke-width: 1; stroke: rgb(0, 0, 0); fill: rgba(65, 117, 5, 0.21);"/><path class="real" d=" M577.5,191 C582.5,195 587.5,195 592.5,191" style="stroke-width: 1; stroke: rgb(0, 0, 0); fill: none;"/></g><g class="arrow-line"><path class="connection real" stroke-dasharray="" d="  M558.28,188.99 L390,90" style="stroke: rgb(0, 0, 0); stroke-width: 1; fill: none;"/><g stroke="none" fill="#000" transform="matrix(-0.8618947887845381,-0.5070871454356306,0.5070871454356306,-0.8618947887845381,560,189.99999999999994)" style="stroke: none; fill: rgb(0, 0, 0); stroke-width: 1;"><path d=" M8.93,-4.29 L0,0 L8.93,4.29 Z"/></g></g><g class="arrow-line"><path class="connection real" stroke-dasharray="" d="  M270,88 L270,60" style="stroke: rgb(0, 0, 0); stroke-width: 1; fill: none;"/><g stroke="none" fill="#000" transform="matrix(-1.8369701987210297e-16,-1,1,-1.8369701987210297e-16,270,90)" style="stroke: none; fill: rgb(0, 0, 0); stroke-width: 1;"><path d=" M8.93,-4.29 L0,0 L8.93,4.29 Z"/></g></g><g class="arrow-line"><path class="connection real" stroke-dasharray="" d="  M390,88 L390,60" style="stroke: rgb(0, 0, 0); stroke-width: 1; fill: none;"/><g stroke="none" fill="#000" transform="matrix(-1.8369701987210297e-16,-1,1,-1.8369701987210297e-16,390,90)" style="stroke: none; fill: rgb(0, 0, 0); stroke-width: 1;"><path d=" M8.93,-4.29 L0,0 L8.93,4.29 Z"/></g></g><g class="composite-shape"><path class="real" d=" M470,224.69 C470,210.88 481.19,199.69 495,199.69 C508.81,199.69 520,210.88 520,224.69 C520,238.49 508.81,249.69 495,249.69 C481.19,249.69 470,238.49 470,224.69 Z" style="stroke-width: 1; stroke: rgb(0, 0, 0); fill: none;"/></g><g class="arrow-line"><path class="connection real" stroke-dasharray="" d="  M532,199.69 L560,199.69" style="stroke: rgb(0, 0, 0); stroke-width: 1; fill: none;"/><g stroke="none" fill="#000" transform="matrix(1,0,0,1,530,199.685534591195)" style="stroke: none; fill: rgb(0, 0, 0); stroke-width: 1;"><path d=" M8.93,-4.29 L0,0 L8.93,4.29 Z"/></g></g><g class="arrow-line"><path class="connection real" stroke-dasharray="" d="  M532,209.75 L560,209.75" style="stroke: rgb(0, 0, 0); stroke-width: 1; fill: none;"/><g stroke="none" fill="#000" transform="matrix(1,-2.4492935982947064e-16,2.4492935982947064e-16,1,530,209.74842767295598)" style="stroke: none; fill: rgb(0, 0, 0); stroke-width: 1;"><path d=" M8.93,-4.29 L0,0 L8.93,4.29 Z"/></g></g><g class="arrow-line"><path class="connection real" stroke-dasharray="" d="  M532,219.81 L560,219.81" style="stroke: rgb(0, 0, 0); stroke-width: 1; fill: none;"/><g stroke="none" fill="#000" transform="matrix(1,0,0,1,530,219.81132075471703)" style="stroke: none; fill: rgb(0, 0, 0); stroke-width: 1;"><path d=" M8.93,-4.29 L0,0 L8.93,4.29 Z"/></g></g><g class="grouped-shape"><g class="arrow-line"><path class="connection real" stroke-dasharray="" d="  M558,250 L530,250" style="stroke: rgb(0, 0, 0); stroke-width: 1; fill: none;"/><g stroke="none" fill="#000" transform="matrix(-1,1.2246467991473532e-16,-1.2246467991473532e-16,-1,560,250)" style="stroke: none; fill: rgb(0, 0, 0); stroke-width: 1;"><path d=" M8.93,-4.29 L0,0 L8.93,4.29 Z"/></g></g><g class="arrow-line"><path class="connection real" stroke-dasharray="" d="  M558,239.94 L530,239.94" style="stroke: rgb(0, 0, 0); stroke-width: 1; fill: none;"/><g stroke="none" fill="#000" transform="matrix(-1,1.2246467991473532e-16,-1.2246467991473532e-16,-1,560,239.937106918239)" style="stroke: none; fill: rgb(0, 0, 0); stroke-width: 1;"><path d=" M8.93,-4.29 L0,0 L8.93,4.29 Z"/></g></g><g class="arrow-line"><path class="connection real" stroke-dasharray="" d="  M558,229.87 L530,229.87" style="stroke: rgb(0, 0, 0); stroke-width: 1; fill: none;"/><g stroke="none" fill="#000" transform="matrix(-1,1.2246467991473532e-16,-1.2246467991473532e-16,-1,560,229.87421383647802)" style="stroke: none; fill: rgb(0, 0, 0); stroke-width: 1;"><path d=" M8.93,-4.29 L0,0 L8.93,4.29 Z"/></g></g></g><g class="arrow-line"><path class="connection real" stroke-dasharray="" d="  M530,199.69 L530,250" style="stroke: rgb(0, 0, 0); stroke-width: 1; fill: none;"/></g><g class="composite-shape"><path class="real" d=" M570,225 C570,216.72 576.72,210 585,210 C593.28,210 600,216.72 600,225 C600,233.28 593.28,240 585,240 C576.72,240 570,233.28 570,225 Z" style="stroke-width: 1; stroke: rgb(0, 0, 0); fill: rgba(65, 117, 5, 0.21);"/><path class="real" d=" M578.4,219.9 C578.4,219.07 579.07,218.4 579.9,218.4 C580.73,218.4 581.4,219.07 581.4,219.9 C581.4,220.73 580.73,221.4 579.9,221.4 C579.07,221.4 578.4,220.73 578.4,219.9 Z" style="stroke-width: 1; stroke: rgb(0, 0, 0); fill: rgba(65, 117, 5, 0.21);"/><path class="real" d=" M588.6,219.9 C588.6,219.07 589.27,218.4 590.1,218.4 C590.93,218.4 591.6,219.07 591.6,219.9 C591.6,220.73 590.93,221.4 590.1,221.4 C589.27,221.4 588.6,220.73 588.6,219.9 Z" style="stroke-width: 1; stroke: rgb(0, 0, 0); fill: rgba(65, 117, 5, 0.21);"/><path class="real" d=" M577.5,231 C582.5,235 587.5,235 592.5,231" style="stroke-width: 1; stroke: rgb(0, 0, 0); fill: none;"/></g><g class="arrow-line"><path class="connection real" stroke-dasharray="" d="  M330,130 C328.32,164.65 139.14,181.66 81.7,175.2" style="stroke: rgb(0, 0, 0); stroke-width: 1; fill: none;"/><g stroke="none" transform="matrix(0.9920928114279391,0.12550638833544542,-0.12550638833544542,0.9920928114279391,80,175)" style="stroke: none; stroke-width: 1; fill: rgb(0, 0, 0);" fill="#000"><path d=" M8.93,-4.29 L0,0 L8.93,4.29 Z"/></g></g><g class="arrow-line"><path class="connection real" stroke-dasharray="" d="  M340,130 C338.31,164.83 387.8,227.06 468.78,224.73" style="stroke: rgb(0, 0, 0); stroke-width: 1; fill: none;"/><g stroke="none" fill="#000" transform="matrix(-0.9993283937786562,0.03664370870655614,-0.03664370870655614,-0.9993283937786562,469.99999999999994,224.685534591195)" style="stroke: none; fill: rgb(0, 0, 0); stroke-width: 1;"><path d=" M8.93,-4.29 L0,0 L8.93,4.29 Z"/></g></g><g/></g><g/><g/><!-- react-empty: 79495 --></svg>
        <svg xmlns="http://www.w3.org/2000/svg" width="660" height="300" style="width:660px;height:300px;font-family:Asana-Math, Asana;background:transparent;"><g><g><text x="465.9000244140625" y="0.5999908447265625" style="white-space:pre;stroke:none;fill:rgb(0, 0, 0);font-size:25.92px;font-family:Arial, Helvetica, sans-serif;font-weight:400;font-style:normal;dominant-baseline:text-before-edge;text-decoration:none solid rgb(0, 0, 0);">CDN&#x27;s in Action</text></g></g><g><g><text x="13.98748779296875" y="270.99998474121094" style="white-space:pre;stroke:none;fill:rgb(0, 0, 0);font-size:18px;font-family:Arial, Helvetica, sans-serif;font-weight:400;font-style:normal;dominant-baseline:text-before-edge;text-decoration:none solid rgb(0, 0, 0);">10 ms</text></g></g><g><g><text x="111.79376220703125" y="42.19999694824219" style="white-space:pre;stroke:none;fill:rgb(0, 0, 0);font-size:15px;font-family:Arial, Helvetica, sans-serif;font-weight:400;font-style:normal;dominant-baseline:text-before-edge;text-decoration:none solid rgb(0, 0, 0);">GET /cats</text></g></g><g><g><text x="38.75" y="166.1999969482422" style="white-space:pre;stroke:none;fill:rgb(0, 0, 0);font-size:15px;font-family:Arial, Helvetica, sans-serif;font-weight:400;font-style:normal;dominant-baseline:text-before-edge;text-decoration:none solid rgb(0, 0, 0);">CDN</text></g></g><g><g><text x="291.1812744140625" y="45.19999694824219" style="white-space:pre;stroke:none;fill:rgb(0, 0, 0);font-size:21.6px;font-family:Arial, Helvetica, sans-serif;font-weight:400;font-style:normal;dominant-baseline:text-before-edge;text-decoration:none solid rgb(0, 0, 0);direction:rtl;text-anchor:end;">Website</text></g><g><text x="291.1812744140625" y="70.80000305175781" style="white-space:pre;stroke:none;fill:rgb(0, 0, 0);font-size:21.6px;font-family:Arial, Helvetica, sans-serif;font-weight:400;font-style:normal;dominant-baseline:text-before-edge;text-decoration:none solid rgb(0, 0, 0);direction:rtl;text-anchor:end;">(cloud)</text></g></g><g><g><text x="19.4000244140625" y="11" style="white-space:pre;stroke:none;fill:rgb(0, 0, 0);font-size:21.6px;font-family:Arial, Helvetica, sans-serif;font-weight:400;font-style:normal;dominant-baseline:text-before-edge;text-decoration:none solid rgb(0, 0, 0);">Alice&#x27;s Request</text></g></g><g><g><text x="531.7124633789062" y="270.99998474121094" style="white-space:pre;stroke:none;fill:rgb(0, 0, 0);font-size:21.6px;font-family:Arial, Helvetica, sans-serif;font-weight:400;font-style:normal;dominant-baseline:text-before-edge;text-decoration:none solid rgb(0, 0, 0);">Bob&#x27;s Order</text></g></g><g><g><text x="101.95001220703125" y="70.19999694824219" style="white-space:pre;stroke:none;fill:rgb(0, 0, 0);font-size:15px;font-family:Arial, Helvetica, sans-serif;font-weight:400;font-style:normal;dominant-baseline:text-before-edge;text-decoration:none solid rgb(0, 0, 0);">[pic1.png, pic2.png]</text></g></g><g><g><text x="91.9749755859375" y="120.19999694824219" style="white-space:pre;stroke:none;fill:rgb(0, 0, 0);font-size:15px;font-family:Arial, Helvetica, sans-serif;font-weight:400;font-style:normal;dominant-baseline:text-before-edge;text-decoration:none solid rgb(0, 0, 0);">all the cat pics</text></g></g><g><g><text x="478.75" y="215.87498474121094" style="white-space:pre;stroke:none;fill:rgb(0, 0, 0);font-size:15px;font-family:Arial, Helvetica, sans-serif;font-weight:400;font-style:normal;dominant-baseline:text-before-edge;text-decoration:none solid rgb(0, 0, 0);">CDN</text></g></g><g style="transform:matrix(0.8660254037844387,0.49999999999999994,-0.49999999999999994,0.8660254037844387,111.30680659364594,-224.82765095074393);"><g><text x="441.98126220703125" y="86.48750305175781" style="white-space:pre;stroke:none;fill:rgb(0, 0, 0);font-size:15px;font-family:Arial, Helvetica, sans-serif;font-weight:400;font-style:normal;dominant-baseline:text-before-edge;text-decoration:none solid rgb(0, 0, 0);">GET /cats</text></g></g><g style="transform:matrix(0.8660254037844387,0.49999999999999994,-0.49999999999999994,0.8660254037844387,131.2689347709627,-207.32732753569235);"><g><text x="387.4625244140625" y="132.4875030517578" style="white-space:pre;stroke:none;fill:rgb(0, 0, 0);font-size:15px;font-family:Arial, Helvetica, sans-serif;font-weight:400;font-style:normal;dominant-baseline:text-before-edge;text-decoration:none solid rgb(0, 0, 0);">[pic1.png, pic2.png]</text></g></g><g><g><text x="192.1312255859375" y="182.1999969482422" style="white-space:pre;stroke:none;fill:rgb(0, 0, 0);font-size:15px;font-family:Arial, Helvetica, sans-serif;font-weight:400;font-style:normal;dominant-baseline:text-before-edge;text-decoration:none solid rgb(0, 0, 0);">Pre-compute cat pictures</text></g></g></svg>
</svg>
