<svg xmlns="http://www.w3.org/2000/svg" width="662" height="302" style="
        width:662px;
        height:302px;
        background: transparent;
        fill: none;
">
        <svg xmlns="http://www.w3.org/2000/svg"><g><defs><pattern id=".19211019540762408" width="10" height="10" patternUnits="userSpaceOnUse"><path d="M 10 0 L 0 0 0 10" fill="none" stroke="lightgray" stroke-width="0.5"/></pattern></defs><rect width="100%" height="100%" fill="url(#.19211019540762408)" stroke="lightgray" stroke-width="0.5"/></g></svg>
        <svg xmlns="http://www.w3.org/2000/svg" class="role-diagram-draw-area"><g class="shapes-region" style="stroke: black; fill: none;"><g class="composite-shape"><path class="real" d=" M0,0 L660,0 L660,300 L0,300 Z" style="stroke-width: 1; stroke: rgb(0, 0, 0); fill: none;"/></g><g class="composite-shape"><path class="real" d=" M220,70 C220,53.43 233.43,40 250,40 C266.57,40 280,53.43 280,70 C280,86.57 266.57,100 250,100 C233.43,100 220,86.57 220,70 Z" style="stroke-width: 1; stroke: rgb(0, 0, 0); fill: none;"/></g><g class="arrow-line"><path class="connection real" stroke-dasharray="" d="  M28,260 L48,260" style="stroke: rgb(0, 0, 0); stroke-width: 1; fill: none;"/></g><g class="arrow-line"><path class="connection real" stroke-dasharray="" d="  M28,250 L28,270" style="stroke: rgb(0, 0, 0); stroke-width: 1; fill: none;"/></g><g class="arrow-line"><path class="connection real" stroke-dasharray="" d="  M48,250 L48,270" style="stroke: rgb(0, 0, 0); stroke-width: 1; fill: none;"/></g><g class="composite-shape"><path class="real" d=" M150,75 C150,66.72 156.72,60 165,60 C173.28,60 180,66.72 180,75 C180,83.28 173.28,90 165,90 C156.72,90 150,83.28 150,75 Z" style="stroke-width: 1; stroke: rgb(0, 0, 0); fill: rgba(245, 166, 35, 0.18);"/><path class="real" d=" M158.4,69.9 C158.4,69.07 159.07,68.4 159.9,68.4 C160.73,68.4 161.4,69.07 161.4,69.9 C161.4,70.73 160.73,71.4 159.9,71.4 C159.07,71.4 158.4,70.73 158.4,69.9 Z" style="stroke-width: 1; stroke: rgb(0, 0, 0); fill: rgba(245, 166, 35, 0.18);"/><path class="real" d=" M168.6,69.9 C168.6,69.07 169.27,68.4 170.1,68.4 C170.93,68.4 171.6,69.07 171.6,69.9 C171.6,70.73 170.93,71.4 170.1,71.4 C169.27,71.4 168.6,70.73 168.6,69.9 Z" style="stroke-width: 1; stroke: rgb(0, 0, 0); fill: rgba(245, 166, 35, 0.18);"/><path class="real" d=" M157.5,81 C162.5,85 167.5,85 172.5,81" style="stroke-width: 1; stroke: rgb(0, 0, 0); fill: none;"/></g><g class="arrow-line"><path class="connection real" stroke-dasharray="" d="  M190,70 L208,70" style="stroke: rgb(0, 0, 0); stroke-width: 1; fill: none;"/><g stroke="none" fill="#000" transform="matrix(-1,1.2246467991473532e-16,-1.2246467991473532e-16,-1,210,70)" style="stroke: none; fill: rgb(0, 0, 0); stroke-width: 1;"><path d=" M8.93,-4.29 L0,0 L8.93,4.29 Z"/></g></g><g class="arrow-line"><path class="connection real" stroke-dasharray="" d="  M132,130 L210,130" style="stroke: rgb(0, 0, 0); stroke-width: 1; fill: none;"/><g stroke="none" fill="#000" transform="matrix(1,0,0,1,130,130)" style="stroke: none; fill: rgb(0, 0, 0); stroke-width: 1;"><path d=" M8.93,-4.29 L0,0 L8.93,4.29 Z"/></g></g><g class="arrow-line"><path class="connection real" stroke-dasharray="" d="  M210,70 L210,128" style="stroke: rgb(0, 0, 0); stroke-width: 1; fill: none;"/><g stroke="none" fill="#000" transform="matrix(-1.8369701987210297e-16,-1,1,-1.8369701987210297e-16,210,129.99999999999997)" style="stroke: none; fill: rgb(0, 0, 0); stroke-width: 1;"><path d=" M8.93,-4.29 L0,0 L8.93,4.29 Z"/></g></g><g class="composite-shape"><path class="real" d=" M540,155 C540,146.72 546.72,140 555,140 C563.28,140 570,146.72 570,155 C570,163.28 563.28,170 555,170 C546.72,170 540,163.28 540,155 Z" style="stroke-width: 1; stroke: rgb(0, 0, 0); fill: rgba(65, 117, 5, 0.21);"/><path class="real" d=" M548.4,149.9 C548.4,149.07 549.07,148.4 549.9,148.4 C550.73,148.4 551.4,149.07 551.4,149.9 C551.4,150.73 550.73,151.4 549.9,151.4 C549.07,151.4 548.4,150.73 548.4,149.9 Z" style="stroke-width: 1; stroke: rgb(0, 0, 0); fill: rgba(65, 117, 5, 0.21);"/><path class="real" d=" M558.6,149.9 C558.6,149.07 559.27,148.4 560.1,148.4 C560.93,148.4 561.6,149.07 561.6,149.9 C561.6,150.73 560.93,151.4 560.1,151.4 C559.27,151.4 558.6,150.73 558.6,149.9 Z" style="stroke-width: 1; stroke: rgb(0, 0, 0); fill: rgba(65, 117, 5, 0.21);"/><path class="real" d=" M547.5,161 C552.5,165 557.5,165 562.5,161" style="stroke-width: 1; stroke: rgb(0, 0, 0); fill: none;"/></g><g class="arrow-line"><path class="connection real" stroke-dasharray="" d="  M491.16,110 L490.03,188" style="stroke: rgb(0, 0, 0); stroke-width: 1; fill: none;"/><g stroke="none" fill="#000" transform="matrix(0.014485726138606268,-0.999895076364634,0.999895076364634,0.014485726138606268,490,190.00000000000006)" style="stroke: none; fill: rgb(0, 0, 0); stroke-width: 1;"><path d=" M8.93,-4.29 L0,0 L8.93,4.29 Z"/></g></g><g class="arrow-line"><path class="connection real" stroke-dasharray="" d="  M550,112 L550,130" style="stroke: rgb(0, 0, 0); stroke-width: 1; fill: none;"/><g stroke="none" fill="#000" transform="matrix(6.123233995736766e-17,1,-1,6.123233995736766e-17,550,110)" style="stroke: none; fill: rgb(0, 0, 0); stroke-width: 1;"><path d=" M8.93,-4.29 L0,0 L8.93,4.29 Z"/></g></g><g class="arrow-line"><path class="connection real" stroke-dasharray="" d="  M550,110 L493.16,110" style="stroke: rgb(0, 0, 0); stroke-width: 1; fill: none;"/><g stroke="none" fill="#000" transform="matrix(1,-2.4492935982947064e-16,2.4492935982947064e-16,1,491.1613649950912,110)" style="stroke: none; fill: rgb(0, 0, 0); stroke-width: 1;"><path d=" M8.93,-4.29 L0,0 L8.93,4.29 Z"/></g></g><g class="composite-shape"><path class="real" d=" M90,135 C90,126.72 96.72,120 105,120 C113.28,120 120,126.72 120,135 C120,143.28 113.28,150 105,150 C96.72,150 90,143.28 90,135 Z" style="stroke-width: 1; stroke: rgb(0, 0, 0); fill: rgba(245, 166, 35, 0.18);"/><path class="real" d=" M98.4,129.9 C98.4,129.07 99.07,128.4 99.9,128.4 C100.73,128.4 101.4,129.07 101.4,129.9 C101.4,130.73 100.73,131.4 99.9,131.4 C99.07,131.4 98.4,130.73 98.4,129.9 Z" style="stroke-width: 1; stroke: rgb(0, 0, 0); fill: rgba(245, 166, 35, 0.18);"/><path class="real" d=" M108.6,129.9 C108.6,129.07 109.27,128.4 110.1,128.4 C110.93,128.4 111.6,129.07 111.6,129.9 C111.6,130.73 110.93,131.4 110.1,131.4 C109.27,131.4 108.6,130.73 108.6,129.9 Z" style="stroke-width: 1; stroke: rgb(0, 0, 0); fill: rgba(245, 166, 35, 0.18);"/><path class="real" d=" M97.5,141 C102.5,145 107.5,145 112.5,141" style="stroke-width: 1; stroke: rgb(0, 0, 0); fill: none;"/></g><g class="composite-shape"><path class="real" d=" M469.77,215 C469.77,206.72 476.48,200 484.77,200 C493.05,200 499.77,206.72 499.77,215 C499.77,223.28 493.05,230 484.77,230 C476.48,230 469.77,223.28 469.77,215 Z" style="stroke-width: 1; stroke: rgb(0, 0, 0); fill: rgba(65, 117, 5, 0.21);"/><path class="real" d=" M478.17,209.9 C478.17,209.07 478.84,208.4 479.67,208.4 C480.49,208.4 481.17,209.07 481.17,209.9 C481.17,210.73 480.49,211.4 479.67,211.4 C478.84,211.4 478.17,210.73 478.17,209.9 Z" style="stroke-width: 1; stroke: rgb(0, 0, 0); fill: rgba(65, 117, 5, 0.21);"/><path class="real" d=" M488.37,209.9 C488.37,209.07 489.04,208.4 489.87,208.4 C490.69,208.4 491.37,209.07 491.37,209.9 C491.37,210.73 490.69,211.4 489.87,211.4 C489.04,211.4 488.37,210.73 488.37,209.9 Z" style="stroke-width: 1; stroke: rgb(0, 0, 0); fill: rgba(65, 117, 5, 0.21);"/><path class="real" d=" M477.27,221 C482.27,225 487.27,225 492.27,221" style="stroke-width: 1; stroke: rgb(0, 0, 0); fill: none;"/></g><g class="grouped-shape"><g class="composite-shape ignore-highlight"><path class="real" d=" M520,70 C520,53.43 533.43,40 550,40 C566.57,40 580,53.43 580,70 C580,86.57 566.57,100 550,100 C533.43,100 520,86.57 520,70 Z" style="stroke-width: 1; stroke: rgb(0, 0, 0); fill: none;"/></g></g><g class="composite-shape"><path class="real" d=" M290,190 C290,156.86 316.86,130 350,130 C383.14,130 410,156.86 410,190 C410,223.14 383.14,250 350,250 C316.86,250 290,223.14 290,190 Z" style="stroke-width: 1; stroke: rgb(0, 0, 0); fill: none;"/></g><g class="arrow-line"><path class="connection real" stroke-dasharray="" d="  M360,130 C362.28,81.69 326.04,69.44 281.36,69.98" style="stroke: rgb(0, 0, 0); stroke-width: 1; fill: none;"/><g stroke="none" transform="matrix(0.9998446339083082,-0.017626912513571794,0.017626912513571794,0.9998446339083082,280,70)" style="stroke: none; stroke-width: 1; fill: rgb(0, 0, 0);" fill="#000"><path d=" M8.93,-4.29 L0,0 L8.93,4.29 Z"/></g></g><g class="arrow-line"><path class="connection real" stroke-dasharray="" d="  M380,140 C382.28,91.69 460.71,72.58 518.26,70.07" style="stroke: rgb(0, 0, 0); stroke-width: 1; fill: none;"/><g stroke="none" fill="#000" transform="matrix(-0.9992762554049954,0.03803899819619706,-0.03803899819619706,-0.9992762554049954,519.9999999999999,70)" style="stroke: none; fill: rgb(0, 0, 0); stroke-width: 1;"><path d=" M8.93,-4.29 L0,0 L8.93,4.29 Z"/></g></g><g/></g><g/><g/><!-- react-empty: 65741 --></svg>
        <svg xmlns="http://www.w3.org/2000/svg" width="660" height="300" style="width:660px;height:300px;font-family:Asana-Math, Asana;background:transparent;"><g><g><text x="463.01251220703125" y="0.600006103515625" style="white-space:pre;stroke:none;fill:rgb(0, 0, 0);font-size:25.92px;font-family:Arial, Helvetica, sans-serif;font-weight:400;font-style:normal;dominant-baseline:text-before-edge;text-decoration:none solid rgb(0, 0, 0);">Domino&#x27;s Model</text></g></g><g><g><text x="1.9749755859375" y="279.00001525878906" style="white-space:pre;stroke:none;fill:rgb(0, 0, 0);font-size:18px;font-family:Arial, Helvetica, sans-serif;font-weight:400;font-style:normal;dominant-baseline:text-before-edge;text-decoration:none solid rgb(0, 0, 0);">2 minutes</text></g></g><g><g><text x="16.4437255859375" y="42.19999694824219" style="white-space:pre;stroke:none;fill:rgb(0, 0, 0);font-size:15px;font-family:Arial, Helvetica, sans-serif;font-weight:400;font-style:normal;dominant-baseline:text-before-edge;text-decoration:none solid rgb(0, 0, 0);">ORDER [pepperoni, cheese]</text></g></g><g><g><text x="17.9375" y="152.1999969482422" style="white-space:pre;stroke:none;fill:rgb(0, 0, 0);font-size:15px;font-family:Arial, Helvetica, sans-serif;font-weight:400;font-style:normal;dominant-baseline:text-before-edge;text-decoration:none solid rgb(0, 0, 0);">DELIVER [pepperoni, cheese]</text></g></g><g><g><text x="86.14373779296875" y="92.19999694824219" style="white-space:pre;stroke:none;fill:rgb(0, 0, 0);font-size:15px;font-family:Arial, Helvetica, sans-serif;font-weight:400;font-style:normal;dominant-baseline:text-before-edge;text-decoration:none solid rgb(0, 0, 0);">final assembly ...</text></g></g><g><g><text x="228.7437744140625" y="52.40000915527344" style="white-space:pre;stroke:none;fill:rgb(0, 0, 0);font-size:15px;font-family:Arial, Helvetica, sans-serif;font-weight:400;font-style:normal;dominant-baseline:text-before-edge;text-decoration:none solid rgb(0, 0, 0);">PIZZA</text></g><g><text x="228.7437744140625" y="70.00001525878906" style="white-space:pre;stroke:none;fill:rgb(0, 0, 0);font-size:15px;font-family:Arial, Helvetica, sans-serif;font-weight:400;font-style:normal;dominant-baseline:text-before-edge;text-decoration:none solid rgb(0, 0, 0);">SHOP</text></g></g><g style="transform:matrix(6.123233995736766e-17,1,-1,6.123233995736766e-17,759.5000352859497,-398.5000410079956);"><g><text x="521.4750366210938" y="171.6999969482422" style="white-space:pre;stroke:none;fill:rgb(0, 0, 0);font-size:15px;font-family:Arial, Helvetica, sans-serif;font-weight:400;font-style:normal;dominant-baseline:text-before-edge;text-decoration:none solid rgb(0, 0, 0);">ORDER [cheese]</text></g></g><g style="transform:matrix(6.123233995736766e-17,1,-1,6.123233995736766e-17,700.9999856948853,-336.99999141693115);"><g><text x="463.14373779296875" y="173.1999969482422" style="white-space:pre;stroke:none;fill:rgb(0, 0, 0);font-size:15px;font-family:Arial, Helvetica, sans-serif;font-weight:400;font-style:normal;dominant-baseline:text-before-edge;text-decoration:none solid rgb(0, 0, 0);">... final assembly</text></g></g><g style="transform:matrix(6.123233995736766e-17,1,-1,6.123233995736766e-17,635.999997138977,-286.00000286102295);"><g><text x="398.46875" y="166.1999969482422" style="white-space:pre;stroke:none;fill:rgb(0, 0, 0);font-size:15px;font-family:Arial, Helvetica, sans-serif;font-weight:400;font-style:normal;dominant-baseline:text-before-edge;text-decoration:none solid rgb(0, 0, 0);">DELIVER [cheese]</text></g></g><g><g><text x="528.7437133789062" y="52.40000915527344" style="white-space:pre;stroke:none;fill:rgb(0, 0, 0);font-size:15px;font-family:Arial, Helvetica, sans-serif;font-weight:400;font-style:normal;dominant-baseline:text-before-edge;text-decoration:none solid rgb(0, 0, 0);">PIZZA</text></g><g><text x="528.7437133789062" y="70.00001525878906" style="white-space:pre;stroke:none;fill:rgb(0, 0, 0);font-size:15px;font-family:Arial, Helvetica, sans-serif;font-weight:400;font-style:normal;dominant-baseline:text-before-edge;text-decoration:none solid rgb(0, 0, 0);">SHOP</text></g></g><g><g><text x="299.29998779296875" y="163.6000213623047" style="white-space:pre;stroke:none;fill:rgb(0, 0, 0);font-size:15px;font-family:Arial, Helvetica, sans-serif;font-weight:400;font-style:normal;dominant-baseline:text-before-edge;text-decoration:none solid rgb(0, 0, 0);">REGIONAL</text></g><g><text x="299.29998779296875" y="181.1999969482422" style="white-space:pre;stroke:none;fill:rgb(0, 0, 0);font-size:15px;font-family:Arial, Helvetica, sans-serif;font-weight:400;font-style:normal;dominant-baseline:text-before-edge;text-decoration:none solid rgb(0, 0, 0);">PIZZA</text></g><g><text x="299.29998779296875" y="198.8000030517578" style="white-space:pre;stroke:none;fill:rgb(0, 0, 0);font-size:15px;font-family:Arial, Helvetica, sans-serif;font-weight:400;font-style:normal;dominant-baseline:text-before-edge;text-decoration:none solid rgb(0, 0, 0);">DISTRIBUTOR</text></g></g><g><g><text x="351.88751220703125" y="49.90000915527344" style="white-space:pre;stroke:none;fill:rgb(0, 0, 0);font-size:15px;font-family:Arial, Helvetica, sans-serif;font-weight:400;font-style:normal;dominant-baseline:text-before-edge;text-decoration:none solid rgb(0, 0, 0);">Pre-made</text></g><g><text x="351.88751220703125" y="67.50001525878906" style="white-space:pre;stroke:none;fill:rgb(0, 0, 0);font-size:15px;font-family:Arial, Helvetica, sans-serif;font-weight:400;font-style:normal;dominant-baseline:text-before-edge;text-decoration:none solid rgb(0, 0, 0);">Ingredients</text></g></g><g><g><text x="5.01873779296875" y="11" style="white-space:pre;stroke:none;fill:rgb(0, 0, 0);font-size:21.6px;font-family:Arial, Helvetica, sans-serif;font-weight:400;font-style:normal;dominant-baseline:text-before-edge;text-decoration:none solid rgb(0, 0, 0);">Alice&#x27;s Order</text></g></g><g><g><text x="541.7124633789062" y="261.00001525878906" style="white-space:pre;stroke:none;fill:rgb(0, 0, 0);font-size:21.6px;font-family:Arial, Helvetica, sans-serif;font-weight:400;font-style:normal;dominant-baseline:text-before-edge;text-decoration:none solid rgb(0, 0, 0);">Bob&#x27;s Order</text></g></g></svg>
</svg>
