<svg xmlns="http://www.w3.org/2000/svg" width="662" height="300.6640625" style="
        width:662px;
        height:300.6640625px;
        background: transparent;
        fill: none;
">
        
        <svg xmlns="http://www.w3.org/2000/svg"><g class="shapes-region" style="stroke: black; fill: none;"><g class="arrow-line"><path class="connection real" stroke-dasharray="" d="  M458,140 L458,180" style="stroke: rgb(0, 0, 0); stroke-width: 1; fill: none;"/></g><g class="arrow-line"><path class="connection real" stroke-dasharray="" d="  M448,140 L448,180" style="stroke: rgb(0, 0, 0); stroke-width: 1; fill: none;"/></g><g class="arrow-line"><path class="connection real" stroke-dasharray="" d="  M438,140 L438,180" style="stroke: rgb(0, 0, 0); stroke-width: 1; fill: none;"/></g><g class="arrow-line"><path class="connection real" stroke-dasharray="" d="  M428,140 L428,180" style="stroke: rgb(0, 0, 0); stroke-width: 1; fill: none;"/></g><g class="arrow-line"><path class="connection real" stroke-dasharray="" d="  M468,140 L408,140" style="stroke: rgb(0, 0, 0); stroke-width: 1; fill: none;"/></g><g class="arrow-line"><path class="connection real" stroke-dasharray="" d="  M468,180 L408,180" style="stroke: rgb(0, 0, 0); stroke-width: 1; fill: none;"/></g><g class="arrow-line"><path class="connection real" stroke-dasharray="" d="  M468,180 L468,140" style="stroke: rgb(0, 0, 0); stroke-width: 1; fill: none;"/></g><g class="arrow-line"><path class="connection real" stroke-dasharray="" d="  M418,140 L418,180" style="stroke: rgb(0, 0, 0); stroke-width: 1; fill: none;"/></g><g class="arrow-line"><path class="connection real" stroke-dasharray="" d="  M388,160 L406,160" style="stroke: rgb(0, 0, 0); stroke-width: 1; fill: none;"/><g stroke="none" fill="#000" transform="matrix(-1,1.2246467991473532e-16,-1.2246467991473532e-16,-1,408,160)" style="stroke: none; fill: rgb(0, 0, 0); stroke-width: 1;"><path d=" M8.93,-4.29 L0,0 L8.93,4.29 Z"/></g></g><g class="arrow-line"><path class="connection real" stroke-dasharray="" d="  M138,70 L138,110" style="stroke: rgb(0, 0, 0); stroke-width: 1; fill: none;"/></g><g class="arrow-line"><path class="connection real" stroke-dasharray="" d="  M128,70 L128,110" style="stroke: rgb(0, 0, 0); stroke-width: 1; fill: none;"/></g><g class="arrow-line"><path class="connection real" stroke-dasharray="" d="  M118,70 L118,110" style="stroke: rgb(0, 0, 0); stroke-width: 1; fill: none;"/></g><g class="arrow-line"><path class="connection real" stroke-dasharray="" d="  M108,70 L108,110" style="stroke: rgb(0, 0, 0); stroke-width: 1; fill: none;"/></g><g class="arrow-line"><path class="connection real" stroke-dasharray="" d="  M148,70 L88,70" style="stroke: rgb(0, 0, 0); stroke-width: 1; fill: none;"/></g><g class="arrow-line"><path class="connection real" stroke-dasharray="" d="  M148,110 L88,110" style="stroke: rgb(0, 0, 0); stroke-width: 1; fill: none;"/></g><g class="arrow-line"><path class="connection real" stroke-dasharray="" d="  M148,110 L148,70" style="stroke: rgb(0, 0, 0); stroke-width: 1; fill: none;"/></g><g class="arrow-line"><path class="connection real" stroke-dasharray="" d="  M98,70 L98,110" style="stroke: rgb(0, 0, 0); stroke-width: 1; fill: none;"/></g><g class="arrow-line"><path class="connection real" stroke-dasharray="" d="  M68,90 L86,90" style="stroke: rgb(0, 0, 0); stroke-width: 1; fill: none;"/><g stroke="none" fill="#000" transform="matrix(-1,1.2246467991473532e-16,-1.2246467991473532e-16,-1,87.99999999999999,90.00000000000001)" style="stroke: none; fill: rgb(0, 0, 0); stroke-width: 1;"><path d=" M8.93,-4.29 L0,0 L8.93,4.29 Z"/></g></g><g class="arrow-line"><path class="connection real" stroke-dasharray="" d="  M148,90 L206.14,67.23" style="stroke: rgb(0, 0, 0); stroke-width: 1; fill: none;"/><g stroke="none" fill="#000" transform="matrix(-0.9311194846939214,0.36471427888598806,-0.36471427888598806,-0.9311194846939214,208,66.5)" style="stroke: none; fill: rgb(0, 0, 0); stroke-width: 1;"><path d=" M8.93,-4.29 L0,0 L8.93,4.29 Z"/></g></g><g class="arrow-line"><path class="connection real" stroke-dasharray="" d="  M148,90 L206.29,125.46" style="stroke: rgb(0, 0, 0); stroke-width: 1; fill: none;"/><g stroke="none" fill="#000" transform="matrix(-0.8543681439288222,-0.5196682351651093,0.5196682351651093,-0.8543681439288222,208,126.5)" style="stroke: none; fill: rgb(0, 0, 0); stroke-width: 1;"><path d=" M8.93,-4.29 L0,0 L8.93,4.29 Z"/></g></g><g class="composite-shape"><path class="real" d=" M208,65 C208,51.19 219.19,40 233,40 C246.81,40 258,51.19 258,65 C258,78.81 246.81,90 233,90 C219.19,90 208,78.81 208,65 Z" style="stroke-width: 1; stroke: rgb(0, 0, 0); fill: none;"/></g><g class="composite-shape"><path class="real" d=" M208,125 C208,111.19 219.19,100 233,100 C246.81,100 258,111.19 258,125 C258,138.81 246.81,150 233,150 C219.19,150 208,138.81 208,125 Z" style="stroke-width: 1; stroke: rgb(0, 0, 0); fill: none;"/></g><g class="composite-shape"><path class="real" d=" M208,195 C208,181.19 219.19,170 233,170 C246.81,170 258,181.19 258,195 C258,208.81 246.81,220 233,220 C219.19,220 208,208.81 208,195 Z" style="stroke-width: 1; stroke: rgb(0, 0, 0); fill: none;"/></g><g class="composite-shape"><path class="real" d=" M208,255 C208,241.19 219.19,230 233,230 C246.81,230 258,241.19 258,255 C258,268.81 246.81,280 233,280 C219.19,280 208,268.81 208,255 Z" style="stroke-width: 1; stroke: rgb(0, 0, 0); fill: none;"/></g><g class="arrow-line"><path class="connection real" stroke-dasharray="" d="  M138,210 L138,250" style="stroke: rgb(0, 0, 0); stroke-width: 1; fill: none;"/></g><g class="arrow-line"><path class="connection real" stroke-dasharray="" d="  M128,210 L128,250" style="stroke: rgb(0, 0, 0); stroke-width: 1; fill: none;"/></g><g class="arrow-line"><path class="connection real" stroke-dasharray="" d="  M118,210 L118,250" style="stroke: rgb(0, 0, 0); stroke-width: 1; fill: none;"/></g><g class="arrow-line"><path class="connection real" stroke-dasharray="" d="  M108,210 L108,250" style="stroke: rgb(0, 0, 0); stroke-width: 1; fill: none;"/></g><g class="arrow-line"><path class="connection real" stroke-dasharray="" d="  M148,210 L88,210" style="stroke: rgb(0, 0, 0); stroke-width: 1; fill: none;"/></g><g class="arrow-line"><path class="connection real" stroke-dasharray="" d="  M148,250 L88,250" style="stroke: rgb(0, 0, 0); stroke-width: 1; fill: none;"/></g><g class="arrow-line"><path class="connection real" stroke-dasharray="" d="  M148,250 L148,210" style="stroke: rgb(0, 0, 0); stroke-width: 1; fill: none;"/></g><g class="arrow-line"><path class="connection real" stroke-dasharray="" d="  M98,210 L98,250" style="stroke: rgb(0, 0, 0); stroke-width: 1; fill: none;"/></g><g class="arrow-line"><path class="connection real" stroke-dasharray="" d="  M68,230 L86,230" style="stroke: rgb(0, 0, 0); stroke-width: 1; fill: none;"/><g stroke="none" fill="#000" transform="matrix(-1,1.2246467991473532e-16,-1.2246467991473532e-16,-1,88,230)" style="stroke: none; fill: rgb(0, 0, 0); stroke-width: 1;"><path d=" M8.93,-4.29 L0,0 L8.93,4.29 Z"/></g></g><g class="arrow-line"><path class="connection real" stroke-dasharray="" d="  M148,230 L206.27,196.01" style="stroke: rgb(0, 0, 0); stroke-width: 1; fill: none;"/><g stroke="none" fill="#000" transform="matrix(-0.8637475669020221,0.5039247371094584,-0.5039247371094584,-0.8637475669020221,208,195)" style="stroke: none; fill: rgb(0, 0, 0); stroke-width: 1;"><path d=" M8.93,-4.29 L0,0 L8.93,4.29 Z"/></g></g><g class="arrow-line"><path class="connection real" stroke-dasharray="" d="  M148,230 L206.15,254.23" style="stroke: rgb(0, 0, 0); stroke-width: 1; fill: none;"/><g stroke="none" fill="#000" transform="matrix(-0.9230760164969142,-0.38461756040018324,0.38461756040018324,-0.9230760164969142,208.00000000000003,255)" style="stroke: none; fill: rgb(0, 0, 0); stroke-width: 1;"><path d=" M8.93,-4.29 L0,0 L8.93,4.29 Z"/></g></g><g class="composite-shape"><path class="real" d=" M528,75 C528,61.19 539.19,50 553,50 C566.81,50 578,61.19 578,75 C578,88.81 566.81,100 553,100 C539.19,100 528,88.81 528,75 Z" style="stroke-width: 1; stroke: rgb(0, 0, 0); fill: none;"/></g><g class="composite-shape"><path class="real" d=" M528,135 C528,121.19 539.19,110 553,110 C566.81,110 578,121.19 578,135 C578,148.81 566.81,160 553,160 C539.19,160 528,148.81 528,135 Z" style="stroke-width: 1; stroke: rgb(0, 0, 0); fill: none;"/></g><g class="composite-shape"><path class="real" d=" M528,195 C528,181.19 539.19,170 553,170 C566.81,170 578,181.19 578,195 C578,208.81 566.81,220 553,220 C539.19,220 528,208.81 528,195 Z" style="stroke-width: 1; stroke: rgb(0, 0, 0); fill: none;"/></g><g class="composite-shape"><path class="real" d=" M528,255 C528,241.19 539.19,230 553,230 C566.81,230 578,241.19 578,255 C578,268.81 566.81,280 553,280 C539.19,280 528,268.81 528,255 Z" style="stroke-width: 1; stroke: rgb(0, 0, 0); fill: none;"/></g><g class="arrow-line"><path class="connection real" stroke-dasharray="" d="  M468,160 L526.85,76.63" style="stroke: rgb(0, 0, 0); stroke-width: 1; fill: none;"/><g stroke="none" fill="#000" transform="matrix(-0.576717518424573,0.8169436357192597,-0.8169436357192597,-0.576717518424573,528,75)" style="stroke: none; fill: rgb(0, 0, 0); stroke-width: 1;"><path d=" M8.93,-4.29 L0,0 L8.93,4.29 Z"/></g></g><g class="arrow-line"><path class="connection real" stroke-dasharray="" d="  M468,160 L526.15,135.77" style="stroke: rgb(0, 0, 0); stroke-width: 1; fill: none;"/><g stroke="none" fill="#000" transform="matrix(-0.923076016496914,0.3846175604001837,-0.3846175604001837,-0.923076016496914,528,135)" style="stroke: none; fill: rgb(0, 0, 0); stroke-width: 1;"><path d=" M8.93,-4.29 L0,0 L8.93,4.29 Z"/></g></g><g class="arrow-line"><path class="connection real" stroke-dasharray="" d="  M468,160 L526.27,193.99" style="stroke: rgb(0, 0, 0); stroke-width: 1; fill: none;"/><g stroke="none" fill="#000" transform="matrix(-0.8637475669020221,-0.5039247371094584,0.5039247371094584,-0.8637475669020221,528,195)" style="stroke: none; fill: rgb(0, 0, 0); stroke-width: 1;"><path d=" M8.93,-4.29 L0,0 L8.93,4.29 Z"/></g></g><g class="arrow-line"><path class="connection real" stroke-dasharray="" d="  M468,160 L526.93,253.31" style="stroke: rgb(0, 0, 0); stroke-width: 1; fill: none;"/><g stroke="none" fill="#000" transform="matrix(-0.534057264800589,-0.8454483058790251,0.8454483058790251,-0.534057264800589,528,255)" style="stroke: none; fill: rgb(0, 0, 0); stroke-width: 1;"><path d=" M8.93,-4.29 L0,0 L8.93,4.29 Z"/></g></g><g class="arrow-line"><path class="connection real" stroke-dasharray="1.125 3.35" d="  M50,160 L310,160" style="stroke: rgb(0, 0, 0); stroke-width: 1; fill: none;"/></g><g class="intersections-group"><g style="stroke: rgb(0, 0, 0); stroke-width: 1; fill: none;"/></g></g><g/><g/><!-- react-empty: 2725 --></svg>
        <svg xmlns="http://www.w3.org/2000/svg" width="660" height="298.6640625" style="width:660px;height:298.6640625px;font-family:Asana-Math, Asana;background:transparent;"><g><g><g><g><g><g style="transform:matrix(1,0,0,1,375.24609375,167.25);"><path d="M209 656L209 648C211 643 213 639 218 637C235 642 266 653 282 653C334 653 343 500 347 460C219 320 120 161 25 -2L35 -16C60 -5 85 4 111 13C154 159 261 308 353 428C361 365 384 13 401 -6C456 -42 528 44 570 74L570 87L558 87L558 88C541 77 512 55 491 55C452 55 444 188 439 219C424 326 399 672 383 689C347 728 251 667 209 656Z" stroke="rgb(0, 0, 0)" stroke-width="8" fill="rgb(0, 0, 0)" style="transform:matrix(0.017,0,0,-0.017,0,0);"></path></g></g></g></g></g></g><g><g><text x="417.06640625" y="4.75" style="white-space:pre;stroke:none;fill:rgb(0, 0, 0);font-size:21.6px;font-family:Arial, Helvetica, sans-serif;font-weight:400;dominant-baseline:text-before-edge;text-decoration:none solid rgb(0, 0, 0);">Single Queue</text></g></g><g><g><g><g><g><g><g><g><g style="transform:matrix(1,0,0,1,53.73828125,83.25);"><path d="M209 656L209 648C211 643 213 639 218 637C235 642 266 653 282 653C334 653 343 500 347 460C219 320 120 161 25 -2L35 -16C60 -5 85 4 111 13C154 159 261 308 353 428C361 365 384 13 401 -6C456 -42 528 44 570 74L570 87L558 87L558 88C541 77 512 55 491 55C452 55 444 188 439 219C424 326 399 672 383 689C347 728 251 667 209 656Z" stroke="rgb(0, 0, 0)" stroke-width="8" fill="rgb(0, 0, 0)" style="transform:matrix(0.017,0,0,-0.017,0,0);"></path></g></g></g><g><g><g style="transform:matrix(1,0,0,1,54.73828125,109.25);"><path d="M16 23L16 -3C203 -3 203 0 239 0C275 0 275 -3 468 -3L468 82C353 77 307 81 122 77L304 270C401 373 431 428 431 503C431 618 353 689 226 689C154 689 105 669 56 619L39 483L68 483L81 529C97 587 133 612 200 612C286 612 341 558 341 473C341 398 299 324 186 204Z" stroke="rgb(0, 0, 0)" stroke-width="8" fill="rgb(0, 0, 0)" style="transform:matrix(0.017,0,0,-0.017,0,0);"></path></g></g></g><line style="fill:none;stroke-width:1px;stroke:rgb(0, 0, 0);" x1="53.73828125" y1="91.5" x2="64.24609375" y2="91.5"></line></g></g></g></g></g></g><g><g><text x="267.125" y="52.5" style="white-space:pre;stroke:none;fill:rgb(0, 0, 0);font-size:15px;font-family:Arial, Helvetica, sans-serif;font-weight:400;dominant-baseline:text-before-edge;text-decoration:none solid rgb(0, 0, 0);">1</text></g></g><g><g><text x="267.125" y="112.5" style="white-space:pre;stroke:none;fill:rgb(0, 0, 0);font-size:15px;font-family:Arial, Helvetica, sans-serif;font-weight:400;dominant-baseline:text-before-edge;text-decoration:none solid rgb(0, 0, 0);">2</text></g></g><g><g><text x="124.48046875" y="4.75" style="white-space:pre;stroke:none;fill:rgb(0, 0, 0);font-size:21.6px;font-family:Arial, Helvetica, sans-serif;font-weight:400;dominant-baseline:text-before-edge;text-decoration:none solid rgb(0, 0, 0);">Fast Lane</text></g></g><g><g><g><g><g><g><g><g><g style="transform:matrix(1,0,0,1,227.8046875,58.390625);"><path d="M409 -15C458 -15 530 43 565 74L565 81C562 86 558 90 553 92C531 76 472 25 461 77C461 151 506 393 533 463L533 473C511 465 488 459 465 456L455 445C453 381 421 203 395 146C372 97 311 42 254 42C199 42 184 90 185 137C188 248 238 356 241 467C213 462 187 457 161 453C179 227 9 -91 53 -286C76 -285 109 -281 131 -273L131 -261C81 -173 121 -38 138 36L138 35C204 -77 344 37 395 104L395 101C387 65 354 -15 409 -15Z" stroke="rgb(0, 0, 0)" stroke-width="8" fill="rgb(0, 0, 0)" style="transform:matrix(0.017,0,0,-0.017,0,0);"></path></g></g></g><g><g><g style="transform:matrix(1,0,0,1,228.8046875,83.6796875);"><path d="M16 23L16 -3C203 -3 203 0 239 0C275 0 275 -3 468 -3L468 82C353 77 307 81 122 77L304 270C401 373 431 428 431 503C431 618 353 689 226 689C154 689 105 669 56 619L39 483L68 483L81 529C97 587 133 612 200 612C286 612 341 558 341 473C341 398 299 324 186 204Z" stroke="rgb(0, 0, 0)" stroke-width="8" fill="rgb(0, 0, 0)" style="transform:matrix(0.017,0,0,-0.017,0,0);"></path></g></g></g><line style="fill:none;stroke-width:1px;stroke:rgb(0, 0, 0);" x1="227.8046875" y1="66.0703125" x2="238.1796875" y2="66.0703125"></line></g></g></g></g></g></g><g><g><g><g><g><g><g><g><g style="transform:matrix(1,0,0,1,227.8046875,118.390625);"><path d="M409 -15C458 -15 530 43 565 74L565 81C562 86 558 90 553 92C531 76 472 25 461 77C461 151 506 393 533 463L533 473C511 465 488 459 465 456L455 445C453 381 421 203 395 146C372 97 311 42 254 42C199 42 184 90 185 137C188 248 238 356 241 467C213 462 187 457 161 453C179 227 9 -91 53 -286C76 -285 109 -281 131 -273L131 -261C81 -173 121 -38 138 36L138 35C204 -77 344 37 395 104L395 101C387 65 354 -15 409 -15Z" stroke="rgb(0, 0, 0)" stroke-width="8" fill="rgb(0, 0, 0)" style="transform:matrix(0.017,0,0,-0.017,0,0);"></path></g></g></g><g><g><g style="transform:matrix(1,0,0,1,228.8046875,143.6796875);"><path d="M16 23L16 -3C203 -3 203 0 239 0C275 0 275 -3 468 -3L468 82C353 77 307 81 122 77L304 270C401 373 431 428 431 503C431 618 353 689 226 689C154 689 105 669 56 619L39 483L68 483L81 529C97 587 133 612 200 612C286 612 341 558 341 473C341 398 299 324 186 204Z" stroke="rgb(0, 0, 0)" stroke-width="8" fill="rgb(0, 0, 0)" style="transform:matrix(0.017,0,0,-0.017,0,0);"></path></g></g></g><line style="fill:none;stroke-width:1px;stroke:rgb(0, 0, 0);" x1="227.8046875" y1="126.0703125" x2="238.1796875" y2="126.0703125"></line></g></g></g></g></g></g><g><g><text x="267.125" y="182.5" style="white-space:pre;stroke:none;fill:rgb(0, 0, 0);font-size:15px;font-family:Arial, Helvetica, sans-serif;font-weight:400;dominant-baseline:text-before-edge;text-decoration:none solid rgb(0, 0, 0);">3</text></g></g><g><g><g><g><g><g style="transform:matrix(1,0,0,1,223.5703125,201.75);"><path d="M16 23L16 -3C203 -3 203 0 239 0C275 0 275 -3 468 -3L468 82C353 77 307 81 122 77L304 270C401 373 431 428 431 503C431 618 353 689 226 689C154 689 105 669 56 619L39 483L68 483L81 529C97 587 133 612 200 612C286 612 341 558 341 473C341 398 299 324 186 204ZM908 -15C957 -15 1029 43 1064 74L1064 81C1061 86 1057 90 1052 92C1030 76 971 25 960 77C960 151 1005 393 1032 463L1032 473C1010 465 987 459 964 456L954 445C952 381 920 203 894 146C871 97 810 42 753 42C698 42 683 90 684 137C687 248 737 356 740 467C712 462 686 457 660 453C678 227 508 -91 552 -286C575 -285 608 -281 630 -273L630 -261C580 -173 620 -38 637 36L637 35C703 -77 843 37 894 104L894 101C886 65 853 -15 908 -15Z" stroke="rgb(0, 0, 0)" stroke-width="8" fill="rgb(0, 0, 0)" style="transform:matrix(0.017,0,0,-0.017,0,0);"></path></g></g></g></g></g></g><g><g><text x="267.125" y="242.5" style="white-space:pre;stroke:none;fill:rgb(0, 0, 0);font-size:15px;font-family:Arial, Helvetica, sans-serif;font-weight:400;dominant-baseline:text-before-edge;text-decoration:none solid rgb(0, 0, 0);">4</text></g></g><g><g><g><g><g><g style="transform:matrix(1,0,0,1,223.5703125,261.75);"><path d="M16 23L16 -3C203 -3 203 0 239 0C275 0 275 -3 468 -3L468 82C353 77 307 81 122 77L304 270C401 373 431 428 431 503C431 618 353 689 226 689C154 689 105 669 56 619L39 483L68 483L81 529C97 587 133 612 200 612C286 612 341 558 341 473C341 398 299 324 186 204ZM908 -15C957 -15 1029 43 1064 74L1064 81C1061 86 1057 90 1052 92C1030 76 971 25 960 77C960 151 1005 393 1032 463L1032 473C1010 465 987 459 964 456L954 445C952 381 920 203 894 146C871 97 810 42 753 42C698 42 683 90 684 137C687 248 737 356 740 467C712 462 686 457 660 453C678 227 508 -91 552 -286C575 -285 608 -281 630 -273L630 -261C580 -173 620 -38 637 36L637 35C703 -77 843 37 894 104L894 101C886 65 853 -15 908 -15Z" stroke="rgb(0, 0, 0)" stroke-width="8" fill="rgb(0, 0, 0)" style="transform:matrix(0.017,0,0,-0.017,0,0);"></path></g></g></g></g></g></g><g><g><g><g><g><g><g><g><g style="transform:matrix(1,0,0,1,53.73828125,223.25);"><path d="M209 656L209 648C211 643 213 639 218 637C235 642 266 653 282 653C334 653 343 500 347 460C219 320 120 161 25 -2L35 -16C60 -5 85 4 111 13C154 159 261 308 353 428C361 365 384 13 401 -6C456 -42 528 44 570 74L570 87L558 87L558 88C541 77 512 55 491 55C452 55 444 188 439 219C424 326 399 672 383 689C347 728 251 667 209 656Z" stroke="rgb(0, 0, 0)" stroke-width="8" fill="rgb(0, 0, 0)" style="transform:matrix(0.017,0,0,-0.017,0,0);"></path></g></g></g><g><g><g style="transform:matrix(1,0,0,1,54.73828125,249.25);"><path d="M16 23L16 -3C203 -3 203 0 239 0C275 0 275 -3 468 -3L468 82C353 77 307 81 122 77L304 270C401 373 431 428 431 503C431 618 353 689 226 689C154 689 105 669 56 619L39 483L68 483L81 529C97 587 133 612 200 612C286 612 341 558 341 473C341 398 299 324 186 204Z" stroke="rgb(0, 0, 0)" stroke-width="8" fill="rgb(0, 0, 0)" style="transform:matrix(0.017,0,0,-0.017,0,0);"></path></g></g></g><line style="fill:none;stroke-width:1px;stroke:rgb(0, 0, 0);" x1="53.73828125" y1="231.5" x2="64.24609375" y2="231.5"></line></g></g></g></g></g></g><g><g><text x="587.125" y="62.5" style="white-space:pre;stroke:none;fill:rgb(0, 0, 0);font-size:15px;font-family:Arial, Helvetica, sans-serif;font-weight:400;dominant-baseline:text-before-edge;text-decoration:none solid rgb(0, 0, 0);">1</text></g></g><g><g><text x="587.125" y="122.5" style="white-space:pre;stroke:none;fill:rgb(0, 0, 0);font-size:15px;font-family:Arial, Helvetica, sans-serif;font-weight:400;dominant-baseline:text-before-edge;text-decoration:none solid rgb(0, 0, 0);">2</text></g></g><g><g><g><g><g><g><g><g><g style="transform:matrix(1,0,0,1,547.8046875,68.390625);"><path d="M409 -15C458 -15 530 43 565 74L565 81C562 86 558 90 553 92C531 76 472 25 461 77C461 151 506 393 533 463L533 473C511 465 488 459 465 456L455 445C453 381 421 203 395 146C372 97 311 42 254 42C199 42 184 90 185 137C188 248 238 356 241 467C213 462 187 457 161 453C179 227 9 -91 53 -286C76 -285 109 -281 131 -273L131 -261C81 -173 121 -38 138 36L138 35C204 -77 344 37 395 104L395 101C387 65 354 -15 409 -15Z" stroke="rgb(0, 0, 0)" stroke-width="8" fill="rgb(0, 0, 0)" style="transform:matrix(0.017,0,0,-0.017,0,0);"></path></g></g></g><g><g><g style="transform:matrix(1,0,0,1,548.8046875,93.6796875);"><path d="M16 23L16 -3C203 -3 203 0 239 0C275 0 275 -3 468 -3L468 82C353 77 307 81 122 77L304 270C401 373 431 428 431 503C431 618 353 689 226 689C154 689 105 669 56 619L39 483L68 483L81 529C97 587 133 612 200 612C286 612 341 558 341 473C341 398 299 324 186 204Z" stroke="rgb(0, 0, 0)" stroke-width="8" fill="rgb(0, 0, 0)" style="transform:matrix(0.017,0,0,-0.017,0,0);"></path></g></g></g><line style="fill:none;stroke-width:1px;stroke:rgb(0, 0, 0);" x1="547.8046875" y1="76.0703125" x2="558.1796875" y2="76.0703125"></line></g></g></g></g></g></g><g><g><g><g><g><g><g><g><g style="transform:matrix(1,0,0,1,547.8046875,128.390625);"><path d="M409 -15C458 -15 530 43 565 74L565 81C562 86 558 90 553 92C531 76 472 25 461 77C461 151 506 393 533 463L533 473C511 465 488 459 465 456L455 445C453 381 421 203 395 146C372 97 311 42 254 42C199 42 184 90 185 137C188 248 238 356 241 467C213 462 187 457 161 453C179 227 9 -91 53 -286C76 -285 109 -281 131 -273L131 -261C81 -173 121 -38 138 36L138 35C204 -77 344 37 395 104L395 101C387 65 354 -15 409 -15Z" stroke="rgb(0, 0, 0)" stroke-width="8" fill="rgb(0, 0, 0)" style="transform:matrix(0.017,0,0,-0.017,0,0);"></path></g></g></g><g><g><g style="transform:matrix(1,0,0,1,548.8046875,153.6796875);"><path d="M16 23L16 -3C203 -3 203 0 239 0C275 0 275 -3 468 -3L468 82C353 77 307 81 122 77L304 270C401 373 431 428 431 503C431 618 353 689 226 689C154 689 105 669 56 619L39 483L68 483L81 529C97 587 133 612 200 612C286 612 341 558 341 473C341 398 299 324 186 204Z" stroke="rgb(0, 0, 0)" stroke-width="8" fill="rgb(0, 0, 0)" style="transform:matrix(0.017,0,0,-0.017,0,0);"></path></g></g></g><line style="fill:none;stroke-width:1px;stroke:rgb(0, 0, 0);" x1="547.8046875" y1="136.0703125" x2="558.1796875" y2="136.0703125"></line></g></g></g></g></g></g><g><g><text x="587.125" y="182.5" style="white-space:pre;stroke:none;fill:rgb(0, 0, 0);font-size:15px;font-family:Arial, Helvetica, sans-serif;font-weight:400;dominant-baseline:text-before-edge;text-decoration:none solid rgb(0, 0, 0);">3</text></g></g><g><g><g><g><g><g style="transform:matrix(1,0,0,1,543.5703125,201.75);"><path d="M16 23L16 -3C203 -3 203 0 239 0C275 0 275 -3 468 -3L468 82C353 77 307 81 122 77L304 270C401 373 431 428 431 503C431 618 353 689 226 689C154 689 105 669 56 619L39 483L68 483L81 529C97 587 133 612 200 612C286 612 341 558 341 473C341 398 299 324 186 204ZM908 -15C957 -15 1029 43 1064 74L1064 81C1061 86 1057 90 1052 92C1030 76 971 25 960 77C960 151 1005 393 1032 463L1032 473C1010 465 987 459 964 456L954 445C952 381 920 203 894 146C871 97 810 42 753 42C698 42 683 90 684 137C687 248 737 356 740 467C712 462 686 457 660 453C678 227 508 -91 552 -286C575 -285 608 -281 630 -273L630 -261C580 -173 620 -38 637 36L637 35C703 -77 843 37 894 104L894 101C886 65 853 -15 908 -15Z" stroke="rgb(0, 0, 0)" stroke-width="8" fill="rgb(0, 0, 0)" style="transform:matrix(0.017,0,0,-0.017,0,0);"></path></g></g></g></g></g></g><g><g><text x="587.125" y="242.5" style="white-space:pre;stroke:none;fill:rgb(0, 0, 0);font-size:15px;font-family:Arial, Helvetica, sans-serif;font-weight:400;dominant-baseline:text-before-edge;text-decoration:none solid rgb(0, 0, 0);">4</text></g></g><g><g><g><g><g><g style="transform:matrix(1,0,0,1,543.5703125,261.75);"><path d="M16 23L16 -3C203 -3 203 0 239 0C275 0 275 -3 468 -3L468 82C353 77 307 81 122 77L304 270C401 373 431 428 431 503C431 618 353 689 226 689C154 689 105 669 56 619L39 483L68 483L81 529C97 587 133 612 200 612C286 612 341 558 341 473C341 398 299 324 186 204ZM908 -15C957 -15 1029 43 1064 74L1064 81C1061 86 1057 90 1052 92C1030 76 971 25 960 77C960 151 1005 393 1032 463L1032 473C1010 465 987 459 964 456L954 445C952 381 920 203 894 146C871 97 810 42 753 42C698 42 683 90 684 137C687 248 737 356 740 467C712 462 686 457 660 453C678 227 508 -91 552 -286C575 -285 608 -281 630 -273L630 -261C580 -173 620 -38 637 36L637 35C703 -77 843 37 894 104L894 101C886 65 853 -15 908 -15Z" stroke="rgb(0, 0, 0)" stroke-width="8" fill="rgb(0, 0, 0)" style="transform:matrix(0.017,0,0,-0.017,0,0);"></path></g></g></g></g></g></g></svg>
</svg>
