<svg xmlns="http://www.w3.org/2000/svg" width="662" height="195" style="
        width:662px;
        height:195px;
        background: transparent;
        fill: none;
">
        
        <svg xmlns="http://www.w3.org/2000/svg"><g class="shapes-region" style="stroke: black; fill: none;"><g class="grouped-shape"><g class="composite-shape ignore-highlight"><path class="real" d=" M200,60 C200,48.95 208.95,40 220,40 C231.05,40 240,48.95 240,60 C240,71.05 231.05,80 220,80 C208.95,80 200,71.05 200,60 Z" style="stroke-width: 1; stroke: rgb(0, 0, 0); fill: none;"/></g></g><g class="arrow-line"><path class="connection real" stroke-dasharray="" d="  M190,40 L190,80" style="stroke: rgb(0, 0, 0); stroke-width: 1; fill: none;"/></g><g class="arrow-line"><path class="connection real" stroke-dasharray="" d="  M180,40 L180,80" style="stroke: rgb(0, 0, 0); stroke-width: 1; fill: none;"/></g><g class="arrow-line"><path class="connection real" stroke-dasharray="" d="  M170,40 L170,80" style="stroke: rgb(0, 0, 0); stroke-width: 1; fill: none;"/></g><g class="arrow-line"><path class="connection real" stroke-dasharray="" d="  M160,40 L160,80" style="stroke: rgb(0, 0, 0); stroke-width: 1; fill: none;"/></g><g class="arrow-line"><path class="connection real" stroke-dasharray="" d="  M200,40 L140,40" style="stroke: rgb(0, 0, 0); stroke-width: 1; fill: none;"/></g><g class="arrow-line"><path class="connection real" stroke-dasharray="" d="  M200,80 L140,80" style="stroke: rgb(0, 0, 0); stroke-width: 1; fill: none;"/></g><g class="arrow-line"><path class="connection real" stroke-dasharray="" d="  M200,80 L200,40" style="stroke: rgb(0, 0, 0); stroke-width: 1; fill: none;"/></g><g class="grouped-shape"><g class="composite-shape ignore-highlight"><path class="real" d=" M200,110 C200,98.95 208.95,90 220,90 C231.05,90 240,98.95 240,110 C240,121.05 231.05,130 220,130 C208.95,130 200,121.05 200,110 Z" style="stroke-width: 1; stroke: rgb(0, 0, 0); fill: none;"/></g></g><g class="grouped-shape"><g class="composite-shape ignore-highlight"><path class="real" d=" M200,160 C200,148.95 208.95,140 220,140 C231.05,140 240,148.95 240,160 C240,171.05 231.05,180 220,180 C208.95,180 200,171.05 200,160 Z" style="stroke-width: 1; stroke: rgb(0, 0, 0); fill: none;"/></g></g><g class="arrow-line"><path class="connection real" stroke-dasharray="" d="  M190,90 L190,130" style="stroke: rgb(0, 0, 0); stroke-width: 1; fill: none;"/></g><g class="arrow-line"><path class="connection real" stroke-dasharray="" d="  M180,90 L180,130" style="stroke: rgb(0, 0, 0); stroke-width: 1; fill: none;"/></g><g class="arrow-line"><path class="connection real" stroke-dasharray="" d="  M170,90 L170,130" style="stroke: rgb(0, 0, 0); stroke-width: 1; fill: none;"/></g><g class="arrow-line"><path class="connection real" stroke-dasharray="" d="  M200,90 L140,90" style="stroke: rgb(0, 0, 0); stroke-width: 1; fill: none;"/></g><g class="arrow-line"><path class="connection real" stroke-dasharray="" d="  M200,130 L140,130" style="stroke: rgb(0, 0, 0); stroke-width: 1; fill: none;"/></g><g class="arrow-line"><path class="connection real" stroke-dasharray="" d="  M200,130 L200,90" style="stroke: rgb(0, 0, 0); stroke-width: 1; fill: none;"/></g><g class="arrow-line"><path class="connection real" stroke-dasharray="" d="  M190,140 L190,180" style="stroke: rgb(0, 0, 0); stroke-width: 1; fill: none;"/></g><g class="arrow-line"><path class="connection real" stroke-dasharray="" d="  M180,140 L180,180" style="stroke: rgb(0, 0, 0); stroke-width: 1; fill: none;"/></g><g class="arrow-line"><path class="connection real" stroke-dasharray="" d="  M170,140 L170,180" style="stroke: rgb(0, 0, 0); stroke-width: 1; fill: none;"/></g><g class="arrow-line"><path class="connection real" stroke-dasharray="" d="  M160,140 L160,180" style="stroke: rgb(0, 0, 0); stroke-width: 1; fill: none;"/></g><g class="arrow-line"><path class="connection real" stroke-dasharray="" d="  M200,140 L140,140" style="stroke: rgb(0, 0, 0); stroke-width: 1; fill: none;"/></g><g class="arrow-line"><path class="connection real" stroke-dasharray="" d="  M200,180 L140,180" style="stroke: rgb(0, 0, 0); stroke-width: 1; fill: none;"/></g><g class="arrow-line"><path class="connection real" stroke-dasharray="" d="  M200,180 L200,140" style="stroke: rgb(0, 0, 0); stroke-width: 1; fill: none;"/></g><g class="arrow-line"><path class="connection real" stroke-dasharray="" d="  M150,40 L150,80" style="stroke: rgb(0, 0, 0); stroke-width: 1; fill: none;"/></g><g class="arrow-line"><path class="connection real" stroke-dasharray="" d="  M100,60 L138,60" style="stroke: rgb(0, 0, 0); stroke-width: 1; fill: none;"/><g stroke="none" fill="#000" transform="matrix(-1,1.2246467991473532e-16,-1.2246467991473532e-16,-1,140,60)" style="stroke: none; fill: rgb(0, 0, 0); stroke-width: 1;"><path d=" M8.93,-4.29 L0,0 L8.93,4.29 Z"/></g></g><g class="arrow-line"><path class="connection real" stroke-dasharray="" d="  M100,110 L138,110" style="stroke: rgb(0, 0, 0); stroke-width: 1; fill: none;"/><g stroke="none" fill="#000" transform="matrix(-1,1.2246467991473532e-16,-1.2246467991473532e-16,-1,140,110.00000000000001)" style="stroke: none; fill: rgb(0, 0, 0); stroke-width: 1;"><path d=" M8.93,-4.29 L0,0 L8.93,4.29 Z"/></g></g><g class="arrow-line"><path class="connection real" stroke-dasharray="" d="  M100,160 L138,160" style="stroke: rgb(0, 0, 0); stroke-width: 1; fill: none;"/><g stroke="none" fill="#000" transform="matrix(-1,1.2246467991473532e-16,-1.2246467991473532e-16,-1,139.99999999999997,160.00000000000003)" style="stroke: none; fill: rgb(0, 0, 0); stroke-width: 1;"><path d=" M8.93,-4.29 L0,0 L8.93,4.29 Z"/></g></g><g class="grouped-shape"><g class="composite-shape ignore-highlight"><path class="real" d=" M510,60 C510,48.95 518.95,40 530,40 C541.05,40 550,48.95 550,60 C550,71.05 541.05,80 530,80 C518.95,80 510,71.05 510,60 Z" style="stroke-width: 1; stroke: rgb(0, 0, 0); fill: none;"/></g></g><g class="arrow-line"><path class="connection real" stroke-dasharray="" d="  M470,90 L470,130" style="stroke: rgb(0, 0, 0); stroke-width: 1; fill: none;"/></g><g class="arrow-line"><path class="connection real" stroke-dasharray="" d="  M460,90 L460,130" style="stroke: rgb(0, 0, 0); stroke-width: 1; fill: none;"/></g><g class="arrow-line"><path class="connection real" stroke-dasharray="" d="  M450,90 L450,130" style="stroke: rgb(0, 0, 0); stroke-width: 1; fill: none;"/></g><g class="arrow-line"><path class="connection real" stroke-dasharray="" d="  M440,90 L440,130" style="stroke: rgb(0, 0, 0); stroke-width: 1; fill: none;"/></g><g class="arrow-line"><path class="connection real" stroke-dasharray="" d="  M480,90 L420,90" style="stroke: rgb(0, 0, 0); stroke-width: 1; fill: none;"/></g><g class="arrow-line"><path class="connection real" stroke-dasharray="" d="  M480,130 L420,130" style="stroke: rgb(0, 0, 0); stroke-width: 1; fill: none;"/></g><g class="arrow-line"><path class="connection real" stroke-dasharray="" d="  M480,130 L480,90" style="stroke: rgb(0, 0, 0); stroke-width: 1; fill: none;"/></g><g class="grouped-shape"><g class="composite-shape ignore-highlight"><path class="real" d=" M510,110 C510,98.95 518.95,90 530,90 C541.05,90 550,98.95 550,110 C550,121.05 541.05,130 530,130 C518.95,130 510,121.05 510,110 Z" style="stroke-width: 1; stroke: rgb(0, 0, 0); fill: none;"/></g></g><g class="grouped-shape"><g class="composite-shape ignore-highlight"><path class="real" d=" M510,160 C510,148.95 518.95,140 530,140 C541.05,140 550,148.95 550,160 C550,171.05 541.05,180 530,180 C518.95,180 510,171.05 510,160 Z" style="stroke-width: 1; stroke: rgb(0, 0, 0); fill: none;"/></g></g><g class="arrow-line"><path class="connection real" stroke-dasharray="" d="  M430,90 L430,130" style="stroke: rgb(0, 0, 0); stroke-width: 1; fill: none;"/></g><g class="arrow-line"><path class="connection real" stroke-dasharray="" d="  M400,110 L418,110" style="stroke: rgb(0, 0, 0); stroke-width: 1; fill: none;"/><g stroke="none" fill="#000" transform="matrix(-1,1.2246467991473532e-16,-1.2246467991473532e-16,-1,420,110)" style="stroke: none; fill: rgb(0, 0, 0); stroke-width: 1;"><path d=" M8.93,-4.29 L0,0 L8.93,4.29 Z"/></g></g><g class="arrow-line"><path class="connection real" stroke-dasharray="" d="  M480,110 L508.97,61.71" style="stroke: rgb(0, 0, 0); stroke-width: 1; fill: none;"/><g stroke="none" fill="#000" transform="matrix(-0.5144395337815063,0.8575266561936523,-0.8575266561936523,-0.5144395337815063,510,60)" style="stroke: none; fill: rgb(0, 0, 0); stroke-width: 1;"><path d=" M8.93,-4.29 L0,0 L8.93,4.29 Z"/></g></g><g class="arrow-line"><path class="connection real" stroke-dasharray="" d="  M480,110 L508,110" style="stroke: rgb(0, 0, 0); stroke-width: 1; fill: none;"/><g stroke="none" fill="#000" transform="matrix(-1,1.2246467991473532e-16,-1.2246467991473532e-16,-1,510,110)" style="stroke: none; fill: rgb(0, 0, 0); stroke-width: 1;"><path d=" M8.93,-4.29 L0,0 L8.93,4.29 Z"/></g></g><g class="arrow-line"><path class="connection real" stroke-dasharray="" d="  M480,110 L508.97,158.29" style="stroke: rgb(0, 0, 0); stroke-width: 1; fill: none;"/><g stroke="none" fill="#000" transform="matrix(-0.5144395337815068,-0.8575266561936521,0.8575266561936521,-0.5144395337815068,510,160)" style="stroke: none; fill: rgb(0, 0, 0); stroke-width: 1;"><path d=" M8.93,-4.29 L0,0 L8.93,4.29 Z"/></g></g><g class="intersections-group"><g style="stroke: rgb(0, 0, 0); stroke-width: 1; fill: none;"/></g></g><g/><g/><!-- react-empty: 66868 --></svg>
        <svg xmlns="http://www.w3.org/2000/svg" width="660" height="193" style="width:660px;height:193px;font-family:Asana-Math, Asana;background:transparent;"><g><g><g><g><g><g style="transform:matrix(1,0,0,1,214.8125,66.75);"><path d="M409 -15C458 -15 530 43 565 74L565 81C562 86 558 90 553 92C531 76 472 25 461 77C461 151 506 393 533 463L533 473C511 465 488 459 465 456L455 445C453 381 421 203 395 146C372 97 311 42 254 42C199 42 184 90 185 137C188 248 238 356 241 467C213 462 187 457 161 453C179 227 9 -91 53 -286C76 -285 109 -281 131 -273L131 -261C81 -173 121 -38 138 36L138 35C204 -77 344 37 395 104L395 101C387 65 354 -15 409 -15Z" stroke="rgb(0, 0, 0)" stroke-width="8" fill="rgb(0, 0, 0)" style="transform:matrix(0.017,0,0,-0.017,0,0);"></path></g></g></g></g></g></g><g><g><g><g><g><g style="transform:matrix(1,0,0,1,214.8125,116.75);"><path d="M409 -15C458 -15 530 43 565 74L565 81C562 86 558 90 553 92C531 76 472 25 461 77C461 151 506 393 533 463L533 473C511 465 488 459 465 456L455 445C453 381 421 203 395 146C372 97 311 42 254 42C199 42 184 90 185 137C188 248 238 356 241 467C213 462 187 457 161 453C179 227 9 -91 53 -286C76 -285 109 -281 131 -273L131 -261C81 -173 121 -38 138 36L138 35C204 -77 344 37 395 104L395 101C387 65 354 -15 409 -15Z" stroke="rgb(0, 0, 0)" stroke-width="8" fill="rgb(0, 0, 0)" style="transform:matrix(0.017,0,0,-0.017,0,0);"></path></g></g></g></g></g></g><g><g><g><g><g><g style="transform:matrix(1,0,0,1,214.8125,166.75);"><path d="M409 -15C458 -15 530 43 565 74L565 81C562 86 558 90 553 92C531 76 472 25 461 77C461 151 506 393 533 463L533 473C511 465 488 459 465 456L455 445C453 381 421 203 395 146C372 97 311 42 254 42C199 42 184 90 185 137C188 248 238 356 241 467C213 462 187 457 161 453C179 227 9 -91 53 -286C76 -285 109 -281 131 -273L131 -261C81 -173 121 -38 138 36L138 35C204 -77 344 37 395 104L395 101C387 65 354 -15 409 -15Z" stroke="rgb(0, 0, 0)" stroke-width="8" fill="rgb(0, 0, 0)" style="transform:matrix(0.017,0,0,-0.017,0,0);"></path></g></g></g></g></g></g><g><g><g><g><g><g><g><g><g style="transform:matrix(1,0,0,1,83.73828125,153.25);"><path d="M209 656L209 648C211 643 213 639 218 637C235 642 266 653 282 653C334 653 343 500 347 460C219 320 120 161 25 -2L35 -16C60 -5 85 4 111 13C154 159 261 308 353 428C361 365 384 13 401 -6C456 -42 528 44 570 74L570 87L558 87L558 88C541 77 512 55 491 55C452 55 444 188 439 219C424 326 399 672 383 689C347 728 251 667 209 656Z" stroke="rgb(0, 0, 0)" stroke-width="8" fill="rgb(0, 0, 0)" style="transform:matrix(0.017,0,0,-0.017,0,0);"></path></g></g></g><g><g><g style="transform:matrix(1,0,0,1,85.73828125,179.25);"><path d="M342 330L365 330C373 395 380 432 389 458C365 473 330 482 293 482C248 483 175 463 118 400C64 352 25 241 25 136C25 40 67 -11 147 -11C201 -11 249 9 304 54L354 95L346 115L331 105C259 57 221 40 186 40C130 40 101 80 101 159C101 267 136 371 185 409C206 425 230 433 261 433C306 433 342 414 342 390Z" stroke="rgb(0, 0, 0)" stroke-width="8" fill="rgb(0, 0, 0)" style="transform:matrix(0.017,0,0,-0.017,0,0);"></path></g></g></g><line style="fill:none;stroke-width:1px;stroke:rgb(0, 0, 0);" x1="83.73828125" y1="161.5" x2="94.24609375" y2="161.5"></line></g></g></g></g></g></g><g><g><g><g><g><g><g><g><g style="transform:matrix(1,0,0,1,85.73828125,103.25);"><path d="M209 656L209 648C211 643 213 639 218 637C235 642 266 653 282 653C334 653 343 500 347 460C219 320 120 161 25 -2L35 -16C60 -5 85 4 111 13C154 159 261 308 353 428C361 365 384 13 401 -6C456 -42 528 44 570 74L570 87L558 87L558 88C541 77 512 55 491 55C452 55 444 188 439 219C424 326 399 672 383 689C347 728 251 667 209 656Z" stroke="rgb(0, 0, 0)" stroke-width="8" fill="rgb(0, 0, 0)" style="transform:matrix(0.017,0,0,-0.017,0,0);"></path></g></g></g><g><g><g style="transform:matrix(1,0,0,1,87.73828125,129.25);"><path d="M342 330L365 330C373 395 380 432 389 458C365 473 330 482 293 482C248 483 175 463 118 400C64 352 25 241 25 136C25 40 67 -11 147 -11C201 -11 249 9 304 54L354 95L346 115L331 105C259 57 221 40 186 40C130 40 101 80 101 159C101 267 136 371 185 409C206 425 230 433 261 433C306 433 342 414 342 390Z" stroke="rgb(0, 0, 0)" stroke-width="8" fill="rgb(0, 0, 0)" style="transform:matrix(0.017,0,0,-0.017,0,0);"></path></g></g></g><line style="fill:none;stroke-width:1px;stroke:rgb(0, 0, 0);" x1="85.73828125" y1="111.5" x2="96.24609375" y2="111.5"></line></g></g></g></g></g></g><g><g><g><g><g><g><g><g><g style="transform:matrix(1,0,0,1,85.73828125,53.25);"><path d="M209 656L209 648C211 643 213 639 218 637C235 642 266 653 282 653C334 653 343 500 347 460C219 320 120 161 25 -2L35 -16C60 -5 85 4 111 13C154 159 261 308 353 428C361 365 384 13 401 -6C456 -42 528 44 570 74L570 87L558 87L558 88C541 77 512 55 491 55C452 55 444 188 439 219C424 326 399 672 383 689C347 728 251 667 209 656Z" stroke="rgb(0, 0, 0)" stroke-width="8" fill="rgb(0, 0, 0)" style="transform:matrix(0.017,0,0,-0.017,0,0);"></path></g></g></g><g><g><g style="transform:matrix(1,0,0,1,87.73828125,79.25);"><path d="M342 330L365 330C373 395 380 432 389 458C365 473 330 482 293 482C248 483 175 463 118 400C64 352 25 241 25 136C25 40 67 -11 147 -11C201 -11 249 9 304 54L354 95L346 115L331 105C259 57 221 40 186 40C130 40 101 80 101 159C101 267 136 371 185 409C206 425 230 433 261 433C306 433 342 414 342 390Z" stroke="rgb(0, 0, 0)" stroke-width="8" fill="rgb(0, 0, 0)" style="transform:matrix(0.017,0,0,-0.017,0,0);"></path></g></g></g><line style="fill:none;stroke-width:1px;stroke:rgb(0, 0, 0);" x1="85.73828125" y1="61.5" x2="96.24609375" y2="61.5"></line></g></g></g></g></g></g><g><g><text x="249.125" y="52" style="white-space:pre;stroke:none;fill:rgb(0, 0, 0);font-size:15px;font-family:Arial, Helvetica, sans-serif;font-weight:400;dominant-baseline:text-before-edge;text-decoration:none solid rgb(0, 0, 0);">1</text></g></g><g><g><text x="249.125" y="100.5" style="white-space:pre;stroke:none;fill:rgb(0, 0, 0);font-size:15px;font-family:Arial, Helvetica, sans-serif;font-weight:400;dominant-baseline:text-before-edge;text-decoration:none solid rgb(0, 0, 0);">2</text></g></g><g><g><text x="249.125" y="150.5" style="white-space:pre;stroke:none;fill:rgb(0, 0, 0);font-size:15px;font-family:Arial, Helvetica, sans-serif;font-weight:400;dominant-baseline:text-before-edge;text-decoration:none solid rgb(0, 0, 0);">c</text></g></g><g><g><text x="245.24609375" y="120.5" style="white-space:pre;stroke:none;fill:rgb(0, 0, 0);font-size:15px;font-family:Arial, Helvetica, sans-serif;font-weight:400;dominant-baseline:text-before-edge;text-decoration:none solid rgb(0, 0, 0);">...</text></g></g><g><g><g><g><g><g style="transform:matrix(1,0,0,1,387.24609375,117.25);"><path d="M209 656L209 648C211 643 213 639 218 637C235 642 266 653 282 653C334 653 343 500 347 460C219 320 120 161 25 -2L35 -16C60 -5 85 4 111 13C154 159 261 308 353 428C361 365 384 13 401 -6C456 -42 528 44 570 74L570 87L558 87L558 88C541 77 512 55 491 55C452 55 444 188 439 219C424 326 399 672 383 689C347 728 251 667 209 656Z" stroke="rgb(0, 0, 0)" stroke-width="8" fill="rgb(0, 0, 0)" style="transform:matrix(0.017,0,0,-0.017,0,0);"></path></g></g></g></g></g></g><g><g><text x="559.125" y="52" style="white-space:pre;stroke:none;fill:rgb(0, 0, 0);font-size:15px;font-family:Arial, Helvetica, sans-serif;font-weight:400;dominant-baseline:text-before-edge;text-decoration:none solid rgb(0, 0, 0);">1</text></g></g><g><g><text x="559.125" y="100.5" style="white-space:pre;stroke:none;fill:rgb(0, 0, 0);font-size:15px;font-family:Arial, Helvetica, sans-serif;font-weight:400;dominant-baseline:text-before-edge;text-decoration:none solid rgb(0, 0, 0);">2</text></g></g><g><g><text x="559.125" y="150.5" style="white-space:pre;stroke:none;fill:rgb(0, 0, 0);font-size:15px;font-family:Arial, Helvetica, sans-serif;font-weight:400;dominant-baseline:text-before-edge;text-decoration:none solid rgb(0, 0, 0);">c</text></g></g><g><g><text x="555.24609375" y="120.5" style="white-space:pre;stroke:none;fill:rgb(0, 0, 0);font-size:15px;font-family:Arial, Helvetica, sans-serif;font-weight:400;dominant-baseline:text-before-edge;text-decoration:none solid rgb(0, 0, 0);">...</text></g></g><g><g><g><g><g><g style="transform:matrix(1,0,0,1,524.8125,166.75);"><path d="M409 -15C458 -15 530 43 565 74L565 81C562 86 558 90 553 92C531 76 472 25 461 77C461 151 506 393 533 463L533 473C511 465 488 459 465 456L455 445C453 381 421 203 395 146C372 97 311 42 254 42C199 42 184 90 185 137C188 248 238 356 241 467C213 462 187 457 161 453C179 227 9 -91 53 -286C76 -285 109 -281 131 -273L131 -261C81 -173 121 -38 138 36L138 35C204 -77 344 37 395 104L395 101C387 65 354 -15 409 -15Z" stroke="rgb(0, 0, 0)" stroke-width="8" fill="rgb(0, 0, 0)" style="transform:matrix(0.017,0,0,-0.017,0,0);"></path></g></g></g></g></g></g><g><g><g><g><g><g style="transform:matrix(1,0,0,1,524.8125,116.75);"><path d="M409 -15C458 -15 530 43 565 74L565 81C562 86 558 90 553 92C531 76 472 25 461 77C461 151 506 393 533 463L533 473C511 465 488 459 465 456L455 445C453 381 421 203 395 146C372 97 311 42 254 42C199 42 184 90 185 137C188 248 238 356 241 467C213 462 187 457 161 453C179 227 9 -91 53 -286C76 -285 109 -281 131 -273L131 -261C81 -173 121 -38 138 36L138 35C204 -77 344 37 395 104L395 101C387 65 354 -15 409 -15Z" stroke="rgb(0, 0, 0)" stroke-width="8" fill="rgb(0, 0, 0)" style="transform:matrix(0.017,0,0,-0.017,0,0);"></path></g></g></g></g></g></g><g><g><g><g><g><g style="transform:matrix(1,0,0,1,524.8125,66.75);"><path d="M409 -15C458 -15 530 43 565 74L565 81C562 86 558 90 553 92C531 76 472 25 461 77C461 151 506 393 533 463L533 473C511 465 488 459 465 456L455 445C453 381 421 203 395 146C372 97 311 42 254 42C199 42 184 90 185 137C188 248 238 356 241 467C213 462 187 457 161 453C179 227 9 -91 53 -286C76 -285 109 -281 131 -273L131 -261C81 -173 121 -38 138 36L138 35C204 -77 344 37 395 104L395 101C387 65 354 -15 409 -15Z" stroke="rgb(0, 0, 0)" stroke-width="8" fill="rgb(0, 0, 0)" style="transform:matrix(0.017,0,0,-0.017,0,0);"></path></g></g></g></g></g></g><g><g><text x="81.98046875" y="4.75" style="white-space:pre;stroke:none;fill:rgb(0, 0, 0);font-size:21.6px;font-family:Arial, Helvetica, sans-serif;font-weight:400;dominant-baseline:text-before-edge;text-decoration:none solid rgb(0, 0, 0);">Multiple Queues</text></g></g><g><g><text x="417.06640625" y="4.75" style="white-space:pre;stroke:none;fill:rgb(0, 0, 0);font-size:21.6px;font-family:Arial, Helvetica, sans-serif;font-weight:400;dominant-baseline:text-before-edge;text-decoration:none solid rgb(0, 0, 0);">Single Queue</text></g></g></svg>
</svg>
