<svg xmlns="http://www.w3.org/2000/svg" width="662" height="183.77500915527344" style="
        width:662px;
        height:183.77500915527344px;
        background: transparent;
        fill: none;
">
        
        
        <svg xmlns="http://www.w3.org/2000/svg" class="role-diagram-draw-area"><g class="shapes-region" style="stroke: black; fill: none;"><g class="grouped-shape"><g class="composite-shape"><path class="real" d=" M300,91.5 C300,74.93 313.43,61.5 330,61.5 C346.57,61.5 360,74.93 360,91.5 C360,108.07 346.57,121.5 330,121.5 C313.43,121.5 300,108.07 300,91.5 Z" style="stroke-width: 1; stroke: rgb(0, 0, 0); fill: none;"/></g></g><g class="composite-shape"><path class="real" d=" M510,70.5 L510,112.5 C510,117.47 483.14,121.5 450,121.5 C416.86,121.5 390,117.47 390,112.5 L390,70.5 C390,65.53 416.86,61.5 450,61.5 C483.14,61.5 510,65.53 510,70.5 C510,75.47 483.14,79.5 450,79.5 C416.86,79.5 390,75.47 390,70.5" style="stroke-width: 1; stroke: rgb(0, 0, 0); fill: none;"/></g><g class="arrow-line"><path class="connection real" stroke-dasharray="" d="  M450,121.5 C450.07,160.92 355.96,152.4 331.72,123.74" style="stroke: rgb(0, 0, 0); stroke-width: 1; fill: none;"/><g stroke="none" fill="#000" transform="matrix(0.5692795234308449,0.822144041030737,-0.822144041030737,0.5692795234308449,330,121.5)" style="stroke: none; fill: rgb(0, 0, 0); stroke-width: 1;"><path d=" M8.93,-4.29 L0,0 L8.93,4.29 Z"/></g></g><g class="composite-shape"><path class="real" d=" M270,70.5 L270,112.5 C270,117.47 243.14,121.5 210,121.5 C176.86,121.5 150,117.47 150,112.5 L150,70.5 C150,65.53 176.86,61.5 210,61.5 C243.14,61.5 270,65.53 270,70.5 C270,75.47 243.14,79.5 210,79.5 C176.86,79.5 150,75.47 150,70.5" style="stroke-width: 1; stroke: rgb(0, 0, 0); fill: none;"/></g><g class="arrow-line"><path class="connection real" stroke-dasharray="" d="  M330,61.5 C330.07,33.5 425.15,22.38 448.65,59.19" style="stroke: rgb(0, 0, 0); stroke-width: 1; fill: none;"/><g stroke="none" fill="#000" transform="matrix(-0.4674670115370807,-0.8840105164106312,0.8840105164106312,-0.4674670115370807,450,61.5)" style="stroke: none; fill: rgb(0, 0, 0); stroke-width: 1;"><path d=" M8.93,-4.29 L0,0 L8.93,4.29 Z"/></g></g><g class="arrow-line"><path class="connection real" stroke-dasharray="" d="  M330,61.5 C330.07,33.5 233.07,23.34 211.24,59.24" style="stroke: rgb(0, 0, 0); stroke-width: 1; fill: none;"/><g stroke="none" fill="#000" transform="matrix(0.4432276504741213,-0.896409086218558,0.896409086218558,0.4432276504741213,210,61.5)" style="stroke: none; fill: rgb(0, 0, 0); stroke-width: 1;"><path d=" M8.93,-4.29 L0,0 L8.93,4.29 Z"/></g></g><g class="arrow-line"><path class="connection real" stroke-dasharray="" d="  M210,121.5 C210.07,160.92 305.13,152.4 328.36,123.74" style="stroke: rgb(0, 0, 0); stroke-width: 1; fill: none;"/><g stroke="none" fill="#000" transform="matrix(-0.54785527597382,0.8365731268619915,-0.8365731268619915,-0.54785527597382,329.99999999999994,121.5)" style="stroke: none; fill: rgb(0, 0, 0); stroke-width: 1;"><path d=" M8.93,-4.29 L0,0 L8.93,4.29 Z"/></g></g><g/></g><g/><g/><g/></svg>
        <svg xmlns="http://www.w3.org/2000/svg" width="660" height="181.77500915527344" style="width:660px;height:181.77500915527344px;font-family:Asana-Math, Asana;background:transparent;"><g><g><text x="407.0562744140625" y="79.79998779296875" style="white-space:pre;stroke:none;fill:rgb(0, 0, 0);font-size:15px;font-family:Arial, Helvetica, sans-serif;font-weight:400;font-style:normal;dominant-baseline:text-before-edge;text-decoration:none solid rgb(0, 0, 0);">Actual State</text></g><g><text x="407.0562744140625" y="100.60000610351562" style="white-space:pre;stroke:none;fill:rgb(0, 0, 0);font-size:15px;font-family:Arial, Helvetica, sans-serif;font-weight:400;font-style:normal;dominant-baseline:text-before-edge;text-decoration:none solid rgb(0, 0, 0);">of World</text></g></g><g><g><text x="362.1500244140625" y="151.69998168945312" style="white-space:pre;stroke:none;fill:rgb(0, 0, 0);font-size:15px;font-family:Arial, Helvetica, sans-serif;font-weight:400;font-style:normal;dominant-baseline:text-before-edge;text-decoration:none solid rgb(0, 0, 0);">Observe</text></g></g><g><g><text x="317.34375" y="82.70001220703125" style="white-space:pre;stroke:none;fill:rgb(0, 0, 0);font-size:15px;font-family:Arial, Helvetica, sans-serif;font-weight:400;font-style:normal;dominant-baseline:text-before-edge;text-decoration:none solid rgb(0, 0, 0);">You</text></g></g><g><g><text x="162.4749755859375" y="79.79998779296875" style="white-space:pre;stroke:none;fill:rgb(0, 0, 0);font-size:15px;font-family:Arial, Helvetica, sans-serif;font-weight:400;font-style:normal;dominant-baseline:text-before-edge;text-decoration:none solid rgb(0, 0, 0);">Mental Model</text></g><g><text x="162.4749755859375" y="100.60000610351562" style="white-space:pre;stroke:none;fill:rgb(0, 0, 0);font-size:15px;font-family:Arial, Helvetica, sans-serif;font-weight:400;font-style:normal;dominant-baseline:text-before-edge;text-decoration:none solid rgb(0, 0, 0);">of World</text></g></g><g><g><text x="352.0625" y="11.70001220703125" style="white-space:pre;stroke:none;fill:rgb(0, 0, 0);font-size:15px;font-family:Arial, Helvetica, sans-serif;font-weight:400;font-style:normal;dominant-baseline:text-before-edge;text-decoration:none solid rgb(0, 0, 0);">Experiment</text></g></g><g><g><text x="249.8125" y="13.70001220703125" style="white-space:pre;stroke:none;fill:rgb(0, 0, 0);font-size:15px;font-family:Arial, Helvetica, sans-serif;font-weight:400;font-style:normal;dominant-baseline:text-before-edge;text-decoration:none solid rgb(0, 0, 0);">Update</text></g></g><g><g><text x="241.8187255859375" y="151.69998168945312" style="white-space:pre;stroke:none;fill:rgb(0, 0, 0);font-size:15px;font-family:Arial, Helvetica, sans-serif;font-weight:400;font-style:normal;dominant-baseline:text-before-edge;text-decoration:none solid rgb(0, 0, 0);">Theorize</text></g></g></svg>
</svg>
